<svg width="1492" height="306" viewBox="0 0 1492 306" fill="none" xmlns="http://www.w3.org/2000/svg">
<rect y="5" width="1492" height="300" fill="white"/>
<path d="M697.976 140.408V134.6H702.008L702.392 128.36H699.128V122.552H702.776L703.256 114.536H709.928L709.448 122.552H715.448L715.928 114.536H722.6L722.12 122.552H725.432V128.36H721.736L721.352 134.6H724.28V140.408H721.016L720.488 149H713.816L714.344 140.408H708.344L707.816 149H701.144L701.672 140.408H697.976ZM709.064 128.36L708.68 134.6H714.68L715.064 128.36H709.064ZM755.212 138.92C755.212 142.152 754.028 144.696 751.66 146.552C749.292 148.376 746.268 149.288 742.588 149.288C739.676 149.288 736.86 148.488 734.14 146.888C732.796 146.056 731.692 144.888 730.828 143.384C729.964 141.848 729.532 140.104 729.532 138.152L735.58 137.864C735.58 139.592 736.316 140.936 737.788 141.896C739.26 142.856 740.892 143.336 742.684 143.336C746.684 143.336 748.684 141.928 748.684 139.112C748.684 136.808 747.324 135.448 744.604 135.032L739.036 134.456C736.252 134.04 734.044 133.048 732.412 131.48C730.78 129.912 729.964 127.656 729.964 124.712C729.964 121.768 731.132 119.336 733.468 117.416C735.804 115.496 738.748 114.536 742.299 114.536C745.884 114.536 748.764 115.448 750.94 117.272C753.116 119.064 754.204 121.384 754.204 124.232L748.252 124.52C747.708 121.736 745.836 120.344 742.636 120.344C740.684 120.344 739.148 120.76 738.028 121.592C736.94 122.424 736.396 123.416 736.396 124.568C736.396 125.688 736.796 126.584 737.596 127.256C738.396 127.896 739.388 128.296 740.572 128.456L746.044 129.032C752.156 129.864 755.212 133.16 755.212 138.92ZM783.043 149H770.947C767.107 149 764.403 148.344 762.835 147.032C761.299 145.688 760.531 143.336 760.531 139.976V114.824H783.043V120.776H767.203V128.792H778.291L777.811 134.744H767.203V139.496C767.203 140.84 767.507 141.768 768.115 142.28C768.723 142.792 769.827 143.048 771.427 143.048H783.043V149ZM810.665 149H800.489C796.649 149 793.865 148.264 792.137 146.792C790.441 145.288 789.593 142.856 789.593 139.496V114.824H796.265V139.496C796.265 140.84 796.569 141.768 797.177 142.28C797.785 142.792 798.889 143.048 800.489 143.048H810.665V149ZM837.056 149H826.88C823.04 149 820.256 148.264 818.528 146.792C816.832 145.288 815.984 142.856 815.984 139.496V114.824H822.656V139.496C822.656 140.84 822.96 141.768 823.568 142.28C824.176 142.792 825.28 143.048 826.88 143.048H837.056V149ZM879.451 149H872.491L870.571 143.096H859.099L857.227 149H850.267L861.211 117.704C861.691 116.616 862.219 115.864 862.795 115.448C863.403 115.032 864.139 114.824 865.003 114.824C865.867 114.824 866.555 115.016 867.067 115.4C867.611 115.784 868.091 116.552 868.507 117.704L879.451 149ZM869.035 137.48L865.003 123.944L860.779 137.48H869.035ZM910.78 114.824V145.544C910.78 146.6 910.46 147.512 909.82 148.28C909.18 149.016 908.428 149.384 907.564 149.384C905.356 149.384 903.548 148.104 902.14 145.544L890.332 127.064V149H883.66V114.824H890.092L904.108 137.192V114.824H910.78ZM941.031 114.824L930.759 134.984V149H924.135V134.984L913.863 114.824H921.111L927.495 128.6L933.783 114.824H941.031ZM967.396 120.776H958.228V149H951.556V120.776H942.436V114.824H967.396V120.776ZM997.985 149H991.313V135.176H978.785V149H972.113V114.824H978.785V129.272H991.313V114.824H997.985V149ZM1012.12 149H1005.45V114.824H1012.12V149ZM1046.72 114.824V145.544C1046.72 146.6 1046.4 147.512 1045.76 148.28C1045.12 149.016 1044.37 149.384 1043.5 149.384C1041.29 149.384 1039.49 148.104 1038.08 145.544L1026.27 127.064V149H1019.6V114.824H1026.03L1040.05 137.192V114.824H1046.72ZM1051.53 132.92V128.696C1051.53 124.248 1052.7 120.776 1055.03 118.28C1057.37 115.784 1060.6 114.536 1064.73 114.536C1068.86 114.536 1072.17 115.784 1074.66 118.28C1076.42 120.04 1077.3 122.68 1077.3 126.2H1071.06C1071.06 122.392 1069.03 120.488 1064.97 120.488C1063.75 120.488 1062.71 120.728 1061.85 121.208C1061.02 121.656 1060.39 122.184 1059.98 122.792C1059.56 123.4 1059.24 124.296 1059.02 125.48C1058.79 126.664 1058.66 127.656 1058.63 128.456C1058.6 129.256 1058.58 130.328 1058.58 131.672C1058.58 133.016 1058.58 133.928 1058.58 134.408C1058.62 134.856 1058.66 135.608 1058.73 136.664C1058.82 137.688 1058.95 138.424 1059.11 138.872C1059.3 139.32 1059.56 139.896 1059.88 140.6C1060.23 141.304 1060.66 141.8 1061.18 142.088C1062.49 142.92 1063.98 143.336 1065.64 143.336C1068.42 143.336 1070.39 142.152 1071.54 139.784V137.48H1067.42V131.912H1077.26V142.232C1076.26 144.568 1074.7 146.328 1072.55 147.512C1070.41 148.696 1067.98 149.288 1065.26 149.288C1060.42 149.288 1056.92 147.944 1054.74 145.256C1052.6 142.536 1051.53 138.424 1051.53 132.92ZM697.976 205.408V199.6H702.008L702.392 193.36H699.128V187.552H702.776L703.256 179.536H709.928L709.448 187.552H715.448L715.928 179.536H722.6L722.12 187.552H725.432V193.36H721.736L721.352 199.6H724.28V205.408H721.016L720.488 214H713.816L714.344 205.408H708.344L707.816 214H701.144L701.672 205.408H697.976ZM709.064 193.36L708.68 199.6H714.68L715.064 193.36H709.064ZM756.94 204.16C756.94 207.328 756.076 209.76 754.348 211.456C752.652 213.152 750.268 214 747.196 214H742.588C738.812 214 736.124 213.344 734.523 212.032C732.956 210.72 732.172 208.448 732.172 205.216V179.824H746.62C749.884 179.824 752.332 180.64 753.964 182.272C755.628 183.904 756.46 186.208 756.46 189.184C756.46 190.912 756.012 192.384 755.116 193.6C754.252 194.816 753.292 195.68 752.236 196.192C755.372 197.664 756.94 200.32 756.94 204.16ZM746.092 193.168C748.556 193.168 749.788 191.936 749.788 189.472C749.788 187.008 748.556 185.776 746.092 185.776H738.844V193.168H746.092ZM750.268 203.824C750.268 202.288 749.996 201.136 749.452 200.368C748.908 199.568 747.932 199.168 746.524 199.168H738.844V204.544C738.844 205.856 739.164 206.768 739.804 207.28C740.476 207.792 741.564 208.048 743.068 208.048H746.524C749.02 208.048 750.268 206.64 750.268 203.824ZM788.869 179.824V202.288C788.869 206 787.605 208.928 785.077 211.072C782.581 213.216 779.493 214.288 775.813 214.288C772.133 214.288 769.029 213.216 766.501 211.072C764.005 208.928 762.757 206 762.757 202.288V179.824H769.429V202.048C769.429 204.16 770.005 205.744 771.157 206.8C772.341 207.824 773.893 208.336 775.813 208.336C777.733 208.336 779.285 207.824 780.469 206.8C781.653 205.744 782.245 204.16 782.245 202.048V179.824H788.869ZM819.156 179.824L808.884 199.984V214H802.26V199.984L791.988 179.824H799.236L805.62 193.6L811.908 179.824H819.156ZM860.373 214H853.413L851.493 208.096H840.021L838.149 214H831.189L842.133 182.704C842.613 181.616 843.141 180.864 843.717 180.448C844.325 180.032 845.061 179.824 845.925 179.824C846.789 179.824 847.477 180.016 847.989 180.4C848.533 180.784 849.013 181.552 849.429 182.704L860.373 214ZM849.957 202.48L845.925 188.944L841.701 202.48H849.957ZM891.702 179.824V210.544C891.702 211.6 891.382 212.512 890.742 213.28C890.102 214.016 889.35 214.384 888.486 214.384C886.278 214.384 884.47 213.104 883.062 210.544L871.254 192.064V214H864.582V179.824H871.014L885.03 202.192V179.824H891.702ZM921.953 179.824L911.681 199.984V214H905.057V199.984L894.785 179.824H902.033L908.417 193.6L914.705 179.824H921.953ZM948.317 185.776H939.149V214H932.477V185.776H923.357V179.824H948.317V185.776ZM978.907 214H972.235V200.176H959.707V214H953.035V179.824H959.707V194.272H972.235V179.824H978.907V214ZM993.047 214H986.375V179.824H993.047V214ZM1027.64 179.824V210.544C1027.64 211.6 1027.32 212.512 1026.68 213.28C1026.04 214.016 1025.29 214.384 1024.42 214.384C1022.22 214.384 1020.41 213.104 1019 210.544L1007.19 192.064V214H1000.52V179.824H1006.95L1020.97 202.192V179.824H1027.64ZM1032.45 197.92V193.696C1032.45 189.248 1033.62 185.776 1035.95 183.28C1038.29 180.784 1041.52 179.536 1045.65 179.536C1049.78 179.536 1053.09 180.784 1055.59 183.28C1057.35 185.04 1058.23 187.68 1058.23 191.2H1051.99C1051.99 187.392 1049.95 185.488 1045.89 185.488C1044.67 185.488 1043.63 185.728 1042.77 186.208C1041.94 186.656 1041.31 187.184 1040.9 187.792C1040.48 188.4 1040.16 189.296 1039.94 190.48C1039.71 191.664 1039.59 192.656 1039.55 193.456C1039.52 194.256 1039.51 195.328 1039.51 196.672C1039.51 198.016 1039.51 198.928 1039.51 199.408C1039.54 199.856 1039.59 200.608 1039.65 201.664C1039.75 202.688 1039.87 203.424 1040.03 203.872C1040.23 204.32 1040.48 204.896 1040.8 205.6C1041.15 206.304 1041.59 206.8 1042.1 207.088C1043.41 207.92 1044.9 208.336 1046.56 208.336C1049.35 208.336 1051.31 207.152 1052.47 204.784V202.48H1048.34V196.912H1058.18V207.232C1057.19 209.568 1055.62 211.328 1053.47 212.512C1051.33 213.696 1048.9 214.288 1046.18 214.288C1041.35 214.288 1037.84 212.944 1035.67 210.256C1033.52 207.536 1032.45 203.424 1032.45 197.92Z" fill="black"/>
<path d="M140 0C139.889 25.5709 139.815 51.1726 121.252 58.3904C102.652 65.6083 65.6366 54.5039 42.3402 61.1665C19.0438 67.86 9.54041 92.3204 0 116.781V0H140Z" fill="#4042E2"/>
<path d="M1374 305.4C1389.52 295.067 1405.01 284.711 1412.93 270.033C1420.81 255.355 1421.09 236.307 1433 226.24C1444.91 216.197 1468.47 215.086 1492 214V305.4H1374Z" fill="#4042E2"/>
<path d="M0 182C23.2964 183.846 46.561 185.725 60 198.422C73.439 211.151 77.0206 234.764 85.3566 254.262C93.7242 273.761 106.846 289.211 120 304.629H0V182Z" fill="#E8EFFD"/>
<path d="M0 243.314C11.6323 244.254 23.2964 245.161 29.9842 251.542C36.7036 257.89 38.5103 269.68 42.6941 279.429C46.878 289.211 53.439 296.92 60 304.629H0V243.314Z" fill="#4042E2"/>
<path d="M1492 119C1460.86 116.772 1429.76 114.544 1408.5 103.734C1387.28 92.8938 1375.9 73.4723 1363.64 55.5864C1351.38 37.7005 1338.19 21.3502 1325 5H1492V119Z" fill="#E8EFFD"/>
<path d="M1492 62C1476.43 60.8859 1460.86 59.7718 1450.27 54.3518C1439.64 48.962 1433.95 39.2361 1427.82 30.2932C1421.69 21.3502 1415.12 13.1601 1408.5 5H1492V62Z" fill="#4042E2"/>
<path d="M414.856 242.078C413.772 241.289 412.699 240.465 411.64 239.607C367.519 203.843 374.314 129.088 416.551 85.0755C421.954 79.4452 459.142 41.9364 517.143 41.9364C517.531 41.9364 517.919 41.938 518.309 41.9421C546.446 42.1855 569.088 51.1934 582.392 58.1077C576.941 66.59 571.291 77.9647 568.603 91.4344H547.928L547.162 86.9086L438.024 85.7159L414.856 242.078ZM618.655 204.057L615.075 143.807C622.462 133.321 627.473 122.071 631.051 110.964C640.667 136.497 638.896 166.111 626.481 190.986C624.19 195.574 621.569 199.929 618.655 204.057V204.057ZM600.18 81.8573C598.939 76.3935 598.004 71.5637 597.306 67.321C599.368 68.8622 601.974 70.9282 604.861 73.5214C603.171 76.1154 601.597 78.8905 600.18 81.8573" fill="url(#paint0_linear)"/>
<path d="M646.298 43.5132C646.896 42.4895 645.317 41.4051 644.017 41.9404C630.812 47.3726 597.82 64.9776 593.26 106.584C587.537 158.786 568.202 174.312 547.384 181.941C547.384 181.941 573.152 181.616 593.636 166.038C643.931 127.79 635.654 61.7165 646.298 43.5132Z" fill="#BDD0FB"/>
<path d="M612.851 106.36L612.572 101.672C612.533 101.011 612.425 100.366 612.253 99.7428C612.437 99.2164 612.624 98.69 612.813 98.1644C613.308 96.751 613.84 95.3472 614.369 93.9427C614.917 92.543 615.474 91.1457 616.047 89.7533C618.353 84.1869 620.889 78.6876 623.659 73.2683C626.463 67.8603 629.463 62.5195 632.741 57.2886C632.805 57.1859 632.941 57.1269 633.086 57.1269C633.151 57.1269 633.218 57.139 633.282 57.1641C633.481 57.2425 633.573 57.4213 633.492 57.5684C630.544 62.9076 627.744 68.2954 625.215 73.7656C622.648 79.2229 620.309 84.7472 618.206 90.3307C616.24 95.6319 614.402 100.965 612.851 106.36" fill="#DCE6FD"/>
<path d="M583.711 158.546C584.724 160.058 587.21 160.19 588.455 158.812C595.327 151.208 612.491 128.205 603.69 95.869C596.259 68.5624 595.256 53.1503 595.366 46.1268C595.39 44.6414 593.187 43.9937 592.14 45.1775C580.579 58.2292 546.969 103.792 583.711 158.546" fill="#91B3FA"/>
<path d="M592.131 91.4346H590.537C590.034 86.7996 589.307 82.1364 588.304 77.5201C588.224 77.1497 588.509 76.7948 588.94 76.726C588.989 76.718 589.037 76.7147 589.085 76.7147C589.461 76.7147 589.795 76.9436 589.866 77.2702C590.887 81.9706 591.624 86.718 592.131 91.4346Z" fill="#C0D6FC"/>
<path d="M433 98.7427C432.989 98.7427 432.979 98.7419 432.968 98.7419C432.524 98.7273 432.177 98.4071 432.194 98.0263C432.199 97.9349 432.632 88.7588 435.329 78.1119C438.967 63.7414 444.77 53.6654 452.574 48.1628C458.16 44.2257 464.735 42.7346 472.117 43.73C480.622 44.8774 487.777 48.4782 493.387 54.4311C497.841 59.1582 501.326 65.3683 503.746 72.89C507.847 85.6392 507.462 97.9503 507.457 98.0732C507.444 98.454 507.085 98.7532 506.628 98.7419C506.183 98.7305 505.834 98.412 505.848 98.0311C505.852 97.9106 506.228 85.7799 502.184 73.228C499.822 65.8971 496.437 59.8609 492.123 55.2866C486.774 49.6151 479.959 46.1858 471.866 45.0933C464.958 44.161 458.812 45.5526 453.597 49.2294C444.233 55.8308 439.349 68.7386 436.901 78.4046C434.235 88.9343 433.808 97.9883 433.803 98.0788C433.787 98.4508 433.43 98.7427 433 98.7427" fill="url(#paint1_linear)"/>
<path d="M466.784 260.909L412.077 260.83L414.856 242.078L438.024 85.716L547.162 86.9087L547.928 91.4345H490.178C485.473 90.9558 481.637 90.5281 478.903 90.2103C478.712 90.1884 478.524 90.1779 478.338 90.1779C476.875 90.1779 475.565 90.8402 474.827 91.8493C468.732 93.2474 464.246 98.0133 464.246 103.678V255.606C464.246 257.674 465.216 259.547 466.784 260.909" fill="url(#paint2_linear)"/>
<path d="M418.04 87.199L438.024 85.7161L412.078 260.83L388.305 261.052C384.206 261.052 383.291 260.07 384.126 256.571L418.04 87.199Z" fill="url(#paint3_linear)"/>
<path d="M455.529 98.3642H455.497C455.053 98.3497 454.706 98.0295 454.723 97.6486C454.728 97.5572 455.161 88.3812 457.857 77.7343C461.497 63.3638 467.299 53.2877 475.104 47.7852C480.69 43.8481 487.267 42.357 494.647 43.3524C503.151 44.4998 510.307 48.1005 515.917 54.0535C520.371 58.7806 523.856 64.9907 526.275 72.5123C530.376 85.2616 529.991 97.5726 529.987 97.6955C529.973 98.0764 529.619 98.3747 529.157 98.3642C528.713 98.3529 528.364 98.0343 528.377 97.6535C528.382 97.5322 528.757 85.4023 524.714 72.8503C522.352 65.5195 518.967 59.4833 514.653 54.909C509.304 49.2374 502.488 45.8073 494.396 44.7157C487.489 43.7834 481.342 45.175 476.128 48.8501C466.768 55.4483 461.884 68.3464 459.436 78.0052C456.767 88.5372 456.336 97.6106 456.333 97.7012C456.316 98.0723 455.959 98.3642 455.529 98.3642" fill="url(#paint4_linear)"/>
<path d="M473.052 263.156C470.603 263.156 468.383 262.297 466.785 260.909C465.216 259.547 464.246 257.674 464.246 255.606V103.678C464.246 98.0133 468.733 93.2474 474.827 91.8493C474.425 92.3992 474.193 93.0525 474.198 93.7576L475.29 253.021C475.301 254.55 476.648 255.83 478.42 255.989C485.532 256.627 495.767 256.878 507.477 256.878C543.742 256.878 594.089 254.469 609.083 253.709C611.508 253.586 613.36 251.808 613.231 249.729L603.829 98.1007C603.72 96.3403 602.019 94.9891 599.997 94.9891C599.898 94.9891 599.798 94.9924 599.697 94.9988C590.262 95.6198 580.435 95.8778 570.61 95.8778C539.424 95.8778 508.315 93.2773 490.178 91.4345H600.004C600.882 91.4345 601.742 91.5113 602.571 91.6593C607.337 92.5059 611.137 95.6667 612.254 99.7429C612.425 100.366 612.533 101.011 612.573 101.672L612.851 106.36L615.075 143.807L618.654 204.057L621.539 252.627C621.805 257.117 617.683 260.904 612.44 260.985L473.215 263.155C473.16 263.156 473.105 263.156 473.052 263.156" fill="url(#paint5_linear)"/>
<path d="M474.197 93.7577C474.182 91.5938 476.402 89.92 478.903 90.2103C495.491 92.1389 552.535 98.1023 599.697 94.9989C601.848 94.8574 603.715 96.2539 603.829 98.1007L613.231 249.729C613.36 251.808 611.508 253.586 609.083 253.709C589.247 254.715 507.558 258.605 478.42 255.989C476.647 255.83 475.301 254.55 475.29 253.021L474.197 93.7577" fill="#7D97F4"/>
<path d="M476.151 97.5572C476.137 95.475 478.273 93.8635 480.681 94.1432C496.644 95.999 551.539 101.738 596.926 98.7515C598.996 98.6156 600.792 99.9595 600.902 101.737L609.95 247.655C610.075 249.656 608.292 251.367 605.958 251.486C586.869 252.454 508.255 256.197 480.215 253.679C478.509 253.526 477.214 252.294 477.203 250.824L476.151 97.5572" fill="#BDD0FB"/>
<path d="M593.425 111.797H548.718C548.479 111.797 548.22 111.639 548.142 111.447L547.274 109.335C547.195 109.145 547.322 108.992 547.554 108.992H547.562L593.354 109.691C593.592 109.695 593.792 109.864 593.799 110.069L593.845 111.426C593.853 111.629 593.663 111.797 593.425 111.797V111.797ZM593.425 120.553H548.718C548.479 120.553 548.22 120.396 548.142 120.203L547.274 118.091C547.195 117.901 547.322 117.748 547.555 117.748H547.562L593.354 118.448C593.592 118.451 593.792 118.621 593.799 118.825L593.845 120.182C593.853 120.386 593.663 120.553 593.425 120.553ZM593.115 137.98H548.408C548.17 137.98 547.91 137.822 547.831 137.629L546.963 135.517C546.885 135.327 547.012 135.174 547.245 135.174H547.252L593.043 135.874C593.282 135.877 593.482 136.047 593.49 136.252L593.536 137.608C593.542 137.812 593.354 137.98 593.115 137.98V137.98ZM593.425 129.66H548.718C548.479 129.66 548.22 129.503 548.142 129.31L547.274 127.198C547.195 127.008 547.322 126.855 547.555 126.855H547.562L593.354 127.555C593.592 127.558 593.792 127.728 593.799 127.932L593.845 129.289C593.853 129.493 593.663 129.66 593.425 129.66V129.66ZM596.13 158.46H489.936C489.698 158.46 489.379 158.331 489.227 158.174L487.065 155.934C486.914 155.778 486.983 155.651 487.218 155.651H487.222L595.962 156.358C596.2 156.359 596.408 156.527 596.424 156.731L596.533 158.09C596.55 158.293 596.368 158.46 596.13 158.46V158.46ZM596.13 167.482H489.936C489.698 167.482 489.379 167.353 489.227 167.196L487.065 164.956C486.914 164.8 486.983 164.673 487.218 164.673H487.222L595.962 165.38C596.2 165.382 596.408 165.55 596.424 165.753L596.533 167.112C596.55 167.316 596.368 167.482 596.13 167.482V167.482ZM490.252 202.619C489.276 202.618 488.421 202.055 488.172 201.245C487.812 200.075 488.842 198.931 490.252 198.931C490.255 198.931 490.258 198.931 490.262 198.931L570.413 199.244C571.294 199.248 572.012 199.852 572.032 200.608C572.051 201.385 571.326 202.026 570.419 202.032L490.271 202.618C490.264 202.618 490.258 202.619 490.252 202.619V202.619ZM490.038 188.948C489.063 188.948 488.208 188.385 487.958 187.575C487.599 186.404 488.628 185.26 490.038 185.26H490.048L570.199 185.574C571.081 185.577 571.799 186.182 571.818 186.937C571.837 187.714 571.113 188.356 570.205 188.362L490.056 188.948H490.038V188.948ZM490.252 218.532C489.276 218.532 488.421 217.968 488.172 217.158C487.812 215.989 488.842 214.845 490.252 214.845H490.262L570.413 215.158C571.294 215.162 572.012 215.766 572.032 216.522C572.051 217.299 571.326 217.939 570.419 217.946L490.271 218.532H490.252V218.532ZM491.182 234.445C490.206 234.445 489.352 233.882 489.103 233.072C488.743 231.902 489.772 230.758 491.182 230.758H491.192L571.343 231.072C572.225 231.075 572.943 231.68 572.962 232.435C572.982 233.212 572.256 233.853 571.35 233.86L491.201 234.445H491.182" fill="#E5ECFD"/>
<path d="M582.934 181.783C582.591 181.811 582.283 181.951 582.086 182.164C581.924 182.339 581.853 182.551 581.886 182.761L582.869 188.968C582.975 189.635 583.733 190.126 584.632 190.109L593.294 189.953H593.311C594.15 189.931 594.827 189.406 594.823 188.777C594.806 185.935 594.752 183.274 594.276 181.93C594.062 181.327 593.31 180.924 592.464 180.944C590.885 181.003 588.056 181.284 585.782 181.51C584.695 181.618 583.667 181.72 582.934 181.783V181.783ZM593.331 190.523L593.308 190.523L584.647 190.679C583.409 190.701 582.362 189.999 582.211 189.044L581.228 182.838C581.169 182.473 581.289 182.108 581.564 181.811C581.871 181.477 582.347 181.26 582.868 181.215C583.597 181.153 584.621 181.051 585.706 180.944C587.99 180.717 590.833 180.434 592.436 180.375C593.599 180.339 594.607 180.903 594.912 181.765C595.414 183.182 595.471 185.889 595.488 188.774C595.494 189.711 594.528 190.491 593.331 190.523" fill="white"/>
<path d="M585.238 189.509C584.404 189.509 583.7 189.035 583.6 188.4L582.815 183.44C582.733 182.927 583.216 182.458 583.889 182.401C585.704 182.246 589.645 181.799 591.519 181.73C591.547 181.729 591.575 181.728 591.603 181.728C592.362 181.728 593.032 182.114 593.232 182.679C593.635 183.817 593.669 186.103 593.681 188.216C593.685 188.848 593.026 189.37 592.199 189.385L585.278 189.509H585.238" fill="#E5ECFD"/>
<path d="M584.827 197.112C584.484 197.141 584.174 197.28 583.979 197.493C583.817 197.668 583.746 197.881 583.779 198.09L584.762 204.297C584.868 204.963 585.626 205.454 586.525 205.438L595.186 205.283L595.203 205.282C596.043 205.26 596.719 204.735 596.715 204.106C596.698 201.265 596.644 198.604 596.168 197.259C595.954 196.657 595.191 196.24 594.357 196.273C592.778 196.331 589.949 196.613 587.675 196.839C586.587 196.948 585.56 197.05 584.827 197.112V197.112ZM595.224 205.852L595.2 205.853L586.539 206.008C585.302 206.031 584.254 205.327 584.103 204.374L583.12 198.167C583.062 197.802 583.182 197.438 583.456 197.139C583.764 196.806 584.239 196.589 584.761 196.544C585.489 196.483 586.514 196.381 587.599 196.272C589.883 196.045 592.725 195.763 594.329 195.703C594.34 195.703 594.351 195.702 594.363 195.702C595.501 195.672 596.502 196.241 596.805 197.093C597.307 198.511 597.364 201.218 597.38 204.103C597.386 205.04 596.421 205.82 595.224 205.852" fill="white"/>
<path d="M587.131 204.839C586.297 204.839 585.593 204.365 585.492 203.729L584.706 198.769C584.625 198.256 585.108 197.787 585.782 197.73C587.597 197.576 591.537 197.128 593.412 197.059C593.44 197.058 593.467 197.058 593.495 197.058C594.255 197.058 594.925 197.443 595.125 198.009C595.528 199.146 595.562 201.433 595.574 203.544C595.578 204.177 594.918 204.699 594.091 204.714L587.17 204.839H587.131" fill="#E5ECFD"/>
<path d="M585.395 213.018C585.052 213.047 584.742 213.186 584.546 213.399C584.385 213.574 584.314 213.787 584.347 213.996L585.33 220.203C585.436 220.87 586.193 221.361 587.093 221.344L595.754 221.189L595.771 221.188C596.61 221.166 597.287 220.642 597.283 220.012C597.266 217.171 597.212 214.51 596.735 213.165C596.522 212.564 595.759 212.144 594.924 212.179C593.346 212.238 590.517 212.519 588.243 212.745C587.155 212.854 586.128 212.956 585.395 213.018ZM595.791 221.758L595.767 221.759L587.106 221.914C585.869 221.937 584.822 221.234 584.67 220.28L583.687 214.073C583.63 213.709 583.75 213.344 584.024 213.045C584.332 212.712 584.807 212.495 585.329 212.45C586.057 212.389 587.082 212.287 588.166 212.179C590.45 211.951 593.293 211.669 594.896 211.61C594.907 211.609 594.919 211.609 594.931 211.609C596.069 211.579 597.07 212.147 597.372 213C597.874 214.418 597.931 217.124 597.948 220.009C597.954 220.946 596.988 221.727 595.791 221.758" fill="white"/>
<path d="M587.698 220.745C586.864 220.745 586.161 220.271 586.06 219.635L585.274 214.675C585.193 214.162 585.676 213.694 586.349 213.636C588.164 213.482 592.105 213.034 593.98 212.965C594.007 212.964 594.035 212.964 594.063 212.964C594.823 212.964 595.492 213.349 595.693 213.915C596.096 215.052 596.129 217.339 596.141 219.451C596.145 220.083 595.486 220.605 594.659 220.62L587.737 220.745H587.698" fill="#E5ECFD"/>
<path d="M585.961 228.924C585.619 228.953 585.31 229.092 585.113 229.305C584.951 229.48 584.88 229.693 584.913 229.902L585.897 236.109C586.003 236.776 586.76 237.267 587.66 237.25L596.321 237.095L596.339 237.094C597.177 237.072 597.854 236.548 597.85 235.918C597.833 233.077 597.779 230.416 597.303 229.071C597.09 228.47 596.325 228.048 595.491 228.085C593.912 228.144 591.083 228.425 588.81 228.651C587.723 228.76 586.695 228.862 585.961 228.924V228.924ZM596.358 237.664L596.335 237.665L587.674 237.82C586.436 237.843 585.389 237.14 585.238 236.186L584.255 229.979C584.197 229.615 584.316 229.25 584.591 228.951C584.899 228.618 585.374 228.402 585.896 228.356C586.624 228.295 587.648 228.193 588.733 228.085C591.017 227.857 593.86 227.575 595.463 227.516C595.474 227.515 595.487 227.515 595.498 227.515C596.637 227.485 597.638 228.054 597.939 228.906C598.441 230.324 598.498 233.03 598.515 235.915C598.521 236.852 597.556 237.633 596.358 237.664" fill="white"/>
<path d="M588.265 236.651C587.432 236.651 586.729 236.177 586.628 235.541L585.842 230.581C585.761 230.068 586.244 229.6 586.916 229.542C588.731 229.388 592.673 228.94 594.546 228.871C594.575 228.87 594.602 228.87 594.629 228.87C595.39 228.87 596.06 229.255 596.26 229.821C596.662 230.958 596.696 233.245 596.709 235.357C596.712 235.989 596.053 236.512 595.227 236.526L588.305 236.651H588.265Z" fill="#E5ECFD"/>
<path d="M525.844 135.848H525.826L501.636 135.57C501.217 135.565 500.847 135.333 500.724 134.995L493.406 114.954L489.363 115.036C489.354 115.037 489.345 115.037 489.337 115.037C488.841 115.037 488.444 114.754 488.444 114.328C488.444 113.893 488.856 113.591 489.363 113.58L494.095 113.473H494.121C494.52 113.473 494.87 113.682 494.988 114.006L495.858 116.376L530.324 115.756C530.336 115.756 530.348 115.756 530.359 115.756C530.724 115.756 531.066 115.857 531.287 116.089C531.514 116.329 531.586 116.632 531.48 116.926L527.407 128.215C527.259 128.625 526.794 128.922 526.266 128.922H526.264L500.456 128.888L502.341 134.091L525.826 134.309C526.393 134.314 526.855 134.629 526.855 135.089C526.855 135.545 526.404 135.848 525.844 135.848V135.848ZM505.273 142.856C505.24 142.856 505.207 142.855 505.174 142.854C503.184 142.81 501.573 141.424 501.573 139.765C501.573 138.123 503.152 136.805 505.116 136.805C505.135 136.805 505.154 136.805 505.174 136.806C507.177 136.833 508.815 138.219 508.815 139.896C508.815 141.544 507.231 142.856 505.273 142.856V142.856ZM505.142 138.418C504.226 138.418 503.489 139.033 503.489 139.8C503.489 140.576 504.244 141.223 505.174 141.241C505.188 141.242 505.201 141.242 505.216 141.242C506.129 141.242 506.868 140.629 506.868 139.86C506.868 139.081 506.107 138.434 505.174 138.419C505.163 138.418 505.152 138.418 505.142 138.418ZM521.407 143.219C521.371 143.219 521.335 143.218 521.3 143.217C519.211 143.17 517.521 141.751 517.521 140.052C517.521 138.37 519.177 137.02 521.237 137.02H521.3C523.402 137.049 525.122 138.469 525.122 140.188C525.122 141.877 523.46 143.219 521.407 143.219V143.219ZM521.265 138.673C520.305 138.673 519.531 139.301 519.531 140.087C519.531 140.882 520.324 141.545 521.3 141.565C521.314 141.565 521.329 141.565 521.345 141.565C522.303 141.565 523.078 140.938 523.078 140.151C523.078 139.351 522.279 138.688 521.3 138.673H521.265Z" fill="#F2F6FE"/>
<path d="M511.548 150.749C494.926 150.749 481.403 139.158 481.403 124.91C481.403 110.662 494.926 99.0703 511.548 99.0703C528.171 99.0703 541.694 110.662 541.694 124.91C541.694 139.158 528.171 150.749 511.548 150.749ZM511.548 101.279C496.347 101.279 483.978 111.879 483.978 124.91C483.978 137.94 496.347 148.541 511.548 148.541C526.751 148.541 539.118 137.94 539.118 124.91C539.118 111.879 526.751 101.279 511.548 101.279Z" fill="#F3F6FE"/>
<path d="M540.739 79.5939C538.842 79.5939 537.302 78.2751 537.302 76.6482C537.302 75.0213 538.842 73.7024 540.739 73.7024C542.637 73.7024 544.176 75.0213 544.176 76.6482C544.176 78.2751 542.637 79.5939 540.739 79.5939ZM546.8 70.8521C542.413 68.2355 538.598 68.2872 535.912 68.9664C533.462 69.5858 531.874 71.6138 532.107 73.7938L533.265 84.63L547.047 85.6787C547.047 85.6787 555.406 75.9835 546.8 70.8521Z" fill="url(#paint6_linear)"/>
<path d="M534.281 76.6902C534.11 76.6902 533.966 76.5786 533.95 76.4306L533.809 75.1207C533.587 73.0434 535.112 71.11 537.434 70.5222C539.08 70.1057 540.775 70.0459 542.472 70.3451C542.652 70.3758 542.768 70.527 542.731 70.6815C542.695 70.8351 542.52 70.9338 542.339 70.903C540.748 70.6241 539.163 70.6799 537.623 71.0688C535.604 71.5798 534.279 73.2617 534.471 75.069L534.612 76.3789C534.629 76.5358 534.494 76.6748 534.311 76.6886C534.3 76.6894 534.29 76.6902 534.281 76.6902ZM534.642 80.0718C534.472 80.0718 534.327 79.961 534.311 79.813L534.127 78.0867C534.11 77.9306 534.245 77.7915 534.427 77.777C534.614 77.7624 534.772 77.878 534.789 78.0349L534.973 79.7613C534.99 79.9173 534.855 80.0564 534.672 80.071C534.662 80.0718 534.651 80.0718 534.642 80.0718Z" fill="white"/>
<path d="M514.454 91.6334V86.185C514.454 84.3042 516.273 82.7986 518.466 82.8624L562.289 84.1497C564.234 84.2072 565.808 85.5228 565.925 87.1877L566.291 92.4226L514.454 91.6334" fill="url(#paint7_linear)"/>
<path d="M530.795 84.9155H528.91C528.726 84.9155 528.577 84.7877 528.577 84.6301C528.577 84.4732 528.726 84.3454 528.91 84.3454H530.795C530.978 84.3454 531.127 84.4732 531.127 84.6301C531.127 84.7877 530.978 84.9155 530.795 84.9155ZM516.827 89.9224C516.643 89.9224 516.494 89.7954 516.494 89.6377V87.4335C516.494 85.7306 518.11 84.3454 520.096 84.3454H527.025C527.209 84.3454 527.358 84.4732 527.358 84.6301C527.358 84.7877 527.209 84.9155 527.025 84.9155H520.096C518.477 84.9155 517.159 86.0451 517.159 87.4335V89.6377C517.159 89.7954 517.01 89.9224 516.827 89.9224Z" fill="white"/>
<path d="M496.598 93.0089C496.704 91.1224 498.52 89.6394 500.723 89.6394L577.355 89.6378C580.111 89.6378 582.466 91.3375 582.936 93.6647L583.001 93.9857C583.516 96.5352 581.227 98.8665 578.209 98.8665H499.588C497.782 98.8665 496.342 97.5719 496.429 96.0258L496.598 93.0089Z" fill="#7D97F4"/>
<path d="M489.528 159.246C489.528 159.246 488.089 155.998 486.408 156.296C484.726 156.593 482.887 157.7 482.887 157.7L480.186 160.831C480.186 160.831 487.769 163.391 490.435 161.925C490.435 161.925 498.18 163.071 507.961 161.696C506.545 159.134 505.701 156.568 505.205 154.578C500.252 156.981 494.916 158.776 489.528 159.246" fill="url(#paint8_linear)"/>
<path d="M530.555 135.688C530.555 135.688 519.466 147.659 505.206 154.578C505.701 156.568 506.545 159.134 507.961 161.696C515.358 160.655 523.92 158.173 531.179 152.655L530.555 135.688Z" fill="url(#paint9_linear)"/>
<path d="M544.383 188.748C542.215 179.918 540.046 174.807 532.785 158.072C530.5 152.805 528.425 147.476 529.428 141.924L530.555 135.688C530.555 135.688 544.665 131.595 560.308 135.515C560.308 135.515 581.648 143.462 567.153 182.707C560.619 188.972 552.973 190.758 544.383 188.748" fill="url(#paint10_linear)"/>
<path d="M532.957 127.728L536.616 135.263C536.847 135.739 537.346 136.078 537.939 136.165C540.049 136.475 545.151 136.96 548.501 135.071C548.901 134.846 549.002 134.381 548.73 134.045L541.97 125.726L532.957 127.728Z" fill="url(#paint11_linear)"/>
<path d="M536.741 116.2C536.587 116.324 530.255 126.982 530.255 126.982L537.432 129.951L545.184 120.614C545.184 120.614 539.313 114.125 536.741 116.2Z" fill="url(#paint12_linear)"/>
<path d="M541.922 121.735L538.343 126.849C538.288 126.927 538.224 126.997 538.147 127.058C537.72 127.398 536.263 128.387 535.135 127.041C534.175 125.893 533.274 124.85 532.308 124.42C531.744 124.169 531.05 124.37 530.764 124.856C530.174 125.858 529.032 127.9 528.314 129.837C528.135 130.322 528.426 130.844 528.977 131.034C530.431 131.539 533.303 132.452 535.852 132.753C536.269 132.803 536.685 132.652 536.934 132.359C538.03 131.072 541.12 127.473 542.175 126.573C543.155 125.736 544.964 126.051 545.779 126.251C546.088 126.328 546.417 126.291 546.693 126.149C547.52 125.722 548.962 124.659 547.643 122.859C547.314 122.412 547.482 121.815 547.997 121.525C548.92 121.005 549.922 120.028 548.968 118.446C548.001 116.844 546.277 116.7 545.101 116.823C544.581 116.878 544.053 116.644 543.854 116.229C543.765 116.044 543.59 115.887 543.264 115.83C542.648 115.723 542.243 115.241 542.365 114.712C542.571 113.805 542.415 112.628 540.727 111.832C537.631 110.373 534.919 112.751 534.229 114.758C533.538 116.765 537.001 118.184 539.179 118.42C540.779 118.595 541.655 120.091 542.008 120.873C542.136 121.157 542.105 121.473 541.922 121.735" fill="url(#paint13_linear)"/>
<path d="M540.667 128.103C540.667 128.103 542.208 124.997 543.97 125.124C545.732 125.251 547.12 126.756 544.935 128.447C542.218 130.552 540.667 128.103 540.667 128.103" fill="url(#paint14_linear)"/>
<path d="M542.994 266.559C546.402 266.811 552.317 267.221 556.98 267.398C559.783 267.503 561.397 267.268 562.326 266.949C562.324 267.039 562.322 267.123 562.318 267.203C562.296 267.623 561.897 267.96 561.402 267.983C552.591 268.405 545.582 268.129 543.088 267.999C542.572 267.972 542.265 267.491 542.529 267.115C542.661 266.926 542.82 266.742 542.994 266.559Z" fill="url(#paint15_linear)"/>
<path d="M556.981 267.397C552.317 267.221 546.403 266.811 542.994 266.559C546.345 263.035 556.981 260.66 556.981 260.66H559.984C562.05 263.213 562.349 265.643 562.327 266.949C561.397 267.268 559.783 267.503 556.981 267.397Z" fill="url(#paint16_linear)"/>
<path d="M560.49 256.457L560.209 261.225C560.179 261.741 559.728 262.175 559.125 262.249C558.524 262.323 557.72 262.332 556.868 262.089C556.344 261.939 555.954 261.56 555.858 261.098L554.886 256.457H560.49Z" fill="url(#paint17_linear)"/>
<path d="M599.505 267.362C600.983 267.185 601.652 266.527 601.932 265.823L601.938 265.843C602.155 266.585 601.651 267.354 600.643 267.719C599.426 268.162 598.093 268.237 597.06 268.2C595.95 268.162 594.932 267.768 594.372 267.138L594.363 267.128C595.477 267.6 597.041 267.656 599.505 267.362" fill="url(#paint18_linear)"/>
<path d="M592.537 256.426H595.014C598.787 256.36 601.156 263.182 601.932 265.823C601.652 266.528 600.983 267.185 599.505 267.362C597.041 267.656 595.477 267.601 594.363 267.128C592.326 264.829 591.314 261.462 590.828 259.497C590.277 257.262 592.537 256.426 592.537 256.426" fill="url(#paint19_linear)"/>
<path d="M594.696 252.001L596.071 256.691C596.24 257.265 595.919 257.86 595.299 258.132C594.529 258.471 593.446 258.827 592.45 258.724C591.982 258.676 591.593 258.393 591.438 258.015L589.418 253.081L594.696 252.001Z" fill="url(#paint20_linear)"/>
<path d="M596.336 253.357C594.625 254.658 589.059 254.829 589.059 254.829C569.007 213.579 560.648 202.223 560.648 202.223C563.543 217.793 561.272 257.758 561.272 257.758C557.963 259.01 553.697 257.758 553.697 257.758C553.428 232.268 549.241 204.879 543.841 187.354C557.394 187.093 564.759 184.56 567.112 182.965C578.409 198.576 596.336 253.357 596.336 253.357" fill="url(#paint21_linear)"/>
<path d="M540.427 198.88L542.921 212.175C543.355 214.494 545.861 216.101 548.593 215.816L585.917 211.913C587.742 211.722 589.127 210.416 589.164 208.846C589.243 205.411 589.085 199.298 587.404 193.728L540.427 198.88" fill="url(#paint22_linear)"/>
<path d="M582.956 194.311C582.901 194.311 582.853 194.276 582.847 194.228C582.838 194.176 582.882 194.129 582.942 194.122L583.819 194.025C583.886 194.018 583.936 194.056 583.944 194.108C583.951 194.16 583.908 194.207 583.848 194.214L582.97 194.31L582.956 194.311ZM586.397 194.35C586.347 194.35 586.301 194.321 586.289 194.278C586.259 194.17 586.227 194.063 586.195 193.956L585.896 193.989C585.83 193.996 585.78 193.958 585.772 193.907C585.764 193.855 585.807 193.808 585.867 193.801L586.361 193.747L586.384 193.828C586.426 193.962 586.465 194.097 586.504 194.232C586.518 194.283 586.482 194.334 586.423 194.347C586.414 194.349 586.405 194.35 586.397 194.35ZM580.031 194.632C579.975 194.632 579.928 194.596 579.92 194.549C579.913 194.497 579.956 194.449 580.016 194.443L580.894 194.346C580.961 194.34 581.01 194.377 581.017 194.429C581.026 194.481 580.983 194.528 580.922 194.535L580.045 194.631L580.031 194.632ZM577.105 194.953C577.05 194.953 577.002 194.917 576.995 194.87C576.987 194.818 577.031 194.77 577.091 194.764L577.968 194.667C578.036 194.66 578.084 194.698 578.092 194.749C578.101 194.802 578.057 194.849 577.997 194.856L577.119 194.952L577.105 194.953ZM574.179 195.273C574.124 195.273 574.077 195.238 574.069 195.191C574.062 195.139 574.104 195.091 574.165 195.085L575.043 194.988C575.111 194.98 575.159 195.018 575.167 195.07C575.174 195.122 575.132 195.17 575.071 195.176L574.194 195.272L574.179 195.273ZM571.254 195.594C571.199 195.594 571.152 195.559 571.144 195.512C571.137 195.46 571.179 195.412 571.239 195.406L572.118 195.309C572.186 195.303 572.234 195.339 572.241 195.391C572.249 195.443 572.206 195.491 572.146 195.497L571.268 195.593L571.254 195.594ZM568.328 195.915C568.273 195.915 568.225 195.88 568.219 195.833C568.21 195.78 568.254 195.733 568.314 195.726L569.191 195.63C569.261 195.623 569.307 195.66 569.316 195.712C569.323 195.764 569.28 195.812 569.22 195.818L568.342 195.914L568.328 195.915ZM565.403 196.236C565.348 196.236 565.3 196.201 565.293 196.153C565.285 196.101 565.328 196.054 565.389 196.047L566.266 195.951C566.336 195.943 566.382 195.981 566.39 196.033C566.398 196.085 566.355 196.133 566.294 196.139L565.417 196.235L565.403 196.236ZM562.477 196.557C562.423 196.557 562.374 196.522 562.368 196.474C562.359 196.422 562.403 196.374 562.463 196.368L563.34 196.272C563.411 196.265 563.457 196.302 563.465 196.354C563.473 196.406 563.429 196.453 563.369 196.46L562.491 196.556L562.477 196.557ZM587.004 196.823C586.951 196.823 586.905 196.791 586.896 196.745C586.844 196.497 586.79 196.249 586.733 196.002C586.721 195.95 586.761 195.901 586.82 195.89C586.88 195.88 586.938 195.914 586.95 195.964C587.007 196.213 587.062 196.463 587.113 196.712C587.124 196.763 587.084 196.813 587.024 196.822L587.004 196.823ZM559.552 196.877C559.497 196.877 559.449 196.843 559.442 196.795C559.434 196.743 559.477 196.695 559.538 196.689L560.415 196.593C560.482 196.585 560.531 196.623 560.54 196.674C560.547 196.727 560.504 196.774 560.443 196.781L559.566 196.877H559.552ZM556.627 197.198C556.572 197.198 556.524 197.164 556.517 197.116C556.509 197.064 556.552 197.016 556.612 197.01L557.49 196.914C557.557 196.907 557.607 196.944 557.614 196.995C557.622 197.047 557.578 197.095 557.518 197.101L556.641 197.198L556.627 197.198ZM553.701 197.519C553.645 197.519 553.598 197.485 553.591 197.437C553.583 197.385 553.627 197.337 553.687 197.331L554.564 197.235C554.632 197.227 554.68 197.265 554.688 197.316C554.696 197.368 554.653 197.416 554.593 197.422L553.715 197.519L553.701 197.519ZM550.776 197.84C550.72 197.84 550.673 197.806 550.665 197.758C550.658 197.705 550.701 197.658 550.762 197.651L551.639 197.555C551.707 197.548 551.755 197.586 551.762 197.637C551.771 197.689 551.728 197.737 551.667 197.743L550.79 197.84L550.776 197.84ZM547.85 198.161C547.795 198.161 547.748 198.127 547.74 198.079C547.732 198.026 547.776 197.98 547.835 197.972L548.714 197.876C548.782 197.87 548.83 197.907 548.837 197.958C548.846 198.01 548.802 198.058 548.742 198.064L547.864 198.161L547.85 198.161ZM544.924 198.482C544.869 198.482 544.822 198.447 544.815 198.399C544.807 198.347 544.849 198.3 544.911 198.293L545.788 198.197C545.857 198.19 545.904 198.228 545.912 198.279C545.92 198.331 545.877 198.379 545.816 198.385L544.938 198.482L544.924 198.482ZM541.999 198.803C541.944 198.803 541.896 198.768 541.889 198.72C541.881 198.668 541.924 198.621 541.984 198.614L542.862 198.518C542.933 198.51 542.978 198.549 542.986 198.6C542.994 198.652 542.95 198.699 542.89 198.706L542.013 198.803L541.999 198.803ZM587.443 199.324C587.388 199.324 587.34 199.289 587.333 199.241C587.296 198.992 587.259 198.741 587.218 198.49C587.21 198.438 587.251 198.39 587.312 198.383C587.376 198.377 587.429 198.412 587.437 198.464C587.478 198.716 587.516 198.967 587.552 199.217C587.56 199.269 587.517 199.317 587.456 199.323L587.443 199.324ZM541.712 199.599C541.658 199.599 541.612 199.565 541.602 199.519L541.462 198.77C541.452 198.719 541.493 198.67 541.553 198.662C541.617 198.653 541.67 198.689 541.681 198.74L541.821 199.489C541.831 199.541 541.79 199.589 541.73 199.598L541.712 199.599ZM587.738 201.839C587.68 201.839 587.632 201.802 587.628 201.752C587.604 201.503 587.58 201.251 587.553 200.997C587.547 200.945 587.592 200.899 587.653 200.895C587.715 200.888 587.767 200.928 587.773 200.98C587.8 201.235 587.825 201.487 587.848 201.737C587.853 201.79 587.807 201.835 587.746 201.839H587.738ZM542.18 202.095C542.126 202.095 542.079 202.061 542.07 202.015L541.931 201.266C541.92 201.215 541.962 201.165 542.022 201.157C542.083 201.149 542.139 201.185 542.149 201.236L542.289 201.985C542.299 202.037 542.258 202.086 542.198 202.094L542.18 202.095ZM587.909 204.363C587.849 204.363 587.8 204.324 587.798 204.273C587.787 204.025 587.775 203.772 587.76 203.516C587.756 203.463 587.803 203.419 587.864 203.417C587.928 203.417 587.978 203.454 587.98 203.506C587.996 203.763 588.008 204.017 588.019 204.266C588.022 204.318 587.974 204.362 587.913 204.363H587.909ZM542.648 204.591C542.595 204.591 542.548 204.558 542.539 204.511L542.399 203.763C542.388 203.711 542.43 203.662 542.49 203.653C542.553 203.643 542.607 203.681 542.617 203.732L542.757 204.481C542.767 204.532 542.726 204.581 542.666 204.59L542.648 204.591ZM587.967 206.892C587.907 206.892 587.857 206.85 587.857 206.797C587.857 206.553 587.855 206.3 587.85 206.04C587.85 205.988 587.898 205.944 587.96 205.944C588.02 205.947 588.071 205.985 588.072 206.037C588.076 206.298 588.078 206.552 588.079 206.797C588.079 206.85 588.029 206.892 587.967 206.892ZM543.116 207.087C543.063 207.087 543.016 207.054 543.007 207.007L542.866 206.258C542.857 206.206 542.898 206.158 542.958 206.15C543.02 206.14 543.075 206.176 543.084 206.228L543.225 206.977C543.235 207.029 543.194 207.077 543.134 207.085L543.116 207.087ZM587.7 209.392C587.686 209.392 587.673 209.39 587.659 209.385C587.602 209.365 587.575 209.311 587.597 209.262C587.705 209.034 587.778 208.796 587.813 208.554C587.822 208.502 587.876 208.465 587.938 208.472C587.998 208.478 588.041 208.526 588.033 208.578C587.995 208.837 587.917 209.091 587.803 209.332C587.785 209.37 587.744 209.392 587.7 209.392V209.392ZM543.584 209.583C543.531 209.583 543.483 209.55 543.475 209.503L543.334 208.754C543.325 208.702 543.366 208.654 543.426 208.646C543.489 208.637 543.544 208.673 543.553 208.724L543.693 209.473C543.703 209.525 543.662 209.573 543.601 209.581L543.584 209.583ZM585.638 211.094C585.593 211.094 585.55 211.071 585.534 211.032C585.514 210.983 585.544 210.929 585.6 210.911C585.87 210.827 586.126 210.715 586.362 210.577C586.412 210.547 586.48 210.558 586.515 210.601C586.549 210.645 586.537 210.704 586.486 210.733C586.235 210.88 585.963 211 585.676 211.089C585.664 211.093 585.651 211.094 585.638 211.094ZM582.729 211.476C582.673 211.476 582.626 211.441 582.618 211.393C582.611 211.341 582.654 211.293 582.715 211.287L583.593 211.195C583.659 211.188 583.709 211.226 583.716 211.278C583.724 211.33 583.681 211.377 583.62 211.384L582.742 211.475L582.729 211.476ZM579.8 211.782C579.746 211.782 579.698 211.747 579.691 211.698C579.683 211.647 579.727 211.6 579.787 211.593L580.666 211.502C580.732 211.494 580.782 211.532 580.789 211.584C580.797 211.636 580.753 211.683 580.693 211.689L579.815 211.782L579.8 211.782ZM544.099 212.07C544.051 212.07 544.008 212.044 543.993 212.003C543.925 211.815 543.872 211.62 543.835 211.422L543.802 211.25C543.793 211.199 543.833 211.15 543.894 211.141C543.955 211.131 544.011 211.169 544.021 211.22L544.053 211.392C544.089 211.58 544.14 211.768 544.204 211.947C544.223 211.998 544.19 212.051 544.132 212.066C544.12 212.069 544.11 212.07 544.099 212.07V212.07ZM576.873 212.088C576.818 212.088 576.77 212.053 576.764 212.005C576.756 211.953 576.8 211.906 576.86 211.9L577.738 211.807C577.804 211.801 577.854 211.838 577.861 211.89C577.868 211.942 577.825 211.989 577.765 211.996L576.886 212.087L576.873 212.088ZM573.946 212.395C573.89 212.395 573.842 212.359 573.836 212.311C573.828 212.259 573.871 212.212 573.932 212.205L574.81 212.113C574.876 212.106 574.926 212.145 574.934 212.196C574.941 212.248 574.898 212.295 574.837 212.302L573.959 212.394L573.946 212.395ZM571.018 212.7C570.962 212.7 570.915 212.665 570.908 212.617C570.901 212.565 570.944 212.517 571.004 212.512L571.883 212.42C571.949 212.412 571.999 212.45 572.005 212.502C572.013 212.555 571.97 212.602 571.909 212.608L571.031 212.699L571.018 212.7ZM568.09 213.007C568.035 213.007 567.988 212.971 567.98 212.923C567.972 212.871 568.016 212.824 568.076 212.817L568.955 212.726C569.021 212.719 569.071 212.757 569.078 212.809C569.086 212.86 569.042 212.907 568.982 212.914L568.104 213.006L568.09 213.007ZM565.162 213.312C565.106 213.312 565.059 213.278 565.053 213.229C565.045 213.177 565.089 213.13 565.149 213.124L566.027 213.032C566.093 213.024 566.143 213.062 566.15 213.114C566.157 213.167 566.114 213.214 566.054 213.22L565.175 213.311L565.162 213.312ZM562.235 213.619C562.179 213.619 562.132 213.583 562.124 213.535C562.117 213.484 562.16 213.436 562.221 213.43L563.099 213.338C563.166 213.33 563.215 213.368 563.223 213.421C563.23 213.472 563.187 213.52 563.126 213.526L562.248 213.618L562.235 213.619ZM559.307 213.924C559.252 213.924 559.204 213.89 559.197 213.841C559.19 213.789 559.233 213.742 559.293 213.736L560.172 213.644C560.238 213.637 560.288 213.675 560.295 213.726C560.303 213.779 560.259 213.826 560.199 213.832L559.321 213.924H559.307ZM545.751 214.116C545.728 214.116 545.704 214.11 545.683 214.097C545.446 213.938 545.224 213.759 545.024 213.567C544.982 213.528 544.987 213.468 545.032 213.434C545.079 213.399 545.148 213.402 545.189 213.442C545.38 213.625 545.592 213.795 545.819 213.947C545.867 213.979 545.877 214.038 545.839 214.08C545.816 214.104 545.784 214.116 545.751 214.116V214.116ZM556.379 214.231C556.324 214.231 556.277 214.195 556.27 214.148C556.262 214.096 556.306 214.048 556.366 214.042L557.244 213.95C557.31 213.943 557.36 213.981 557.367 214.033C557.375 214.085 557.331 214.132 557.271 214.139L556.393 214.23L556.379 214.231ZM553.452 214.537C553.396 214.537 553.349 214.502 553.342 214.453C553.334 214.401 553.378 214.355 553.438 214.348L554.316 214.256C554.383 214.25 554.432 214.287 554.44 214.338C554.447 214.391 554.404 214.438 554.344 214.444L553.465 214.537H553.452ZM550.524 214.843C550.469 214.843 550.421 214.807 550.414 214.76C550.407 214.708 550.45 214.66 550.511 214.654L551.389 214.562C551.455 214.555 551.505 214.593 551.513 214.645C551.52 214.697 551.477 214.744 551.416 214.75L550.538 214.842L550.524 214.843ZM548.47 214.991H548.464C548.164 214.976 547.863 214.938 547.57 214.878C547.511 214.865 547.474 214.814 547.489 214.763C547.503 214.712 547.563 214.681 547.623 214.693C547.902 214.752 548.189 214.788 548.476 214.802C548.537 214.804 548.584 214.849 548.58 214.901C548.578 214.952 548.529 214.991 548.47 214.991" fill="white"/>
<path d="M549.911 187.991L549.869 186.949C549.959 186.689 550.196 186.487 550.5 186.41C551.638 186.124 554.478 185.529 555.998 186.266L556.384 187.439L549.911 187.991" fill="url(#paint23_linear)"/>
<path d="M553.392 186.602C553.132 186.687 552.864 186.716 552.588 186.69C552.253 186.656 551.986 186.433 551.944 186.147L551.462 182.923L553.377 182.714L553.858 185.934C553.9 186.221 553.708 186.498 553.392 186.602" fill="url(#paint24_linear)"/>
<path d="M568.449 185.957L568.408 184.916C568.498 184.656 568.735 184.453 569.04 184.376C570.177 184.091 573.018 183.496 574.538 184.232L574.924 185.406L568.449 185.957" fill="url(#paint25_linear)"/>
<path d="M571.931 184.569C571.671 184.654 571.403 184.683 571.127 184.656C570.791 184.623 570.525 184.399 570.483 184.114L569.951 180.55L571.865 180.341L572.396 183.902C572.439 184.188 572.247 184.465 571.931 184.569" fill="url(#paint26_linear)"/>
<path d="M551.386 183.735L571.883 180.893C572.351 180.828 572.705 180.494 572.727 180.091C572.757 179.526 572.734 178.689 572.457 177.848C572.143 176.891 571.056 176.275 569.899 176.378C566.047 176.72 556.272 177.795 551.156 180.213C550.615 180.468 550.255 180.932 550.187 181.456C550.121 181.957 550.127 182.614 550.405 183.254C550.552 183.594 550.966 183.793 551.386 183.735" fill="url(#paint27_linear)"/>
<path d="M550.881 183.032C550.748 183.032 550.626 182.953 550.594 182.837C550.586 182.808 550.404 182.122 550.515 181.431C550.606 180.869 551.042 180.377 551.652 180.148C552.765 179.73 554.902 178.994 556.709 178.751C556.87 178.728 557.02 178.824 557.046 178.962C557.071 179.1 556.961 179.229 556.799 179.251C554.994 179.493 552.764 180.282 551.889 180.611C551.459 180.772 551.164 181.105 551.099 181.499C551.003 182.1 551.167 182.716 551.169 182.723C551.206 182.859 551.107 182.994 550.948 183.026C550.926 183.03 550.903 183.032 550.881 183.032" fill="#BDD0FB"/>
<path d="M540.3 188.637C546.939 187.835 575.669 184.421 584.154 184.368C584.885 184.363 585.539 184.751 585.785 185.337C586.565 187.197 588.221 191.533 588.762 195.952C588.835 196.552 588.398 197.115 587.724 197.303L569.11 202.488L562.335 203.231L541.493 201.998C540.758 201.954 540.153 201.492 540.022 200.874C539.56 198.672 538.577 193.493 538.776 190.068C538.819 189.34 539.455 188.74 540.3 188.637" fill="url(#paint28_linear)"/>
<path d="M580.871 186.007C580.813 186.007 580.764 185.968 580.76 185.918C580.757 185.866 580.803 185.821 580.863 185.817C581.171 185.799 581.465 185.784 581.748 185.77C581.821 185.765 581.861 185.808 581.864 185.859C581.868 185.912 581.822 185.956 581.76 185.96C581.478 185.973 581.185 185.989 580.878 186.006L580.871 186.007ZM577.929 186.204C577.873 186.204 577.825 186.167 577.82 186.117C577.814 186.065 577.859 186.019 577.921 186.015C578.222 185.992 578.516 185.97 578.803 185.95C578.871 185.943 578.917 185.985 578.922 186.037C578.926 186.089 578.881 186.135 578.821 186.139C578.535 186.159 578.241 186.18 577.94 186.203L577.929 186.204ZM584.38 186.286C584.335 186.286 584.291 186.262 584.276 186.222C584.226 186.1 584.179 185.987 584.136 185.884C584.034 185.884 583.928 185.885 583.819 185.887C583.767 185.889 583.707 185.846 583.705 185.794C583.705 185.741 583.754 185.698 583.815 185.698C583.936 185.696 584.053 185.694 584.166 185.694C584.24 185.694 584.305 185.73 584.329 185.784C584.377 185.898 584.429 186.023 584.485 186.16C584.505 186.209 584.474 186.264 584.417 186.281C584.405 186.285 584.392 186.286 584.38 186.286V186.286ZM574.993 186.438C574.937 186.438 574.889 186.402 574.883 186.353C574.877 186.301 574.922 186.255 574.982 186.249C575.281 186.224 575.575 186.2 575.864 186.175C575.922 186.172 575.978 186.209 575.984 186.261C575.991 186.314 575.945 186.36 575.885 186.365C575.597 186.388 575.303 186.412 575.005 186.438H574.993ZM572.059 186.698C572.003 186.698 571.955 186.661 571.949 186.613C571.943 186.56 571.987 186.514 572.047 186.509L572.927 186.429C572.992 186.425 573.043 186.461 573.049 186.513C573.055 186.565 573.011 186.612 572.95 186.617L572.071 186.697L572.059 186.698ZM569.128 186.974C569.072 186.974 569.024 186.939 569.017 186.89C569.011 186.839 569.054 186.792 569.115 186.785L569.995 186.701C570.057 186.695 570.11 186.733 570.116 186.784C570.123 186.836 570.079 186.883 570.019 186.889L569.14 186.974L569.128 186.974ZM566.197 187.265C566.142 187.265 566.094 187.229 566.087 187.181C566.08 187.129 566.124 187.082 566.184 187.075L567.063 186.987C567.126 186.98 567.179 187.018 567.186 187.071C567.193 187.122 567.149 187.169 567.089 187.176L566.21 187.264L566.197 187.265ZM563.268 187.565C563.214 187.565 563.165 187.53 563.159 187.481C563.151 187.43 563.195 187.383 563.255 187.376L564.133 187.285C564.195 187.278 564.249 187.316 564.257 187.367C564.264 187.42 564.221 187.467 564.16 187.473L563.282 187.564L563.268 187.565ZM560.342 187.874C560.286 187.874 560.239 187.84 560.232 187.792C560.224 187.739 560.267 187.692 560.328 187.686L561.206 187.592C561.267 187.585 561.322 187.623 561.33 187.675C561.337 187.726 561.294 187.773 561.233 187.78L560.355 187.874L560.342 187.874ZM557.416 188.192C557.36 188.192 557.313 188.157 557.305 188.109C557.298 188.057 557.341 188.009 557.401 188.003L558.28 187.907C558.343 187.899 558.395 187.937 558.403 187.989C558.411 188.041 558.367 188.089 558.307 188.095L557.43 188.191L557.416 188.192ZM554.489 188.516C554.435 188.516 554.387 188.481 554.38 188.433C554.372 188.381 554.415 188.334 554.475 188.327L555.352 188.229C555.415 188.221 555.469 188.259 555.477 188.311C555.484 188.363 555.442 188.41 555.382 188.417L554.503 188.515L554.489 188.516ZM585.285 188.694C585.238 188.694 585.193 188.668 585.179 188.626C585.091 188.374 585.005 188.132 584.922 187.901C584.904 187.852 584.937 187.798 584.994 187.783C585.053 187.768 585.115 187.795 585.133 187.845C585.217 188.076 585.304 188.319 585.391 188.572C585.408 188.622 585.375 188.676 585.317 188.69C585.306 188.693 585.295 188.694 585.285 188.694ZM551.564 188.846C551.509 188.846 551.462 188.811 551.454 188.763C551.447 188.711 551.489 188.664 551.55 188.657L552.427 188.558C552.486 188.551 552.543 188.588 552.552 188.639C552.559 188.691 552.517 188.739 552.456 188.745L551.579 188.845L551.564 188.846ZM548.64 189.181C548.586 189.181 548.537 189.146 548.53 189.099C548.522 189.047 548.565 188.999 548.625 188.993L549.503 188.891C549.567 188.883 549.619 188.921 549.627 188.972C549.635 189.024 549.592 189.072 549.532 189.079L548.654 189.18L548.64 189.181ZM545.717 189.521C545.662 189.521 545.615 189.488 545.606 189.44C545.599 189.388 545.641 189.34 545.701 189.333L546.578 189.23C546.646 189.223 546.695 189.259 546.703 189.311C546.711 189.363 546.669 189.411 546.608 189.418L545.732 189.521L545.717 189.521ZM542.793 189.868C542.739 189.868 542.691 189.833 542.684 189.785C542.675 189.733 542.718 189.686 542.778 189.678L543.655 189.574C543.715 189.568 543.772 189.603 543.779 189.655C543.788 189.707 543.746 189.755 543.685 189.762L542.808 189.866L542.793 189.868ZM540.413 190.666H540.41C540.349 190.665 540.301 190.621 540.303 190.569C540.307 190.421 540.313 190.276 540.321 190.134C540.326 190.039 540.407 189.963 540.516 189.95L540.732 189.923C540.795 189.917 540.848 189.952 540.857 190.004C540.865 190.056 540.823 190.104 540.762 190.112L540.547 190.138C540.534 190.284 540.528 190.427 540.524 190.573C540.523 190.625 540.474 190.666 540.413 190.666V190.666ZM586.054 191.135C586.004 191.135 585.959 191.106 585.947 191.063C585.876 190.814 585.804 190.569 585.732 190.328C585.716 190.278 585.752 190.227 585.81 190.213C585.871 190.201 585.93 190.231 585.945 190.281C586.019 190.522 586.091 190.768 586.162 191.018C586.177 191.069 586.14 191.121 586.081 191.133C586.072 191.135 586.063 191.135 586.054 191.135V191.135ZM540.497 193.193C540.44 193.193 540.391 193.155 540.387 193.105C540.366 192.85 540.349 192.596 540.335 192.346C540.332 192.293 540.379 192.249 540.441 192.246H540.445C540.505 192.246 540.553 192.286 540.556 192.337C540.57 192.585 540.587 192.838 540.608 193.092C540.611 193.145 540.566 193.19 540.505 193.193H540.497ZM586.673 193.608C586.621 193.608 586.574 193.576 586.565 193.53C586.511 193.281 586.455 193.032 586.397 192.787C586.386 192.736 586.424 192.686 586.484 192.675C586.546 192.664 586.602 192.698 586.614 192.749C586.672 192.996 586.729 193.245 586.783 193.496C586.793 193.547 586.754 193.597 586.693 193.607L586.673 193.608ZM540.776 195.711C540.721 195.711 540.673 195.676 540.666 195.628C540.632 195.378 540.599 195.126 540.568 194.873C540.561 194.82 540.606 194.774 540.666 194.768C540.728 194.762 540.781 194.801 540.788 194.853C540.819 195.105 540.852 195.356 540.886 195.605C540.893 195.658 540.85 195.705 540.789 195.711H540.776ZM587.065 196.087C587.018 196.087 586.974 196.062 586.959 196.022C586.947 195.989 586.956 195.955 586.981 195.93C586.953 195.711 586.921 195.492 586.887 195.274C586.88 195.222 586.922 195.174 586.983 195.167C587.041 195.158 587.099 195.197 587.107 195.249C587.144 195.49 587.178 195.731 587.209 195.972L587.22 196.049L587.099 196.083C587.087 196.086 587.076 196.087 587.065 196.087V196.087ZM584.259 196.869C584.213 196.869 584.17 196.843 584.155 196.804C584.136 196.754 584.168 196.7 584.225 196.684L585.067 196.45C585.125 196.434 585.188 196.461 585.206 196.51C585.225 196.56 585.193 196.614 585.136 196.63L584.294 196.864C584.283 196.868 584.271 196.869 584.259 196.869ZM581.455 197.65C581.408 197.65 581.365 197.625 581.35 197.585C581.33 197.535 581.362 197.481 581.421 197.465L582.262 197.231C582.32 197.215 582.383 197.242 582.401 197.292C582.421 197.341 582.389 197.395 582.33 197.411L581.489 197.645C581.477 197.649 581.466 197.65 581.455 197.65V197.65ZM541.172 198.219C541.117 198.219 541.071 198.185 541.062 198.138C541.019 197.895 540.976 197.644 540.934 197.386C540.925 197.334 540.967 197.286 541.027 197.279C541.085 197.271 541.144 197.307 541.153 197.359C541.195 197.616 541.238 197.867 541.281 198.11C541.29 198.161 541.248 198.21 541.188 198.217L541.172 198.219ZM578.65 198.432C578.604 198.432 578.56 198.406 578.545 198.366C578.525 198.317 578.558 198.263 578.616 198.247L579.457 198.013C579.515 197.996 579.577 198.024 579.596 198.073C579.615 198.123 579.583 198.177 579.525 198.193L578.684 198.427C578.673 198.431 578.661 198.432 578.65 198.432V198.432ZM575.845 199.213C575.798 199.213 575.755 199.188 575.74 199.148C575.721 199.098 575.753 199.044 575.81 199.028L576.652 198.794C576.71 198.777 576.773 198.805 576.792 198.854C576.81 198.904 576.778 198.958 576.721 198.974L575.879 199.208C575.868 199.212 575.857 199.213 575.845 199.213ZM573.04 199.995C572.993 199.995 572.95 199.969 572.935 199.929C572.915 199.88 572.948 199.826 573.006 199.81L573.847 199.576C573.905 199.559 573.968 199.586 573.987 199.636C574.006 199.686 573.974 199.74 573.916 199.756L573.075 199.99C573.063 199.993 573.051 199.995 573.04 199.995V199.995ZM541.69 200.68H541.682L541.552 200.672L541.537 200.599C541.493 200.391 541.444 200.152 541.391 199.889C541.38 199.837 541.421 199.787 541.481 199.779C541.544 199.77 541.599 199.804 541.609 199.856C541.657 200.093 541.701 200.309 541.74 200.501C541.778 200.518 541.803 200.553 541.8 200.592C541.796 200.642 541.747 200.68 541.69 200.68ZM570.235 200.776C570.188 200.776 570.145 200.75 570.129 200.711C570.111 200.661 570.143 200.607 570.2 200.591L571.042 200.357C571.1 200.341 571.162 200.368 571.181 200.417C571.2 200.467 571.168 200.521 571.111 200.537L570.269 200.771C570.258 200.775 570.246 200.776 570.235 200.776ZM544.632 200.854H544.624L543.741 200.801C543.681 200.798 543.635 200.753 543.639 200.7C543.643 200.649 543.697 200.609 543.756 200.612L544.639 200.665C544.701 200.669 544.746 200.714 544.742 200.766C544.739 200.816 544.69 200.854 544.632 200.854ZM547.574 201.029L547.567 201.028L546.684 200.976C546.623 200.972 546.577 200.927 546.582 200.875C546.586 200.822 546.64 200.784 546.7 200.787L547.582 200.839C547.643 200.843 547.689 200.888 547.685 200.94C547.681 200.99 547.632 201.029 547.574 201.029V201.029ZM550.517 201.202H550.509L549.627 201.15C549.566 201.147 549.52 201.101 549.524 201.049C549.528 200.997 549.584 200.958 549.642 200.961L550.524 201.013C550.586 201.017 550.632 201.063 550.627 201.114C550.623 201.164 550.575 201.202 550.517 201.202ZM567.373 201.342C567.318 201.342 567.271 201.307 567.263 201.258C567.256 201.207 567.298 201.159 567.359 201.152L568.237 201.056C568.306 201.05 568.353 201.087 568.361 201.139C568.368 201.19 568.326 201.238 568.265 201.245L567.387 201.341L567.373 201.342ZM553.459 201.377L553.452 201.376L552.569 201.325C552.508 201.321 552.462 201.275 552.467 201.224C552.47 201.171 552.527 201.133 552.585 201.135L553.467 201.187C553.528 201.191 553.574 201.236 553.569 201.289C553.566 201.338 553.518 201.377 553.459 201.377ZM556.401 201.551H556.394L555.511 201.498C555.451 201.495 555.404 201.45 555.408 201.397C555.413 201.346 555.47 201.308 555.526 201.309L556.409 201.362C556.47 201.365 556.516 201.41 556.512 201.463C556.508 201.512 556.459 201.551 556.401 201.551ZM564.447 201.663C564.393 201.663 564.346 201.627 564.338 201.579C564.331 201.528 564.373 201.48 564.433 201.473L565.312 201.377C565.381 201.371 565.428 201.408 565.435 201.459C565.443 201.511 565.4 201.558 565.34 201.566L564.462 201.662L564.447 201.663ZM559.344 201.725H559.336L558.453 201.673C558.393 201.669 558.347 201.624 558.35 201.571C558.355 201.519 558.406 201.482 558.468 201.484L559.351 201.536C559.413 201.54 559.458 201.585 559.454 201.637C559.45 201.687 559.401 201.725 559.344 201.725ZM562.3 201.899L561.396 201.847C561.335 201.843 561.289 201.798 561.293 201.746C561.298 201.693 561.349 201.654 561.411 201.658L562.294 201.71L562.386 201.698C562.452 201.691 562.502 201.728 562.51 201.78C562.517 201.832 562.475 201.879 562.415 201.886L562.3 201.899" fill="white"/>
<path d="M568.837 204.996L562.9 205.647C562.123 205.732 561.394 205.309 561.203 204.659L559.786 199.838C559.561 199.071 560.172 198.306 561.093 198.205L568.224 197.423C569.126 197.324 569.932 197.907 569.967 198.682L570.189 203.634C570.219 204.318 569.632 204.909 568.837 204.996" fill="url(#paint29_linear)"/>
<path d="M567.972 204.176L563.454 204.671C562.862 204.736 562.307 204.414 562.161 203.919L561.083 200.25C560.911 199.666 561.377 199.084 562.077 199.007L567.506 198.412C568.192 198.337 568.806 198.78 568.832 199.369L569.001 203.139C569.024 203.659 568.577 204.109 567.972 204.176" fill="url(#paint30_linear)"/>
<path d="M564.442 165.159C565.842 170.118 565.878 174.97 565.665 176.736C565.585 177.402 564.96 177.922 564.181 177.969C563.296 178.022 562.092 178.092 561.015 178.144C559.832 178.204 558.518 177.562 557.64 177.026C557.192 176.753 556.612 177.179 556.862 177.599C557.294 178.322 558.043 178.892 558.787 179.377C559.234 179.668 560.722 180.186 560.618 180.76C560.585 180.941 560.458 181.098 560.321 181.239C559.495 182.089 558.244 182.543 557.01 182.868C556.855 182.909 556.692 182.952 556.582 183.054C556.551 183.739 559.007 184.499 559.641 184.679C560.59 184.949 561.596 185.064 562.594 184.973C565.064 184.751 567.345 183.289 568.675 181.527C572.233 176.816 574.072 171.127 574.743 166.776C571.435 163.941 566.44 164.66 564.442 165.159" fill="url(#paint31_linear)"/>
<path d="M574.744 167.224C577.382 150.138 562.021 137.001 562.021 137.001L552.882 146.134C559.82 153.547 563.119 160.34 564.626 165.676C566.624 165.178 571.435 164.389 574.744 167.224" fill="url(#paint32_linear)"/>
<path d="M564.408 165.593C564.152 165.593 563.92 165.444 563.858 165.221C562 158.644 558.085 152.133 552.222 145.869C552.027 145.66 552.065 145.354 552.31 145.187C552.553 145.019 552.91 145.052 553.105 145.262C559.073 151.638 563.061 158.277 564.958 164.993C565.031 165.254 564.844 165.516 564.541 165.579C564.496 165.588 564.451 165.593 564.408 165.593Z" fill="url(#paint33_linear)"/>
<path d="M440.627 266.881C440.628 266.798 440.621 266.713 440.596 266.628C439.127 261.634 431.831 258.522 431.831 258.522L428.94 258.716C427.278 263.119 427.491 265.819 427.758 267.022C427.766 267.055 427.778 267.088 427.788 267.12C430.173 267.303 435.081 267.422 440.627 266.881" fill="url(#paint34_linear)"/>
<path d="M427.788 267.12C427.917 267.522 428.263 267.835 428.705 267.914C432.098 268.526 437.49 268.034 439.753 267.78C440.253 267.724 440.618 267.328 440.627 266.882C435.081 267.422 430.173 267.303 427.788 267.12" fill="url(#paint35_linear)"/>
<path d="M427.778 255.026L429.002 260.078C429.092 260.448 429.424 260.726 429.826 260.758C430.318 260.798 431.018 260.82 431.723 260.732C432.354 260.652 432.794 260.102 432.682 259.512L431.831 255.026H427.778" fill="url(#paint36_linear)"/>
<path d="M453.147 267.056C449.954 266.979 448.303 266.658 447.449 266.358C447.447 266.63 447.448 266.908 447.459 267.195C447.47 267.501 447.735 267.746 448.061 267.744L465.591 267.647C466.151 267.643 466.478 267.088 466.236 266.648C463.937 266.811 458.083 267.175 453.147 267.056" fill="url(#paint37_linear)"/>
<path d="M466.236 266.648C466.214 266.61 466.196 266.57 466.166 266.535C464.618 264.681 460.674 260.988 452.883 259.387L449.144 259.286C449.144 259.286 447.48 261.765 447.449 266.358C448.303 266.658 449.954 266.979 453.147 267.056C458.083 267.175 463.937 266.81 466.236 266.648Z" fill="url(#paint38_linear)"/>
<path d="M448.285 254.579C448.345 254.815 449.122 258.41 449.423 259.804C449.495 260.135 449.795 260.378 450.154 260.395C450.795 260.426 451.827 260.43 452.714 260.223C453.194 260.111 453.515 259.693 453.48 259.228L453.062 253.542L448.285 254.579" fill="url(#paint39_linear)"/>
<path d="M445.453 188.201C445.453 188.201 450.594 218.487 454.306 254.527C454.375 255.198 453.75 255.783 452.981 255.921C451.847 256.126 450.181 256.369 448.802 256.336C448.065 256.318 447.45 255.85 447.326 255.227C446.062 248.873 437.041 214.77 434.674 207.264C434.674 207.264 431.954 239.146 432.824 255.688C432.845 256.099 432.494 256.455 432.017 256.503C431.293 256.575 430.135 256.629 428.661 256.495C428.102 256.444 427.651 256.082 427.571 255.605C426.67 250.227 421.488 218.216 421.708 195.156C421.72 193.856 423.488 183.172 423.488 183.172L445.453 188.201Z" fill="url(#paint40_linear)"/>
<path d="M422.715 189.947C422.186 189.786 421.818 189.375 421.76 188.896C421.076 183.21 417.766 147.953 438.667 133.45C438.667 133.45 439.866 130.762 449.719 137.37C459.571 143.978 454.296 150.903 451.938 160.457C449.083 172.017 444.075 181.466 446.291 188.58C446.443 189.071 446.142 189.586 445.587 189.762C437.933 192.18 430.309 192.26 422.715 189.947" fill="url(#paint41_linear)"/>
<path d="M446.821 122.886C446.814 123.388 438.468 133.549 438.468 133.549C438.468 133.549 439.966 136.078 447.118 138.131L453.292 127.252L446.821 122.886Z" fill="url(#paint42_linear)"/>
<path d="M453.392 117.063C453.392 117.063 456.362 122.911 456.561 125.98C456.761 129.049 457.533 131.041 453.392 131.659C449.252 132.277 445.764 130.509 443.875 127.452C443.875 127.452 440.914 122.741 441.579 120.812C442.243 118.882 453.392 117.063 453.392 117.063Z" fill="url(#paint43_linear)"/>
<path d="M445.29 125.254L445.526 125.165C445.826 125.052 445.954 124.745 445.803 124.496C445.219 123.529 444.081 121.313 445.551 120.797C447.446 120.13 454.952 118.818 456.572 116.535C458.128 114.342 456.749 111.509 454.676 110.704C454.538 110.649 454.375 110.692 454.303 110.808L454.13 111.088C454.012 111.28 453.681 111.251 453.611 111.042C453.543 110.843 453.233 110.804 453.105 110.98C452.607 111.663 451.263 112.77 447.669 113.339C442.562 114.147 439.184 115.918 439.1 118.944C439.095 119.136 438.856 119.243 438.665 119.143C438.288 118.946 437.684 118.854 436.878 119.435C435.475 120.446 436.05 123.068 439.124 125.225C439.27 125.328 439.269 125.524 439.111 125.612C438.553 125.923 437.722 126.663 439.876 127.65C442.103 128.67 443.766 128.587 444.407 128.495C444.565 128.474 444.668 128.341 444.633 128.206L443.95 125.547C443.912 125.397 444.046 125.254 444.225 125.254H445.29" fill="url(#paint44_linear)"/>
<path d="M445.418 125.815C445.418 125.815 444.285 122.08 442.332 123.127C440.378 124.174 443.346 127.312 444.916 127.452L445.418 125.815Z" fill="url(#paint45_linear)"/>
<path d="M452.889 140.436L453.464 153.683C455.099 154.165 456.655 154.541 458.137 154.82C459.063 152.263 461.104 149.124 462.775 146.789C456.635 144.929 452.889 140.436 452.889 140.436" fill="url(#paint46_linear)"/>
<path d="M483.545 140.211C475.121 148.005 468.304 148.464 462.775 146.789C461.105 149.123 459.063 152.263 458.137 154.82C480.63 159.071 485.926 141.347 485.926 141.347L483.545 140.211Z" fill="url(#paint47_linear)"/>
<path d="M485.252 139.383C485.252 139.383 486.223 138.49 488.018 138.77C489.814 139.051 491.412 139.586 492.531 138.77C493.65 137.955 494.043 139.049 494.043 139.049L490.692 141.232L485.252 139.383" fill="url(#paint48_linear)"/>
<path d="M483.248 140.91C483.248 140.91 483.913 138.527 485.916 138.854C487.92 139.18 492.468 141.3 493.64 140.91C494.812 140.519 496.311 139.585 497.08 139.914L495.726 141.358C495.726 141.358 499.208 139.636 499.807 140.694L494.013 143.489C494.013 143.489 485.537 142.762 483.248 140.91" fill="url(#paint49_linear)"/>
<path d="M443.539 157.774C443.539 157.774 459.374 169.141 476.473 164.181C477.533 163.873 478.693 163.94 479.683 164.388L484.599 166.614C486.662 167.548 489.218 166.935 490.415 165.218C491.098 164.239 491.681 163.12 491.797 162.049L482.177 158.711L482.887 157.7C482.887 157.7 478.191 157.359 476.961 160.244C476.961 160.244 468.015 163.433 452.93 149.211C452.93 149.211 446.085 154.2 443.539 157.774Z" fill="url(#paint50_linear)"/>
<path d="M442.686 157.656C442.634 157.656 442.581 157.644 442.535 157.616C435.867 153.755 432.731 147.523 432.7 147.46C432.641 147.341 432.706 147.206 432.843 147.156C432.982 147.105 433.14 147.16 433.199 147.278C433.229 147.34 436.308 153.449 442.838 157.231C442.962 157.303 442.995 157.447 442.911 157.554C442.859 157.62 442.773 157.656 442.686 157.656" fill="url(#paint51_linear)"/>
<path d="M452.618 149.018C452.529 149.018 452.441 148.98 452.39 148.911C452.37 148.884 450.332 146.166 446.453 140.212C445.26 138.381 443.692 137.222 441.793 136.766C438.647 136.013 435.616 137.458 435.586 137.472C435.456 137.534 435.291 137.497 435.216 137.385C435.143 137.273 435.188 137.132 435.318 137.069C435.449 137.005 438.566 135.51 441.933 136.318C443.979 136.807 445.66 138.041 446.926 139.985C450.796 145.925 452.825 148.633 452.845 148.659C452.926 148.767 452.89 148.911 452.764 148.98C452.719 149.006 452.668 149.018 452.618 149.018" fill="url(#paint52_linear)"/>
<defs>
<linearGradient id="paint0_linear" x1="652.637" y1="290.361" x2="494.834" y2="91.6443" gradientUnits="userSpaceOnUse">
<stop stop-color="#DAE3FE"/>
<stop offset="1" stop-color="#E9EFFD"/>
</linearGradient>
<linearGradient id="paint1_linear" x1="507.468" y1="71.0868" x2="432.194" y2="71.0868" gradientUnits="userSpaceOnUse">
<stop stop-color="#2B3582"/>
<stop offset="1" stop-color="#150E42"/>
</linearGradient>
<linearGradient id="paint2_linear" x1="409.971" y1="99.2025" x2="548.286" y2="300.6" gradientUnits="userSpaceOnUse">
<stop stop-color="#4F52FF"/>
<stop offset="1" stop-color="#4042E2"/>
</linearGradient>
<linearGradient id="paint3_linear" x1="640.169" y1="63.3077" x2="519.567" y2="144.002" gradientUnits="userSpaceOnUse">
<stop stop-color="#4F52FF"/>
<stop offset="1" stop-color="#4042E2"/>
</linearGradient>
<linearGradient id="paint4_linear" x1="529.998" y1="70.7091" x2="454.723" y2="70.7091" gradientUnits="userSpaceOnUse">
<stop stop-color="#2B3582"/>
<stop offset="1" stop-color="#150E42"/>
</linearGradient>
<linearGradient id="paint5_linear" x1="542.916" y1="252.974" x2="534.705" y2="-30.5716" gradientUnits="userSpaceOnUse">
<stop stop-color="#09005D"/>
<stop offset="1" stop-color="#1A0F91"/>
</linearGradient>
<linearGradient id="paint6_linear" x1="560.386" y1="55.305" x2="514.918" y2="125.086" gradientUnits="userSpaceOnUse">
<stop stop-color="#09005D"/>
<stop offset="1" stop-color="#1A0F91"/>
</linearGradient>
<linearGradient id="paint7_linear" x1="566.462" y1="59.3161" x2="520.994" y2="129.097" gradientUnits="userSpaceOnUse">
<stop stop-color="#09005D"/>
<stop offset="1" stop-color="#1A0F91"/>
</linearGradient>
<linearGradient id="paint8_linear" x1="516.465" y1="146.415" x2="488.274" y2="170.638" gradientUnits="userSpaceOnUse">
<stop stop-color="#FEBBBA"/>
<stop offset="1" stop-color="#FF928E"/>
</linearGradient>
<linearGradient id="paint9_linear" x1="548.826" y1="94.1691" x2="517.174" y2="177.83" gradientUnits="userSpaceOnUse">
<stop stop-color="#FF928E"/>
<stop offset="1" stop-color="#FE7062"/>
</linearGradient>
<linearGradient id="paint10_linear" x1="576.984" y1="104.782" x2="545.333" y2="188.443" gradientUnits="userSpaceOnUse">
<stop stop-color="#FF928E"/>
<stop offset="1" stop-color="#FE7062"/>
</linearGradient>
<linearGradient id="paint11_linear" x1="542.324" y1="134.67" x2="538.963" y2="122.905" gradientUnits="userSpaceOnUse">
<stop stop-color="#FEBBBA"/>
<stop offset="1" stop-color="#FF928E"/>
</linearGradient>
<linearGradient id="paint12_linear" x1="531.93" y1="120.608" x2="547.069" y2="128.287" gradientUnits="userSpaceOnUse">
<stop stop-color="#FEBBBA"/>
<stop offset="1" stop-color="#FF928E"/>
</linearGradient>
<linearGradient id="paint13_linear" x1="543.504" y1="128.841" x2="532.503" y2="115.207" gradientUnits="userSpaceOnUse">
<stop stop-color="#09005D"/>
<stop offset="1" stop-color="#1A0F91"/>
</linearGradient>
<linearGradient id="paint14_linear" x1="530.936" y1="122.578" x2="546.075" y2="130.257" gradientUnits="userSpaceOnUse">
<stop stop-color="#FEBBBA"/>
<stop offset="1" stop-color="#FF928E"/>
</linearGradient>
<linearGradient id="paint15_linear" x1="562.326" y1="267.384" x2="542.432" y2="267.384" gradientUnits="userSpaceOnUse">
<stop stop-color="#09005D"/>
<stop offset="1" stop-color="#1A0F91"/>
</linearGradient>
<linearGradient id="paint16_linear" x1="610.351" y1="251.436" x2="540.218" y2="274.757" gradientUnits="userSpaceOnUse">
<stop stop-color="#4F52FF"/>
<stop offset="1" stop-color="#4042E2"/>
</linearGradient>
<linearGradient id="paint17_linear" x1="560.49" y1="259.376" x2="554.886" y2="259.376" gradientUnits="userSpaceOnUse">
<stop stop-color="#FEBBBA"/>
<stop offset="1" stop-color="#FF928E"/>
</linearGradient>
<linearGradient id="paint18_linear" x1="601.988" y1="267.016" x2="594.364" y2="267.016" gradientUnits="userSpaceOnUse">
<stop stop-color="#09005D"/>
<stop offset="1" stop-color="#1A0F91"/>
</linearGradient>
<linearGradient id="paint19_linear" x1="570.195" y1="247.85" x2="610.728" y2="278.643" gradientUnits="userSpaceOnUse">
<stop stop-color="#4F52FF"/>
<stop offset="1" stop-color="#4042E2"/>
</linearGradient>
<linearGradient id="paint20_linear" x1="596.116" y1="255.372" x2="589.418" y2="255.372" gradientUnits="userSpaceOnUse">
<stop stop-color="#FEBBBA"/>
<stop offset="1" stop-color="#FF928E"/>
</linearGradient>
<linearGradient id="paint21_linear" x1="566.073" y1="173.807" x2="571.292" y2="256.622" gradientUnits="userSpaceOnUse">
<stop stop-color="#09005D"/>
<stop offset="1" stop-color="#1A0F91"/>
</linearGradient>
<linearGradient id="paint22_linear" x1="564.803" y1="220.839" x2="564.803" y2="203.313" gradientUnits="userSpaceOnUse">
<stop stop-color="#4F52FF"/>
<stop offset="1" stop-color="#4042E2"/>
</linearGradient>
<linearGradient id="paint23_linear" x1="827.229" y1="-295.581" x2="821.36" y2="-281.512" gradientUnits="userSpaceOnUse">
<stop stop-color="#4F52FF"/>
<stop offset="1" stop-color="#4042E2"/>
</linearGradient>
<linearGradient id="paint24_linear" x1="825.647" y1="-296.25" x2="819.778" y2="-282.181" gradientUnits="userSpaceOnUse">
<stop stop-color="#4F52FF"/>
<stop offset="1" stop-color="#4042E2"/>
</linearGradient>
<linearGradient id="paint25_linear" x1="841.279" y1="-289.698" x2="835.411" y2="-275.629" gradientUnits="userSpaceOnUse">
<stop stop-color="#4F52FF"/>
<stop offset="1" stop-color="#4042E2"/>
</linearGradient>
<linearGradient id="paint26_linear" x1="839.586" y1="-290.417" x2="833.717" y2="-276.348" gradientUnits="userSpaceOnUse">
<stop stop-color="#4F52FF"/>
<stop offset="1" stop-color="#4042E2"/>
</linearGradient>
<linearGradient id="paint27_linear" x1="831.002" y1="-293.99" x2="825.133" y2="-279.921" gradientUnits="userSpaceOnUse">
<stop stop-color="#4F52FF"/>
<stop offset="1" stop-color="#4042E2"/>
</linearGradient>
<linearGradient id="paint28_linear" x1="563.481" y1="180.508" x2="564.453" y2="235.494" gradientUnits="userSpaceOnUse">
<stop stop-color="#4F52FF"/>
<stop offset="1" stop-color="#4042E2"/>
</linearGradient>
<linearGradient id="paint29_linear" x1="613.188" y1="149.951" x2="585.743" y2="189.976" gradientUnits="userSpaceOnUse">
<stop stop-color="#09005D"/>
<stop offset="1" stop-color="#1A0F91"/>
</linearGradient>
<linearGradient id="paint30_linear" x1="599.658" y1="154.505" x2="575.86" y2="198.539" gradientUnits="userSpaceOnUse">
<stop stop-color="#4F52FF"/>
<stop offset="1" stop-color="#4042E2"/>
</linearGradient>
<linearGradient id="paint31_linear" x1="586.319" y1="114.523" x2="567.845" y2="186.366" gradientUnits="userSpaceOnUse">
<stop stop-color="#FEBBBA"/>
<stop offset="1" stop-color="#FF928E"/>
</linearGradient>
<linearGradient id="paint32_linear" x1="588.341" y1="109.044" x2="556.689" y2="192.705" gradientUnits="userSpaceOnUse">
<stop stop-color="#FF928E"/>
<stop offset="1" stop-color="#FE7062"/>
</linearGradient>
<linearGradient id="paint33_linear" x1="629.788" y1="82.5985" x2="569.729" y2="166" gradientUnits="userSpaceOnUse">
<stop stop-color="#FF928E"/>
<stop offset="1" stop-color="#FE7062"/>
</linearGradient>
<linearGradient id="paint34_linear" x1="427.576" y1="262.898" x2="440.627" y2="262.898" gradientUnits="userSpaceOnUse">
<stop stop-color="#09005D"/>
<stop offset="1" stop-color="#1A0F91"/>
</linearGradient>
<linearGradient id="paint35_linear" x1="460.261" y1="249.681" x2="418.529" y2="287.91" gradientUnits="userSpaceOnUse">
<stop stop-color="#4F52FF"/>
<stop offset="1" stop-color="#4042E2"/>
</linearGradient>
<linearGradient id="paint36_linear" x1="431.214" y1="250.17" x2="429.376" y2="268.883" gradientUnits="userSpaceOnUse">
<stop stop-color="#FEBBBA"/>
<stop offset="1" stop-color="#FF928E"/>
</linearGradient>
<linearGradient id="paint37_linear" x1="468.689" y1="258.882" x2="426.957" y2="297.111" gradientUnits="userSpaceOnUse">
<stop stop-color="#4F52FF"/>
<stop offset="1" stop-color="#4042E2"/>
</linearGradient>
<linearGradient id="paint38_linear" x1="447.449" y1="263.182" x2="466.236" y2="263.182" gradientUnits="userSpaceOnUse">
<stop stop-color="#09005D"/>
<stop offset="1" stop-color="#1A0F91"/>
</linearGradient>
<linearGradient id="paint39_linear" x1="451.177" y1="252.131" x2="450.354" y2="270.89" gradientUnits="userSpaceOnUse">
<stop stop-color="#FEBBBA"/>
<stop offset="1" stop-color="#FF928E"/>
</linearGradient>
<linearGradient id="paint40_linear" x1="419.231" y1="277.18" x2="442.645" y2="182.813" gradientUnits="userSpaceOnUse">
<stop stop-color="#09005D"/>
<stop offset="1" stop-color="#1A0F91"/>
</linearGradient>
<linearGradient id="paint41_linear" x1="574.507" y1="-21.0397" x2="528.683" y2="64.4356" gradientUnits="userSpaceOnUse">
<stop stop-color="#FF928E"/>
<stop offset="1" stop-color="#FE7062"/>
</linearGradient>
<linearGradient id="paint42_linear" x1="441.152" y1="141.463" x2="445.544" y2="127.472" gradientUnits="userSpaceOnUse">
<stop stop-color="#FEBBBA"/>
<stop offset="1" stop-color="#FF928E"/>
</linearGradient>
<linearGradient id="paint43_linear" x1="453.028" y1="131.664" x2="446.964" y2="114.264" gradientUnits="userSpaceOnUse">
<stop stop-color="#FEBBBA"/>
<stop offset="1" stop-color="#FF928E"/>
</linearGradient>
<linearGradient id="paint44_linear" x1="479.32" y1="28.7806" x2="461.925" y2="93.4699" gradientUnits="userSpaceOnUse">
<stop stop-color="#09005D"/>
<stop offset="1" stop-color="#1A0F91"/>
</linearGradient>
<linearGradient id="paint45_linear" x1="447.578" y1="133.58" x2="441.515" y2="116.181" gradientUnits="userSpaceOnUse">
<stop stop-color="#FEBBBA"/>
<stop offset="1" stop-color="#FF928E"/>
</linearGradient>
<linearGradient id="paint46_linear" x1="440.129" y1="163.018" x2="460.384" y2="135.448" gradientUnits="userSpaceOnUse">
<stop stop-color="#FF928E"/>
<stop offset="1" stop-color="#FE7062"/>
</linearGradient>
<linearGradient id="paint47_linear" x1="494.666" y1="139.105" x2="460.679" y2="158.83" gradientUnits="userSpaceOnUse">
<stop stop-color="#FEBBBA"/>
<stop offset="1" stop-color="#FF928E"/>
</linearGradient>
<linearGradient id="paint48_linear" x1="494.136" y1="135.211" x2="483.653" y2="147.985" gradientUnits="userSpaceOnUse">
<stop stop-color="#FEBBBA"/>
<stop offset="1" stop-color="#FF928E"/>
</linearGradient>
<linearGradient id="paint49_linear" x1="494.84" y1="138.907" x2="460.853" y2="158.632" gradientUnits="userSpaceOnUse">
<stop stop-color="#FEBBBA"/>
<stop offset="1" stop-color="#FF928E"/>
</linearGradient>
<linearGradient id="paint50_linear" x1="487.318" y1="168.708" x2="440.598" y2="140.756" gradientUnits="userSpaceOnUse">
<stop stop-color="#FEBBBA"/>
<stop offset="1" stop-color="#FF928E"/>
</linearGradient>
<linearGradient id="paint51_linear" x1="572.619" y1="15.8027" x2="378.462" y2="283.898" gradientUnits="userSpaceOnUse">
<stop stop-color="#E1473D"/>
<stop offset="1" stop-color="#E9605A"/>
</linearGradient>
<linearGradient id="paint52_linear" x1="570.602" y1="14.5758" x2="376.444" y2="282.671" gradientUnits="userSpaceOnUse">
<stop stop-color="#E1473D"/>
<stop offset="1" stop-color="#E9605A"/>
</linearGradient>
</defs>
</svg>
