<svg width="1492" height="300" viewBox="0 0 1492 300" fill="none" xmlns="http://www.w3.org/2000/svg">
<rect width="1492" height="299.6" fill="white"/>
<path d="M697.976 135.282V129.474H702.008L702.392 123.234H699.128V117.426H702.776L703.256 109.41H709.928L709.448 117.426H715.448L715.928 109.41H722.6L722.12 117.426H725.432V123.234H721.736L721.352 129.474H724.28V135.282H721.016L720.488 143.874H713.816L714.344 135.282H708.344L707.816 143.874H701.144L701.672 135.282H697.976ZM709.064 123.234L708.68 129.474H714.68L715.064 123.234H709.064ZM755.212 133.794C755.212 137.026 754.028 139.57 751.66 141.426C749.292 143.25 746.268 144.162 742.588 144.162C739.676 144.162 736.86 143.362 734.14 141.762C732.796 140.93 731.692 139.762 730.828 138.258C729.964 136.722 729.532 134.978 729.532 133.026L735.58 132.738C735.58 134.466 736.316 135.81 737.788 136.77C739.26 137.73 740.892 138.21 742.684 138.21C746.684 138.21 748.684 136.802 748.684 133.986C748.684 131.682 747.324 130.322 744.604 129.906L739.036 129.33C736.252 128.914 734.044 127.922 732.412 126.354C730.78 124.786 729.964 122.53 729.964 119.586C729.964 116.642 731.132 114.21 733.468 112.29C735.804 110.37 738.748 109.41 742.299 109.41C745.884 109.41 748.764 110.322 750.94 112.146C753.116 113.938 754.204 116.258 754.204 119.106L748.252 119.394C747.708 116.61 745.836 115.218 742.636 115.218C740.684 115.218 739.148 115.634 738.028 116.466C736.94 117.298 736.396 118.29 736.396 119.442C736.396 120.562 736.796 121.458 737.596 122.13C738.396 122.77 739.388 123.17 740.572 123.33L746.044 123.906C752.156 124.738 755.212 128.034 755.212 133.794ZM783.043 143.874H770.947C767.107 143.874 764.403 143.218 762.835 141.906C761.299 140.562 760.531 138.21 760.531 134.85V109.698H783.043V115.65H767.203V123.666H778.291L777.811 129.618H767.203V134.37C767.203 135.714 767.507 136.642 768.115 137.154C768.723 137.666 769.827 137.922 771.427 137.922H783.043V143.874ZM810.665 143.874H800.489C796.649 143.874 793.865 143.138 792.137 141.666C790.441 140.162 789.593 137.73 789.593 134.37V109.698H796.265V134.37C796.265 135.714 796.569 136.642 797.177 137.154C797.785 137.666 798.889 137.922 800.489 137.922H810.665V143.874ZM837.056 143.874H826.88C823.04 143.874 820.256 143.138 818.528 141.666C816.832 140.162 815.984 137.73 815.984 134.37V109.698H822.656V134.37C822.656 135.714 822.96 136.642 823.568 137.154C824.176 137.666 825.28 137.922 826.88 137.922H837.056V143.874ZM879.451 143.874H872.491L870.571 137.97H859.099L857.227 143.874H850.267L861.211 112.578C861.691 111.49 862.219 110.738 862.795 110.322C863.403 109.906 864.139 109.698 865.003 109.698C865.867 109.698 866.555 109.89 867.067 110.274C867.611 110.658 868.091 111.426 868.507 112.578L879.451 143.874ZM869.035 132.354L865.003 118.818L860.779 132.354H869.035ZM910.78 109.698V140.418C910.78 141.474 910.46 142.386 909.82 143.154C909.18 143.89 908.428 144.258 907.564 144.258C905.356 144.258 903.548 142.978 902.14 140.418L890.332 121.938V143.874H883.66V109.698H890.092L904.108 132.066V109.698H910.78ZM941.031 109.698L930.759 129.858V143.874H924.135V129.858L913.863 109.698H921.111L927.495 123.474L933.783 109.698H941.031ZM967.396 115.65H958.228V143.874H951.556V115.65H942.436V109.698H967.396V115.65ZM997.985 143.874H991.313V130.05H978.785V143.874H972.113V109.698H978.785V124.146H991.313V109.698H997.985V143.874ZM1012.12 143.874H1005.45V109.698H1012.12V143.874ZM1046.72 109.698V140.418C1046.72 141.474 1046.4 142.386 1045.76 143.154C1045.12 143.89 1044.37 144.258 1043.5 144.258C1041.29 144.258 1039.49 142.978 1038.08 140.418L1026.27 121.938V143.874H1019.6V109.698H1026.03L1040.05 132.066V109.698H1046.72ZM1051.53 127.794V123.57C1051.53 119.122 1052.7 115.65 1055.03 113.154C1057.37 110.658 1060.6 109.41 1064.73 109.41C1068.86 109.41 1072.17 110.658 1074.66 113.154C1076.42 114.914 1077.3 117.554 1077.3 121.074H1071.06C1071.06 117.266 1069.03 115.362 1064.97 115.362C1063.75 115.362 1062.71 115.602 1061.85 116.082C1061.02 116.53 1060.39 117.058 1059.98 117.666C1059.56 118.274 1059.24 119.17 1059.02 120.354C1058.79 121.538 1058.66 122.53 1058.63 123.33C1058.6 124.13 1058.58 125.202 1058.58 126.546C1058.58 127.89 1058.58 128.802 1058.58 129.282C1058.62 129.73 1058.66 130.482 1058.73 131.538C1058.82 132.562 1058.95 133.298 1059.11 133.746C1059.3 134.194 1059.56 134.77 1059.88 135.474C1060.23 136.178 1060.66 136.674 1061.18 136.962C1062.49 137.794 1063.98 138.21 1065.64 138.21C1068.42 138.21 1070.39 137.026 1071.54 134.658V132.354H1067.42V126.786H1077.26V137.106C1076.26 139.442 1074.7 141.202 1072.55 142.386C1070.41 143.57 1067.98 144.162 1065.26 144.162C1060.42 144.162 1056.92 142.818 1054.74 140.13C1052.6 137.41 1051.53 133.298 1051.53 127.794ZM697.976 200.282V194.474H702.008L702.392 188.234H699.128V182.426H702.776L703.256 174.41H709.928L709.448 182.426H715.448L715.928 174.41H722.6L722.12 182.426H725.432V188.234H721.736L721.352 194.474H724.28V200.282H721.016L720.488 208.874H713.816L714.344 200.282H708.344L707.816 208.874H701.144L701.672 200.282H697.976ZM709.064 188.234L708.68 194.474H714.68L715.064 188.234H709.064ZM756.94 199.034C756.94 202.202 756.076 204.634 754.348 206.33C752.652 208.026 750.268 208.874 747.196 208.874H742.588C738.812 208.874 736.124 208.218 734.523 206.906C732.956 205.594 732.172 203.322 732.172 200.09V174.698H746.62C749.884 174.698 752.332 175.514 753.964 177.146C755.628 178.778 756.46 181.082 756.46 184.058C756.46 185.786 756.012 187.258 755.116 188.474C754.252 189.69 753.292 190.554 752.236 191.066C755.372 192.538 756.94 195.194 756.94 199.034ZM746.092 188.042C748.556 188.042 749.788 186.81 749.788 184.346C749.788 181.882 748.556 180.65 746.092 180.65H738.844V188.042H746.092ZM750.268 198.698C750.268 197.162 749.996 196.01 749.452 195.242C748.908 194.442 747.932 194.042 746.524 194.042H738.844V199.418C738.844 200.73 739.164 201.642 739.804 202.154C740.476 202.666 741.564 202.922 743.068 202.922H746.524C749.02 202.922 750.268 201.514 750.268 198.698ZM788.869 174.698V197.162C788.869 200.874 787.605 203.802 785.077 205.946C782.581 208.09 779.493 209.162 775.813 209.162C772.133 209.162 769.029 208.09 766.501 205.946C764.005 203.802 762.757 200.874 762.757 197.162V174.698H769.429V196.922C769.429 199.034 770.005 200.618 771.157 201.674C772.341 202.698 773.893 203.21 775.813 203.21C777.733 203.21 779.285 202.698 780.469 201.674C781.653 200.618 782.245 199.034 782.245 196.922V174.698H788.869ZM819.156 174.698L808.884 194.858V208.874H802.26V194.858L791.988 174.698H799.236L805.62 188.474L811.908 174.698H819.156ZM860.373 208.874H853.413L851.493 202.97H840.021L838.149 208.874H831.189L842.133 177.578C842.613 176.49 843.141 175.738 843.717 175.322C844.325 174.906 845.061 174.698 845.925 174.698C846.789 174.698 847.477 174.89 847.989 175.274C848.533 175.658 849.013 176.426 849.429 177.578L860.373 208.874ZM849.957 197.354L845.925 183.818L841.701 197.354H849.957ZM891.702 174.698V205.418C891.702 206.474 891.382 207.386 890.742 208.154C890.102 208.89 889.35 209.258 888.486 209.258C886.278 209.258 884.47 207.978 883.062 205.418L871.254 186.938V208.874H864.582V174.698H871.014L885.03 197.066V174.698H891.702ZM921.953 174.698L911.681 194.858V208.874H905.057V194.858L894.785 174.698H902.033L908.417 188.474L914.705 174.698H921.953ZM948.317 180.65H939.149V208.874H932.477V180.65H923.357V174.698H948.317V180.65ZM978.907 208.874H972.235V195.05H959.707V208.874H953.035V174.698H959.707V189.146H972.235V174.698H978.907V208.874ZM993.047 208.874H986.375V174.698H993.047V208.874ZM1027.64 174.698V205.418C1027.64 206.474 1027.32 207.386 1026.68 208.154C1026.04 208.89 1025.29 209.258 1024.42 209.258C1022.22 209.258 1020.41 207.978 1019 205.418L1007.19 186.938V208.874H1000.52V174.698H1006.95L1020.97 197.066V174.698H1027.64ZM1032.45 192.794V188.57C1032.45 184.122 1033.62 180.65 1035.95 178.154C1038.29 175.658 1041.52 174.41 1045.65 174.41C1049.78 174.41 1053.09 175.658 1055.59 178.154C1057.35 179.914 1058.23 182.554 1058.23 186.074H1051.99C1051.99 182.266 1049.95 180.362 1045.89 180.362C1044.67 180.362 1043.63 180.602 1042.77 181.082C1041.94 181.53 1041.31 182.058 1040.9 182.666C1040.48 183.274 1040.16 184.17 1039.94 185.354C1039.71 186.538 1039.59 187.53 1039.55 188.33C1039.52 189.13 1039.51 190.202 1039.51 191.546C1039.51 192.89 1039.51 193.802 1039.51 194.282C1039.54 194.73 1039.59 195.482 1039.65 196.538C1039.75 197.562 1039.87 198.298 1040.03 198.746C1040.23 199.194 1040.48 199.77 1040.8 200.474C1041.15 201.178 1041.59 201.674 1042.1 201.962C1043.41 202.794 1044.9 203.21 1046.56 203.21C1049.35 203.21 1051.31 202.026 1052.47 199.658V197.354H1048.34V191.786H1058.18V202.106C1057.19 204.442 1055.62 206.202 1053.47 207.386C1051.33 208.57 1048.9 209.162 1046.18 209.162C1041.35 209.162 1037.84 207.818 1035.67 205.13C1033.52 202.41 1032.45 198.298 1032.45 192.794Z" fill="black"/>
<path d="M140 0C139.889 25.5368 139.815 51.1044 121.252 58.3127C102.652 65.5209 65.6366 54.4313 42.3402 61.0851C19.0438 67.7696 9.54041 92.1975 0 116.625V0H140Z" fill="#4042E2"/>
<path d="M1374 300C1389.52 289.681 1405.01 279.338 1412.93 264.68C1420.81 250.021 1421.09 230.999 1433 220.945C1444.91 210.916 1468.47 209.807 1492 208.722V300H1374Z" fill="#4042E2"/>
<path d="M0 176.764C23.2964 178.608 46.561 180.484 60 193.164C73.439 205.876 77.0206 229.457 85.3566 248.93C93.7242 268.403 106.846 283.833 120 299.23H0V176.764Z" fill="#E8EFFD"/>
<path d="M0 237.997C11.6323 238.935 23.2964 239.841 29.9842 246.213C36.7036 252.553 38.5103 264.328 42.6941 274.064C46.878 283.833 53.439 291.531 60 299.23H0V237.997Z" fill="#4042E2"/>
<path d="M1492 113.848C1460.86 111.623 1429.76 109.398 1408.5 98.6023C1387.28 87.7768 1375.9 68.3811 1363.64 50.519C1351.38 32.6569 1338.19 16.3285 1325 0H1492V113.848Z" fill="#E8EFFD"/>
<path d="M1492 56.9241C1476.43 55.8115 1460.86 54.6988 1450.27 49.2861C1439.64 43.9034 1433.95 34.1905 1427.82 25.2595C1421.69 16.3285 1415.12 8.1492 1408.5 0H1492V56.9241Z" fill="#4042E2"/>
<path d="M414.856 236.763C413.772 235.975 412.699 235.152 411.64 234.295C367.519 198.579 374.314 123.923 416.551 79.9689C421.954 74.3461 459.142 36.8873 517.143 36.8873C517.531 36.8873 517.919 36.8889 518.309 36.893C546.446 37.136 569.088 46.1319 582.392 53.0371C576.941 61.508 571.291 72.8675 568.603 86.3194H547.928L547.162 81.7996L438.024 80.6085L414.856 236.763ZM618.655 198.792L615.075 138.622C622.462 128.15 627.473 116.915 631.051 105.823C640.667 131.322 638.896 160.896 626.481 185.738C624.19 190.32 621.569 194.669 618.655 198.792V198.792ZM600.18 76.755C598.939 71.2985 598.004 66.4752 597.306 62.2381C599.368 63.7772 601.974 65.8404 604.861 68.4302C603.171 71.0207 601.597 73.7922 600.18 76.755" fill="url(#paint0_linear)"/>
<path d="M646.298 38.4619C646.896 37.4396 645.317 36.3567 644.017 36.8913C630.812 42.3162 597.82 59.8978 593.26 101.449C587.537 153.582 568.202 169.087 547.384 176.705C547.384 176.705 573.152 176.38 593.636 160.823C643.931 122.627 635.654 56.641 646.298 38.4619Z" fill="#BDD0FB"/>
<path d="M612.851 101.225L612.572 96.5434C612.533 95.8828 612.425 95.2392 612.253 94.6166C612.437 94.0909 612.624 93.5652 612.813 93.0403C613.308 91.6288 613.84 90.2269 614.369 88.8242C614.917 87.4264 615.474 86.031 616.047 84.6404C618.353 79.0814 620.889 73.5894 623.659 68.1774C626.463 62.7766 629.463 57.4429 632.741 52.219C632.805 52.1164 632.941 52.0575 633.086 52.0575C633.151 52.0575 633.218 52.0696 633.282 52.0946C633.481 52.1729 633.573 52.3514 633.492 52.4984C630.544 57.8305 627.744 63.2111 625.215 68.674C622.648 74.124 620.309 79.641 618.206 85.217C616.24 90.5111 614.402 95.8376 612.851 101.225" fill="#DCE6FD"/>
<path d="M583.711 153.342C584.724 154.851 587.21 154.983 588.455 153.607C595.327 146.013 612.491 123.041 603.69 90.7478C596.259 63.4775 595.256 48.086 595.366 41.0718C595.39 39.5884 593.187 38.9416 592.14 40.1238C580.579 53.1581 546.969 98.6599 583.711 153.342" fill="#91B3FA"/>
<path d="M592.131 86.3193H590.537C590.034 81.6906 589.307 77.0336 588.304 72.4234C588.224 72.0535 588.509 71.699 588.94 71.6304C588.989 71.6223 589.037 71.6191 589.085 71.6191C589.461 71.6191 589.795 71.8476 589.866 72.1739C590.887 76.868 591.624 81.609 592.131 86.3193Z" fill="#C0D6FC"/>
<path d="M433 93.6177C432.989 93.6177 432.979 93.6169 432.968 93.6169C432.524 93.6023 432.177 93.2826 432.194 92.9022C432.199 92.811 432.632 83.6471 435.329 73.0144C438.967 58.663 444.77 48.6004 452.574 43.1052C458.16 39.1733 464.735 37.6842 472.117 38.6783C480.622 39.8242 487.777 43.4201 493.387 49.3651C497.841 54.0859 501.326 60.2878 503.746 67.7994C507.847 80.5317 507.462 92.8263 507.457 92.9491C507.444 93.3294 507.085 93.6282 506.628 93.6169C506.183 93.6056 505.834 93.2874 505.848 92.9071C505.852 92.7867 506.228 80.6722 502.184 68.1369C499.822 60.8159 496.437 54.7877 492.123 50.2195C486.774 44.5555 479.959 41.1308 471.866 40.0398C464.958 39.1087 458.812 40.4985 453.597 44.1703C444.233 50.763 439.349 63.6535 436.901 73.3067C434.235 83.8224 433.808 92.8643 433.803 92.9547C433.787 93.3262 433.43 93.6177 433 93.6177" fill="url(#paint1_linear)"/>
<path d="M466.784 255.568L412.077 255.489L414.856 236.763L438.024 80.6085L547.162 81.7996L547.928 86.3194H490.178C485.473 85.8413 481.637 85.4141 478.903 85.0968C478.712 85.075 478.524 85.0645 478.338 85.0645C476.875 85.0645 475.565 85.7258 474.827 86.7336C468.732 88.1298 464.246 92.8894 464.246 98.5461V250.272C464.246 252.337 465.216 254.208 466.784 255.568" fill="url(#paint2_linear)"/>
<path d="M418.04 82.0895L438.024 80.6085L412.078 255.489L388.305 255.71C384.206 255.71 383.291 254.73 384.126 251.236L418.04 82.0895Z" fill="url(#paint3_linear)"/>
<path d="M455.529 93.24H455.497C455.053 93.2254 454.706 92.9056 454.723 92.5253C454.728 92.4341 455.161 83.2702 457.857 72.6375C461.497 58.2861 467.299 48.2235 475.104 42.7283C480.69 38.7964 487.267 37.3073 494.647 38.3014C503.151 39.4473 510.307 43.0432 515.917 48.9882C520.371 53.709 523.856 59.9109 526.275 67.4225C530.376 80.1548 529.991 92.4494 529.987 92.5721C529.973 92.9525 529.619 93.2505 529.157 93.24C528.713 93.2287 528.364 92.9105 528.377 92.5301C528.382 92.409 528.757 80.2953 524.714 67.76C522.352 60.439 518.967 54.4108 514.653 49.8426C509.304 44.1786 502.488 40.753 494.396 39.6629C487.489 38.7318 481.342 40.1216 476.128 43.7918C466.768 50.3812 461.884 63.2621 459.436 72.908C456.767 83.4261 456.336 92.4873 456.333 92.5778C456.316 92.9484 455.959 93.24 455.529 93.24" fill="url(#paint4_linear)"/>
<path d="M473.052 257.812C470.603 257.812 468.383 256.954 466.785 255.568C465.216 254.208 464.246 252.338 464.246 250.272V98.5462C464.246 92.8895 468.733 88.1299 474.827 86.7337C474.425 87.2828 474.193 87.9353 474.198 88.6395L475.29 247.691C475.301 249.217 476.648 250.496 478.42 250.655C485.532 251.292 495.767 251.543 507.477 251.543C543.742 251.543 594.089 249.137 609.083 248.377C611.508 248.255 613.36 246.479 613.231 244.403L603.829 92.9767C603.72 91.2187 602.019 89.8693 599.997 89.8693C599.898 89.8693 599.798 89.8726 599.697 89.879C590.262 90.4992 580.435 90.7568 570.61 90.7568C539.424 90.7568 508.315 88.1598 490.178 86.3195H600.004C600.882 86.3195 601.742 86.3962 602.571 86.5439C607.337 87.3894 611.137 90.5461 612.254 94.6168C612.425 95.2394 612.533 95.883 612.573 96.5436L612.851 101.225L615.075 138.622L618.654 198.792L621.539 247.298C621.805 251.781 617.683 255.564 612.44 255.644L473.215 257.811C473.16 257.812 473.105 257.812 473.052 257.812" fill="url(#paint5_linear)"/>
<path d="M474.197 88.6395C474.182 86.4785 476.402 84.8069 478.903 85.0968C495.491 87.0228 552.535 92.9783 599.697 89.879C601.848 89.7377 603.715 91.1323 603.829 92.9767L613.231 244.403C613.36 246.479 611.508 248.255 609.083 248.377C589.247 249.383 507.558 253.267 478.42 250.655C476.647 250.496 475.301 249.217 475.29 247.691L474.197 88.6395" fill="#7D97F4"/>
<path d="M476.151 92.434C476.137 90.3546 478.273 88.7452 480.681 89.0246C496.644 90.8779 551.539 96.6097 596.926 93.6267C598.996 93.491 600.792 94.8331 600.902 96.6081L609.95 242.332C610.075 244.33 608.292 246.039 605.958 246.157C586.869 247.124 508.255 250.862 480.215 248.348C478.509 248.195 477.214 246.965 477.203 245.497L476.151 92.434" fill="#BDD0FB"/>
<path d="M593.425 106.655H548.718C548.479 106.655 548.22 106.497 548.142 106.305L547.274 104.196C547.195 104.006 547.322 103.853 547.554 103.853H547.562L593.354 104.552C593.592 104.555 593.792 104.725 593.799 104.929L593.845 106.284C593.853 106.487 593.663 106.655 593.425 106.655V106.655ZM593.425 115.399H548.718C548.479 115.399 548.22 115.242 548.142 115.05L547.274 112.94C547.195 112.751 547.322 112.598 547.555 112.598H547.562L593.354 113.296C593.592 113.3 593.792 113.469 593.799 113.674L593.845 115.029C593.853 115.232 593.663 115.399 593.425 115.399ZM593.115 132.802H548.408C548.17 132.802 547.91 132.645 547.831 132.453L546.963 130.343C546.885 130.154 547.012 130.001 547.245 130.001H547.252L593.043 130.7C593.282 130.703 593.482 130.872 593.49 131.077L593.536 132.432C593.542 132.635 593.354 132.802 593.115 132.802V132.802ZM593.425 124.494H548.718C548.479 124.494 548.22 124.337 548.142 124.145L547.274 122.036C547.195 121.846 547.322 121.692 547.555 121.692H547.562L593.354 122.392C593.592 122.395 593.792 122.564 593.799 122.768L593.845 124.124C593.853 124.327 593.663 124.494 593.425 124.494V124.494ZM596.13 153.255H489.936C489.698 153.255 489.379 153.127 489.227 152.97L487.065 150.733C486.914 150.577 486.983 150.45 487.218 150.45H487.222L595.962 151.157C596.2 151.157 596.408 151.325 596.424 151.529L596.533 152.886C596.55 153.089 596.368 153.255 596.13 153.255V153.255ZM596.13 162.266H489.936C489.698 162.266 489.379 162.137 489.227 161.98L487.065 159.743C486.914 159.587 486.983 159.46 487.218 159.46H487.222L595.962 160.166C596.2 160.168 596.408 160.336 596.424 160.539L596.533 161.896C596.55 162.099 596.368 162.266 596.13 162.266V162.266ZM490.252 197.355C489.276 197.355 488.421 196.792 488.172 195.983C487.812 194.815 488.842 193.672 490.252 193.672C490.255 193.672 490.258 193.673 490.262 193.673L570.413 193.986C571.294 193.989 572.012 194.593 572.032 195.347C572.051 196.123 571.326 196.763 570.419 196.77L490.271 197.355C490.264 197.355 490.258 197.355 490.252 197.355V197.355ZM490.038 183.702C489.063 183.702 488.208 183.14 487.958 182.331C487.599 181.163 488.628 180.02 490.038 180.02H490.048L570.199 180.333C571.081 180.337 571.799 180.941 571.818 181.695C571.837 182.471 571.113 183.111 570.205 183.118L490.056 183.702H490.038V183.702ZM490.252 213.247C489.276 213.247 488.421 212.685 488.172 211.875C487.812 210.708 488.842 209.565 490.252 209.565H490.262L570.413 209.878C571.294 209.882 572.012 210.485 572.032 211.24C572.051 212.016 571.326 212.656 570.419 212.662L490.271 213.247H490.252V213.247ZM491.182 229.14C490.206 229.14 489.352 228.577 489.103 227.768C488.743 226.6 489.772 225.457 491.182 225.457H491.192L571.343 225.771C572.225 225.774 572.943 226.378 572.962 227.132C572.982 227.908 572.256 228.549 571.35 228.555L491.201 229.14H491.182" fill="#E5ECFD"/>
<path d="M582.934 176.548C582.591 176.576 582.283 176.715 582.086 176.928C581.924 177.103 581.853 177.315 581.886 177.524L582.869 183.723C582.975 184.389 583.733 184.879 584.632 184.863L593.294 184.707H593.311C594.15 184.684 594.827 184.16 594.823 183.532C594.806 180.694 594.752 178.037 594.276 176.695C594.062 176.092 593.31 175.69 592.464 175.709C590.885 175.768 588.056 176.049 585.782 176.275C584.695 176.383 583.667 176.485 582.934 176.548V176.548ZM593.331 185.275L593.308 185.276L584.647 185.432C583.409 185.454 582.362 184.752 582.211 183.799L581.228 177.601C581.169 177.237 581.289 176.872 581.564 176.575C581.871 176.242 582.347 176.025 582.868 175.981C583.597 175.919 584.621 175.817 585.706 175.709C587.99 175.483 590.833 175.2 592.436 175.141C593.599 175.105 594.607 175.669 594.912 176.529C595.414 177.945 595.471 180.648 595.488 183.529C595.494 184.465 594.528 185.244 593.331 185.275" fill="white"/>
<path d="M585.238 184.264C584.404 184.264 583.7 183.79 583.6 183.156L582.815 178.202C582.733 177.69 583.216 177.222 583.889 177.165C585.704 177.01 589.645 176.564 591.519 176.494C591.547 176.494 591.575 176.493 591.603 176.493C592.362 176.493 593.032 176.878 593.232 177.442C593.635 178.579 593.669 180.862 593.681 182.972C593.685 183.603 593.026 184.125 592.199 184.139L585.278 184.264H585.238" fill="#E5ECFD"/>
<path d="M584.827 191.856C584.484 191.885 584.174 192.024 583.979 192.236C583.817 192.412 583.746 192.624 583.779 192.833L584.762 199.032C584.868 199.697 585.626 200.187 586.525 200.171L595.186 200.016L595.203 200.015C596.043 199.993 596.719 199.469 596.715 198.841C596.698 196.003 596.644 193.346 596.168 192.003C595.954 191.402 595.191 190.986 594.357 191.019C592.778 191.077 589.949 191.358 587.675 191.584C586.587 191.692 585.56 191.794 584.827 191.856V191.856ZM595.224 200.585L595.2 200.585L586.539 200.74C585.302 200.763 584.254 200.06 584.103 199.108L583.12 192.91C583.062 192.546 583.182 192.181 583.456 191.884C583.764 191.551 584.239 191.334 584.761 191.289C585.489 191.228 586.514 191.126 587.599 191.018C589.883 190.791 592.725 190.509 594.329 190.449C594.34 190.449 594.351 190.449 594.363 190.449C595.501 190.419 596.502 190.986 596.805 191.837C597.307 193.254 597.364 195.957 597.38 198.838C597.386 199.774 596.421 200.553 595.224 200.585" fill="white"/>
<path d="M587.131 199.573C586.297 199.573 585.593 199.1 585.492 198.465L584.706 193.511C584.625 192.999 585.108 192.53 585.782 192.474C587.597 192.319 591.537 191.872 593.412 191.803C593.44 191.802 593.467 191.802 593.495 191.802C594.255 191.802 594.925 192.187 595.125 192.752C595.528 193.888 595.562 196.171 595.574 198.28C595.578 198.912 594.918 199.433 594.091 199.448L587.17 199.573H587.131" fill="#E5ECFD"/>
<path d="M585.395 207.741C585.052 207.77 584.742 207.909 584.546 208.121C584.385 208.296 584.314 208.509 584.347 208.718L585.33 214.916C585.436 215.583 586.193 216.073 587.093 216.056L595.754 215.901L595.771 215.9C596.61 215.878 597.287 215.354 597.283 214.725C597.266 211.888 597.212 209.231 596.735 207.888C596.522 207.287 595.759 206.868 594.924 206.903C593.346 206.962 590.517 207.243 588.243 207.469C587.155 207.577 586.128 207.679 585.395 207.741ZM595.791 216.469L595.767 216.47L587.106 216.625C585.869 216.648 584.822 215.946 584.67 214.993L583.687 208.795C583.63 208.43 583.75 208.066 584.024 207.768C584.332 207.436 584.807 207.218 585.329 207.174C586.057 207.113 587.082 207.011 588.166 206.903C590.45 206.676 593.293 206.394 594.896 206.335C594.907 206.334 594.919 206.333 594.931 206.333C596.069 206.303 597.07 206.871 597.372 207.723C597.874 209.139 597.931 211.841 597.948 214.723C597.954 215.659 596.988 216.438 595.791 216.469" fill="white"/>
<path d="M587.698 215.458C586.864 215.458 586.161 214.985 586.06 214.35L585.274 209.396C585.193 208.884 585.676 208.416 586.349 208.359C588.164 208.205 592.105 207.757 593.98 207.689C594.007 207.688 594.035 207.687 594.063 207.687C594.823 207.687 595.492 208.072 595.693 208.637C596.096 209.773 596.129 212.056 596.141 214.166C596.145 214.797 595.486 215.318 594.659 215.333L587.737 215.458H587.698" fill="#E5ECFD"/>
<path d="M585.961 223.626C585.619 223.655 585.31 223.794 585.113 224.006C584.951 224.181 584.88 224.394 584.913 224.603L585.897 230.801C586.003 231.468 586.76 231.958 587.66 231.941L596.321 231.786L596.339 231.785C597.177 231.763 597.854 231.239 597.85 230.611C597.833 227.773 597.779 225.116 597.303 223.773C597.09 223.172 596.325 222.751 595.491 222.788C593.912 222.846 591.083 223.127 588.81 223.354C587.723 223.462 586.695 223.564 585.961 223.626V223.626ZM596.358 232.354L596.335 232.355L587.674 232.51C586.436 232.533 585.389 231.831 585.238 230.878L584.255 224.68C584.197 224.316 584.316 223.951 584.591 223.653C584.899 223.32 585.374 223.104 585.896 223.059C586.624 222.997 587.648 222.896 588.733 222.788C591.017 222.561 593.86 222.279 595.463 222.22C595.474 222.219 595.487 222.219 595.498 222.218C596.637 222.188 597.638 222.757 597.939 223.608C598.441 225.024 598.498 227.726 598.515 230.608C598.521 231.544 597.556 232.323 596.358 232.354" fill="white"/>
<path d="M588.265 231.343C587.432 231.343 586.729 230.869 586.628 230.235L585.842 225.281C585.761 224.768 586.244 224.301 586.916 224.244C588.731 224.089 592.673 223.642 594.546 223.573C594.575 223.572 594.602 223.572 594.629 223.572C595.39 223.572 596.06 223.957 596.26 224.521C596.662 225.658 596.696 227.941 596.709 230.05C596.712 230.682 596.053 231.204 595.227 231.218L588.305 231.343H588.265Z" fill="#E5ECFD"/>
<path d="M525.844 130.673H525.826L501.636 130.396C501.217 130.391 500.847 130.159 500.724 129.822L493.406 109.808L489.363 109.889C489.354 109.89 489.345 109.89 489.337 109.89C488.841 109.89 488.444 109.608 488.444 109.182C488.444 108.748 488.856 108.446 489.363 108.435L494.095 108.328H494.121C494.52 108.328 494.87 108.538 494.988 108.861L495.858 111.227L530.324 110.609C530.336 110.609 530.348 110.608 530.359 110.608C530.724 110.608 531.066 110.709 531.287 110.941C531.514 111.181 531.586 111.483 531.48 111.777L527.407 123.05C527.259 123.461 526.794 123.757 526.266 123.757H526.264L500.456 123.723L502.341 128.92L525.826 129.137C526.393 129.142 526.855 129.457 526.855 129.916C526.855 130.371 526.404 130.673 525.844 130.673V130.673ZM505.273 137.672C505.24 137.672 505.207 137.672 505.174 137.671C503.184 137.626 501.573 136.242 501.573 134.586C501.573 132.946 503.152 131.63 505.116 131.63C505.135 131.63 505.154 131.63 505.174 131.63C507.177 131.657 508.815 133.041 508.815 134.716C508.815 136.363 507.231 137.672 505.273 137.672V137.672ZM505.142 133.241C504.226 133.241 503.489 133.854 503.489 134.621C503.489 135.395 504.244 136.041 505.174 136.06C505.188 136.061 505.201 136.061 505.216 136.061C506.129 136.061 506.868 135.448 506.868 134.68C506.868 133.902 506.107 133.256 505.174 133.241C505.163 133.241 505.152 133.241 505.142 133.241ZM521.407 138.035C521.371 138.035 521.335 138.034 521.3 138.033C519.211 137.986 517.521 136.568 517.521 134.872C517.521 133.192 519.177 131.844 521.237 131.844H521.3C523.402 131.873 525.122 133.291 525.122 135.007C525.122 136.694 523.46 138.035 521.407 138.035V138.035ZM521.265 133.495C520.305 133.495 519.531 134.122 519.531 134.907C519.531 135.701 520.324 136.363 521.3 136.383C521.314 136.384 521.329 136.384 521.345 136.384C522.303 136.384 523.078 135.757 523.078 134.971C523.078 134.173 522.279 133.51 521.3 133.495H521.265Z" fill="#F2F6FE"/>
<path d="M511.548 145.555C494.926 145.555 481.403 133.979 481.403 119.75C481.403 105.521 494.926 93.945 511.548 93.945C528.171 93.945 541.694 105.521 541.694 119.75C541.694 133.979 528.171 145.555 511.548 145.555ZM511.548 96.1504C496.347 96.1504 483.978 106.737 483.978 119.75C483.978 132.763 496.347 143.35 511.548 143.35C526.751 143.35 539.118 132.763 539.118 119.75C539.118 106.737 526.751 96.1504 511.548 96.1504Z" fill="#F3F6FE"/>
<path d="M540.739 74.4946C538.842 74.4946 537.302 73.1776 537.302 71.5528C537.302 69.9281 538.842 68.611 540.739 68.611C542.637 68.611 544.176 69.9281 544.176 71.5528C544.176 73.1776 542.637 74.4946 540.739 74.4946ZM546.8 65.7644C542.413 63.1513 538.598 63.203 535.912 63.8813C533.462 64.4998 531.874 66.5251 532.107 68.7022L533.265 79.5239L547.047 80.5713C547.047 80.5713 555.406 70.889 546.8 65.7644Z" fill="url(#paint6_linear)"/>
<path d="M534.281 71.5949C534.11 71.5949 533.966 71.4834 533.95 71.3356L533.809 70.0274C533.587 67.9529 535.112 66.0221 537.434 65.435C539.08 65.0192 540.775 64.9594 542.472 65.2582C542.652 65.2889 542.768 65.4399 542.731 65.5941C542.695 65.7476 542.52 65.8461 542.339 65.8154C540.748 65.5368 539.163 65.5925 537.623 65.9809C535.604 66.4913 534.279 68.1709 534.471 69.9758L534.612 71.284C534.629 71.4406 534.494 71.5795 534.311 71.5932C534.3 71.5941 534.29 71.5949 534.281 71.5949ZM534.642 74.9719C534.472 74.9719 534.327 74.8613 534.311 74.7135L534.127 72.9894C534.11 72.8336 534.245 72.6947 534.427 72.6802C534.614 72.6656 534.772 72.7811 534.789 72.9378L534.973 74.6618C534.99 74.8177 534.855 74.9566 534.672 74.9711C534.662 74.9719 534.651 74.9719 534.642 74.9719Z" fill="white"/>
<path d="M514.454 86.518V81.0769C514.454 79.1985 516.273 77.6949 518.466 77.7587L562.289 79.0443C564.234 79.1016 565.808 80.4155 565.925 82.0782L566.291 87.3062L514.454 86.518" fill="url(#paint7_linear)"/>
<path d="M530.795 79.8091H528.91C528.726 79.8091 528.577 79.6816 528.577 79.5241C528.577 79.3674 528.726 79.2398 528.91 79.2398H530.795C530.978 79.2398 531.127 79.3674 531.127 79.5241C531.127 79.6816 530.978 79.8091 530.795 79.8091ZM516.827 84.8093C516.643 84.8093 516.494 84.6825 516.494 84.5251V82.3238C516.494 80.6231 518.11 79.2398 520.096 79.2398H527.025C527.209 79.2398 527.358 79.3674 527.358 79.5241C527.358 79.6816 527.209 79.8091 527.025 79.8091H520.096C518.477 79.8091 517.159 80.9372 517.159 82.3238V84.5251C517.159 84.6825 517.01 84.8093 516.827 84.8093Z" fill="white"/>
<path d="M496.598 87.8917C496.704 86.0077 498.52 84.5267 500.723 84.5267L577.355 84.5251C580.111 84.5251 582.466 86.2225 582.936 88.5466L583.001 88.8672C583.516 91.4134 581.227 93.7415 578.209 93.7415H499.588C497.782 93.7415 496.342 92.4486 496.429 90.9046L496.598 87.8917Z" fill="#7D97F4"/>
<path d="M489.528 154.04C489.528 154.04 488.089 150.797 486.408 151.094C484.726 151.392 482.887 152.497 482.887 152.497L480.186 155.624C480.186 155.624 487.769 158.181 490.435 156.716C490.435 156.716 498.18 157.861 507.961 156.487C506.545 153.929 505.701 151.367 505.205 149.378C500.252 151.778 494.916 153.571 489.528 154.04" fill="url(#paint8_linear)"/>
<path d="M530.555 130.514C530.555 130.514 519.466 142.469 505.206 149.378C505.701 151.367 506.545 153.929 507.961 156.487C515.358 155.448 523.92 152.969 531.179 147.458L530.555 130.514Z" fill="url(#paint9_linear)"/>
<path d="M544.383 183.503C542.215 174.686 540.046 169.581 532.785 152.868C530.5 147.608 528.425 142.287 529.428 136.741L530.555 130.514C530.555 130.514 544.665 126.426 560.308 130.342C560.308 130.342 581.648 138.277 567.153 177.47C560.619 183.727 552.973 185.511 544.383 183.503" fill="url(#paint10_linear)"/>
<path d="M532.957 122.565L536.616 130.09C536.847 130.565 537.346 130.904 537.939 130.99C540.049 131.3 545.151 131.784 548.501 129.898C548.901 129.673 549.002 129.209 548.73 128.873L541.97 120.565L532.957 122.565Z" fill="url(#paint11_linear)"/>
<path d="M536.741 111.052C536.587 111.176 530.255 121.82 530.255 121.82L537.432 124.785L545.184 115.461C545.184 115.461 539.313 108.979 536.741 111.052Z" fill="url(#paint12_linear)"/>
<path d="M541.922 116.579L538.343 121.687C538.288 121.764 538.224 121.835 538.147 121.896C537.72 122.235 536.263 123.223 535.135 121.878C534.175 120.732 533.274 119.691 532.308 119.261C531.744 119.011 531.05 119.211 530.764 119.696C530.174 120.697 529.032 122.737 528.314 124.671C528.135 125.155 528.426 125.676 528.977 125.867C530.431 126.37 533.303 127.282 535.852 127.583C536.269 127.633 536.685 127.482 536.934 127.189C538.03 125.904 541.12 122.31 542.175 121.411C543.155 120.575 544.964 120.89 545.779 121.09C546.088 121.167 546.417 121.13 546.693 120.987C547.52 120.561 548.962 119.5 547.643 117.702C547.314 117.256 547.482 116.66 547.997 116.37C548.92 115.851 549.922 114.874 548.968 113.295C548.001 111.695 546.277 111.551 545.101 111.674C544.581 111.729 544.053 111.496 543.854 111.081C543.765 110.897 543.59 110.739 543.264 110.683C542.648 110.576 542.243 110.094 542.365 109.566C542.571 108.661 542.415 107.485 540.727 106.69C537.631 105.233 534.919 107.608 534.229 109.612C533.538 111.616 537.001 113.033 539.179 113.269C540.779 113.444 541.655 114.937 542.008 115.719C542.136 116.003 542.105 116.318 541.922 116.579" fill="url(#paint13_linear)"/>
<path d="M540.667 122.939C540.667 122.939 542.208 119.837 543.97 119.964C545.732 120.091 547.12 121.594 544.935 123.283C542.218 125.385 540.667 122.939 540.667 122.939" fill="url(#paint14_linear)"/>
<path d="M542.994 261.211C546.402 261.463 552.317 261.872 556.98 262.048C559.783 262.154 561.397 261.919 562.326 261.6C562.324 261.69 562.322 261.774 562.318 261.853C562.296 262.273 561.897 262.609 561.402 262.633C552.591 263.054 545.582 262.779 543.088 262.649C542.572 262.622 542.265 262.142 542.529 261.765C542.661 261.577 542.82 261.393 542.994 261.211Z" fill="url(#paint15_linear)"/>
<path d="M556.981 262.048C552.317 261.872 546.403 261.463 542.994 261.211C546.345 257.691 556.981 255.32 556.981 255.32H559.984C562.05 257.869 562.349 260.296 562.327 261.6C561.397 261.919 559.783 262.154 556.981 262.048Z" fill="url(#paint16_linear)"/>
<path d="M560.49 251.122L560.209 255.883C560.179 256.399 559.728 256.832 559.125 256.907C558.524 256.98 557.72 256.989 556.868 256.747C556.344 256.596 555.954 256.219 555.858 255.757L554.886 251.122H560.49Z" fill="url(#paint17_linear)"/>
<path d="M599.505 262.012C600.983 261.836 601.652 261.179 601.932 260.476L601.938 260.495C602.155 261.236 601.651 262.004 600.643 262.369C599.426 262.811 598.093 262.886 597.06 262.85C595.95 262.811 594.932 262.418 594.372 261.789L594.363 261.779C595.477 262.251 597.041 262.306 599.505 262.012" fill="url(#paint18_linear)"/>
<path d="M592.537 251.091H595.014C598.787 251.025 601.156 257.837 601.932 260.476C601.652 261.179 600.983 261.836 599.505 262.012C597.041 262.306 595.477 262.251 594.363 261.779C592.326 259.483 591.314 256.12 590.828 254.158C590.277 251.926 592.537 251.091 592.537 251.091" fill="url(#paint19_linear)"/>
<path d="M594.696 246.672L596.071 251.355C596.24 251.93 595.919 252.523 595.299 252.795C594.529 253.134 593.446 253.489 592.45 253.386C591.982 253.338 591.593 253.055 591.438 252.678L589.418 247.751L594.696 246.672Z" fill="url(#paint20_linear)"/>
<path d="M596.336 248.026C594.625 249.325 589.059 249.497 589.059 249.497C569.007 208.301 560.648 196.96 560.648 196.96C563.543 212.509 561.272 252.421 561.272 252.421C557.963 253.672 553.697 252.421 553.697 252.421C553.428 226.966 549.241 199.612 543.841 182.111C557.394 181.85 564.759 179.321 567.112 177.728C578.409 193.318 596.336 248.026 596.336 248.026" fill="url(#paint21_linear)"/>
<path d="M540.427 193.622L542.921 206.899C543.355 209.215 545.861 210.82 548.593 210.535L585.917 206.638C587.742 206.447 589.127 205.142 589.164 203.575C589.243 200.144 589.085 194.04 587.404 188.477L540.427 193.622" fill="url(#paint22_linear)"/>
<path d="M582.956 189.059C582.901 189.059 582.853 189.024 582.847 188.975C582.838 188.924 582.882 188.877 582.942 188.87L583.819 188.774C583.886 188.766 583.936 188.804 583.944 188.856C583.951 188.908 583.908 188.955 583.848 188.962L582.97 189.058L582.956 189.059ZM586.397 189.097C586.347 189.097 586.301 189.068 586.289 189.026C586.259 188.918 586.227 188.812 586.195 188.704L585.896 188.737C585.83 188.744 585.78 188.707 585.772 188.656C585.764 188.603 585.807 188.556 585.867 188.549L586.361 188.496L586.384 188.577C586.426 188.711 586.465 188.845 586.504 188.98C586.518 189.031 586.482 189.082 586.423 189.095C586.414 189.097 586.405 189.097 586.397 189.097ZM580.031 189.379C579.975 189.379 579.928 189.344 579.92 189.296C579.913 189.244 579.956 189.197 580.016 189.19L580.894 189.094C580.961 189.088 581.01 189.125 581.017 189.177C581.026 189.228 580.983 189.275 580.922 189.282L580.045 189.378L580.031 189.379ZM577.105 189.7C577.05 189.7 577.002 189.664 576.995 189.617C576.987 189.565 577.031 189.517 577.091 189.511L577.968 189.415C578.036 189.407 578.084 189.445 578.092 189.496C578.101 189.549 578.057 189.596 577.997 189.603L577.119 189.699L577.105 189.7ZM574.179 190.02C574.124 190.02 574.077 189.985 574.069 189.937C574.062 189.886 574.104 189.838 574.165 189.831L575.043 189.735C575.111 189.727 575.159 189.765 575.167 189.817C575.174 189.869 575.132 189.916 575.071 189.923L574.194 190.019L574.179 190.02ZM571.254 190.34C571.199 190.34 571.152 190.305 571.144 190.258C571.137 190.206 571.179 190.158 571.239 190.152L572.118 190.056C572.186 190.049 572.234 190.086 572.241 190.137C572.249 190.189 572.206 190.237 572.146 190.243L571.268 190.339L571.254 190.34ZM568.328 190.661C568.273 190.661 568.225 190.626 568.219 190.578C568.21 190.526 568.254 190.479 568.314 190.472L569.191 190.376C569.261 190.369 569.307 190.406 569.316 190.458C569.323 190.51 569.28 190.557 569.22 190.564L568.342 190.66L568.328 190.661ZM565.403 190.981C565.348 190.981 565.3 190.947 565.293 190.898C565.285 190.846 565.328 190.8 565.389 190.792L566.266 190.696C566.336 190.689 566.382 190.727 566.39 190.779C566.398 190.83 566.355 190.878 566.294 190.884L565.417 190.981L565.403 190.981ZM562.477 191.302C562.423 191.302 562.374 191.266 562.368 191.219C562.359 191.167 562.403 191.119 562.463 191.113L563.34 191.017C563.411 191.01 563.457 191.048 563.465 191.099C563.473 191.151 563.429 191.198 563.369 191.205L562.491 191.301L562.477 191.302ZM587.004 191.568C586.951 191.568 586.905 191.535 586.896 191.489C586.844 191.242 586.79 190.994 586.733 190.747C586.721 190.695 586.761 190.646 586.82 190.636C586.88 190.625 586.938 190.659 586.95 190.71C587.007 190.959 587.062 191.207 587.113 191.456C587.124 191.508 587.084 191.557 587.024 191.566L587.004 191.568ZM559.552 191.622C559.497 191.622 559.449 191.587 559.442 191.539C559.434 191.488 559.477 191.44 559.538 191.434L560.415 191.337C560.482 191.33 560.531 191.368 560.54 191.419C560.547 191.472 560.504 191.518 560.443 191.526L559.566 191.622H559.552ZM556.627 191.942C556.572 191.942 556.524 191.908 556.517 191.86C556.509 191.808 556.552 191.761 556.612 191.754L557.49 191.658C557.557 191.652 557.607 191.688 557.614 191.74C557.622 191.791 557.578 191.839 557.518 191.845L556.641 191.941L556.627 191.942ZM553.701 192.263C553.645 192.263 553.598 192.228 553.591 192.181C553.583 192.129 553.627 192.081 553.687 192.075L554.564 191.979C554.632 191.971 554.68 192.009 554.688 192.06C554.696 192.112 554.653 192.16 554.593 192.166L553.715 192.262L553.701 192.263ZM550.776 192.583C550.72 192.583 550.673 192.549 550.665 192.501C550.658 192.449 550.701 192.402 550.762 192.395L551.639 192.298C551.707 192.291 551.755 192.329 551.762 192.381C551.771 192.432 551.728 192.48 551.667 192.487L550.79 192.583L550.776 192.583ZM547.85 192.904C547.795 192.904 547.748 192.869 547.74 192.822C547.732 192.769 547.776 192.722 547.835 192.715L548.714 192.619C548.782 192.613 548.83 192.65 548.837 192.701C548.846 192.753 548.802 192.801 548.742 192.807L547.864 192.903L547.85 192.904ZM544.924 193.225C544.869 193.225 544.822 193.189 544.815 193.141C544.807 193.09 544.849 193.042 544.911 193.036L545.788 192.94C545.857 192.932 545.904 192.97 545.912 193.022C545.92 193.074 545.877 193.121 545.816 193.128L544.938 193.224L544.924 193.225ZM541.999 193.545C541.944 193.545 541.896 193.51 541.889 193.462C541.881 193.41 541.924 193.363 541.984 193.356L542.862 193.26C542.933 193.252 542.978 193.291 542.986 193.342C542.994 193.394 542.95 193.441 542.89 193.448L542.013 193.544L541.999 193.545ZM587.443 194.065C587.388 194.065 587.34 194.03 587.333 193.982C587.296 193.733 587.259 193.483 587.218 193.232C587.21 193.18 587.251 193.133 587.312 193.125C587.376 193.119 587.429 193.154 587.437 193.206C587.478 193.458 587.516 193.708 587.552 193.959C587.56 194.01 587.517 194.058 587.456 194.064L587.443 194.065ZM541.712 194.34C541.658 194.34 541.612 194.306 541.602 194.26L541.462 193.512C541.452 193.46 541.493 193.412 541.553 193.404C541.617 193.395 541.67 193.431 541.681 193.482L541.821 194.23C541.831 194.282 541.79 194.33 541.73 194.338L541.712 194.34ZM587.738 196.577C587.68 196.577 587.632 196.54 587.628 196.49C587.604 196.241 587.58 195.99 587.553 195.736C587.547 195.684 587.592 195.638 587.653 195.634C587.715 195.627 587.767 195.667 587.773 195.719C587.8 195.973 587.825 196.225 587.848 196.475C587.853 196.527 587.807 196.573 587.746 196.577H587.738ZM542.18 196.833C542.126 196.833 542.079 196.799 542.07 196.753L541.931 196.005C541.92 195.953 541.962 195.904 542.022 195.896C542.083 195.888 542.139 195.923 542.149 195.974L542.289 196.723C542.299 196.775 542.258 196.823 542.198 196.831L542.18 196.833ZM587.909 199.098C587.849 199.098 587.8 199.058 587.798 199.007C587.787 198.759 587.775 198.508 587.76 198.252C587.756 198.199 587.803 198.155 587.864 198.152C587.928 198.152 587.978 198.189 587.98 198.242C587.996 198.499 588.008 198.751 588.019 199C588.022 199.053 587.974 199.096 587.913 199.098H587.909ZM542.648 199.325C542.595 199.325 542.548 199.292 542.539 199.246L542.399 198.498C542.388 198.446 542.43 198.397 542.49 198.389C542.553 198.378 542.607 198.416 542.617 198.467L542.757 199.215C542.767 199.267 542.726 199.315 542.666 199.324L542.648 199.325ZM587.967 201.623C587.907 201.623 587.857 201.581 587.857 201.528C587.857 201.285 587.855 201.032 587.85 200.772C587.85 200.72 587.898 200.677 587.96 200.677C588.02 200.679 588.071 200.717 588.072 200.769C588.076 201.03 588.078 201.284 588.079 201.528C588.079 201.581 588.029 201.623 587.967 201.623ZM543.116 201.818C543.063 201.818 543.016 201.784 543.007 201.738L542.866 200.99C542.857 200.938 542.898 200.89 542.958 200.882C543.02 200.872 543.075 200.908 543.084 200.96L543.225 201.708C543.235 201.759 543.194 201.808 543.134 201.816L543.116 201.818ZM587.7 204.12C587.686 204.12 587.673 204.117 587.659 204.113C587.602 204.093 587.575 204.038 587.597 203.99C587.705 203.762 587.778 203.525 587.813 203.282C587.822 203.231 587.876 203.194 587.938 203.201C587.998 203.207 588.041 203.255 588.033 203.307C587.995 203.565 587.917 203.819 587.803 204.06C587.785 204.097 587.744 204.12 587.7 204.12V204.12ZM543.584 204.31C543.531 204.31 543.483 204.277 543.475 204.23L543.334 203.483C543.325 203.431 543.366 203.383 543.426 203.375C543.489 203.366 543.544 203.401 543.553 203.453L543.693 204.201C543.703 204.252 543.662 204.301 543.601 204.309L543.584 204.31ZM585.638 205.82C585.593 205.82 585.55 205.796 585.534 205.758C585.514 205.708 585.544 205.654 585.6 205.636C585.87 205.553 586.126 205.441 586.362 205.303C586.412 205.273 586.48 205.284 586.515 205.327C586.549 205.371 586.537 205.43 586.486 205.459C586.235 205.606 585.963 205.725 585.676 205.814C585.664 205.818 585.651 205.82 585.638 205.82ZM582.729 206.201C582.673 206.201 582.626 206.166 582.618 206.118C582.611 206.066 582.654 206.018 582.715 206.012L583.593 205.921C583.659 205.913 583.709 205.951 583.716 206.003C583.724 206.055 583.681 206.102 583.62 206.109L582.742 206.2L582.729 206.201ZM579.8 206.507C579.746 206.507 579.698 206.471 579.691 206.423C579.683 206.371 579.727 206.324 579.787 206.318L580.666 206.227C580.732 206.219 580.782 206.257 580.789 206.309C580.797 206.361 580.753 206.408 580.693 206.414L579.815 206.506L579.8 206.507ZM544.099 206.794C544.051 206.794 544.008 206.769 543.993 206.727C543.925 206.539 543.872 206.345 543.835 206.147L543.802 205.976C543.793 205.924 543.833 205.875 543.894 205.867C543.955 205.857 544.011 205.894 544.021 205.945L544.053 206.117C544.089 206.305 544.14 206.492 544.204 206.672C544.223 206.722 544.19 206.775 544.132 206.79C544.12 206.793 544.11 206.794 544.099 206.794V206.794ZM576.873 206.812C576.818 206.812 576.77 206.777 576.764 206.729C576.756 206.677 576.8 206.63 576.86 206.624L577.738 206.532C577.804 206.525 577.854 206.563 577.861 206.614C577.868 206.666 577.825 206.714 577.765 206.72L576.886 206.811L576.873 206.812ZM573.946 207.118C573.89 207.118 573.842 207.083 573.836 207.035C573.828 206.983 573.871 206.936 573.932 206.929L574.81 206.837C574.876 206.83 574.926 206.869 574.934 206.92C574.941 206.972 574.898 207.019 574.837 207.025L573.959 207.117L573.946 207.118ZM571.018 207.423C570.962 207.423 570.915 207.389 570.908 207.34C570.901 207.289 570.944 207.241 571.004 207.235L571.883 207.143C571.949 207.135 571.999 207.174 572.005 207.226C572.013 207.278 571.97 207.325 571.909 207.331L571.031 207.423L571.018 207.423ZM568.09 207.73C568.035 207.73 567.988 207.694 567.98 207.646C567.972 207.594 568.016 207.547 568.076 207.541L568.955 207.449C569.021 207.442 569.071 207.48 569.078 207.532C569.086 207.583 569.042 207.63 568.982 207.637L568.104 207.729L568.09 207.73ZM565.162 208.035C565.106 208.035 565.059 208 565.053 207.952C565.045 207.9 565.089 207.852 565.149 207.847L566.027 207.755C566.093 207.747 566.143 207.785 566.15 207.837C566.157 207.889 566.114 207.936 566.054 207.943L565.175 208.034L565.162 208.035ZM562.235 208.341C562.179 208.341 562.132 208.305 562.124 208.258C562.117 208.206 562.16 208.158 562.221 208.152L563.099 208.061C563.166 208.053 563.215 208.09 563.223 208.143C563.23 208.195 563.187 208.242 563.126 208.248L562.248 208.34L562.235 208.341ZM559.307 208.646C559.252 208.646 559.204 208.611 559.197 208.563C559.19 208.511 559.233 208.464 559.293 208.458L560.172 208.366C560.238 208.359 560.288 208.397 560.295 208.448C560.303 208.501 560.259 208.548 560.199 208.554L559.321 208.646H559.307ZM545.751 208.837C545.728 208.837 545.704 208.831 545.683 208.818C545.446 208.66 545.224 208.481 545.024 208.289C544.982 208.25 544.987 208.191 545.032 208.156C545.079 208.121 545.148 208.124 545.189 208.164C545.38 208.347 545.592 208.517 545.819 208.669C545.867 208.7 545.877 208.76 545.839 208.801C545.816 208.825 545.784 208.837 545.751 208.837V208.837ZM556.379 208.952C556.324 208.952 556.277 208.917 556.27 208.869C556.262 208.817 556.306 208.77 556.366 208.763L557.244 208.672C557.31 208.665 557.36 208.703 557.367 208.754C557.375 208.806 557.331 208.854 557.271 208.86L556.393 208.951L556.379 208.952ZM553.452 209.257C553.396 209.257 553.349 209.223 553.342 209.174C553.334 209.122 553.378 209.076 553.438 209.069L554.316 208.977C554.383 208.971 554.432 209.008 554.44 209.06C554.447 209.112 554.404 209.159 554.344 209.165L553.465 209.257H553.452ZM550.524 209.563C550.469 209.563 550.421 209.528 550.414 209.48C550.407 209.429 550.45 209.381 550.511 209.374L551.389 209.283C551.455 209.276 551.505 209.314 551.513 209.366C551.52 209.417 551.477 209.465 551.416 209.471L550.538 209.563L550.524 209.563ZM548.47 209.711H548.464C548.164 209.697 547.863 209.659 547.57 209.598C547.511 209.585 547.474 209.534 547.489 209.483C547.503 209.433 547.563 209.402 547.623 209.414C547.902 209.472 548.189 209.508 548.476 209.522C548.537 209.525 548.584 209.57 548.58 209.622C548.578 209.672 548.529 209.711 548.47 209.711" fill="white"/>
<path d="M549.911 182.747L549.869 181.707C549.959 181.447 550.196 181.245 550.5 181.168C551.638 180.882 554.478 180.289 555.998 181.025L556.384 182.196L549.911 182.747" fill="url(#paint23_linear)"/>
<path d="M553.392 181.361C553.132 181.445 552.864 181.474 552.588 181.448C552.253 181.415 551.986 181.191 551.944 180.906L551.462 177.686L553.377 177.477L553.858 180.693C553.9 180.98 553.708 181.256 553.392 181.361" fill="url(#paint24_linear)"/>
<path d="M568.449 180.716L568.408 179.676C568.498 179.417 568.735 179.214 569.04 179.137C570.177 178.852 573.018 178.258 574.538 178.994L574.924 180.166L568.449 180.716" fill="url(#paint25_linear)"/>
<path d="M571.931 179.329C571.671 179.414 571.403 179.443 571.127 179.417C570.791 179.384 570.525 179.16 570.483 178.875L569.951 175.316L571.865 175.107L572.396 178.663C572.439 178.949 572.247 179.225 571.931 179.329" fill="url(#paint26_linear)"/>
<path d="M551.386 178.497L571.883 175.659C572.351 175.594 572.705 175.26 572.727 174.858C572.757 174.294 572.734 173.457 572.457 172.617C572.143 171.662 571.056 171.047 569.899 171.149C566.047 171.492 556.272 172.565 551.156 174.979C550.615 175.235 550.255 175.698 550.187 176.221C550.121 176.721 550.127 177.378 550.405 178.017C550.552 178.356 550.966 178.555 551.386 178.497" fill="url(#paint27_linear)"/>
<path d="M550.881 177.795C550.748 177.795 550.626 177.716 550.594 177.6C550.586 177.571 550.404 176.886 550.515 176.196C550.606 175.635 551.042 175.144 551.652 174.915C552.765 174.498 554.902 173.762 556.709 173.52C556.87 173.497 557.02 173.592 557.046 173.73C557.071 173.868 556.961 173.997 556.799 174.019C554.994 174.261 552.764 175.049 551.889 175.377C551.459 175.538 551.164 175.87 551.099 176.264C551.003 176.864 551.167 177.48 551.169 177.486C551.206 177.622 551.107 177.757 550.948 177.789C550.926 177.793 550.903 177.795 550.881 177.795" fill="#BDD0FB"/>
<path d="M540.3 183.392C546.939 182.591 575.669 179.182 584.154 179.129C584.885 179.124 585.539 179.511 585.785 180.097C586.565 181.954 588.221 186.284 588.762 190.697C588.835 191.297 588.398 191.859 587.724 192.047L569.11 197.225L562.335 197.967L541.493 196.735C540.758 196.691 540.153 196.23 540.022 195.613C539.56 193.414 538.577 188.241 538.776 184.822C538.819 184.095 539.455 183.495 540.3 183.392" fill="url(#paint28_linear)"/>
<path d="M580.871 180.766C580.813 180.766 580.764 180.727 580.76 180.677C580.757 180.625 580.803 180.581 580.863 180.576C581.171 180.559 581.465 180.543 581.748 180.53C581.821 180.524 581.861 180.567 581.864 180.618C581.868 180.671 581.822 180.715 581.76 180.719C581.478 180.732 581.185 180.748 580.878 180.765L580.871 180.766ZM577.929 180.962C577.873 180.962 577.825 180.925 577.82 180.876C577.814 180.824 577.859 180.778 577.921 180.774C578.222 180.751 578.516 180.729 578.803 180.709C578.871 180.702 578.917 180.744 578.922 180.796C578.926 180.848 578.881 180.894 578.821 180.898C578.535 180.918 578.241 180.939 577.94 180.962L577.929 180.962ZM584.38 181.045C584.335 181.045 584.291 181.021 584.276 180.981C584.226 180.859 584.179 180.746 584.136 180.643C584.034 180.644 583.928 180.644 583.819 180.646C583.767 180.648 583.707 180.606 583.705 180.553C583.705 180.501 583.754 180.458 583.815 180.457C583.936 180.455 584.053 180.454 584.166 180.453C584.24 180.453 584.305 180.489 584.329 180.543C584.377 180.657 584.429 180.782 584.485 180.919C584.505 180.968 584.474 181.022 584.417 181.039C584.405 181.043 584.392 181.045 584.38 181.045V181.045ZM574.993 181.197C574.937 181.197 574.889 181.16 574.883 181.111C574.877 181.059 574.922 181.013 574.982 181.008C575.281 180.983 575.575 180.958 575.864 180.934C575.922 180.931 575.978 180.968 575.984 181.02C575.991 181.072 575.945 181.118 575.885 181.123C575.597 181.147 575.303 181.171 575.005 181.197H574.993ZM572.059 181.456C572.003 181.456 571.955 181.42 571.949 181.371C571.943 181.319 571.987 181.273 572.047 181.267L572.927 181.187C572.992 181.184 573.043 181.219 573.049 181.271C573.055 181.323 573.011 181.37 572.95 181.375L572.071 181.455L572.059 181.456ZM569.128 181.732C569.072 181.732 569.024 181.697 569.017 181.648C569.011 181.596 569.054 181.55 569.115 181.543L569.995 181.459C570.057 181.453 570.11 181.491 570.116 181.542C570.123 181.594 570.079 181.641 570.019 181.647L569.14 181.731L569.128 181.732ZM566.197 182.022C566.142 182.022 566.094 181.986 566.087 181.938C566.08 181.886 566.124 181.839 566.184 181.833L567.063 181.745C567.126 181.738 567.179 181.776 567.186 181.828C567.193 181.88 567.149 181.927 567.089 181.933L566.21 182.021L566.197 182.022ZM563.268 182.322C563.214 182.322 563.165 182.287 563.159 182.238C563.151 182.187 563.195 182.14 563.255 182.133L564.133 182.042C564.195 182.035 564.249 182.073 564.257 182.125C564.264 182.177 564.221 182.224 564.16 182.23L563.282 182.321L563.268 182.322ZM560.342 182.631C560.286 182.631 560.239 182.596 560.232 182.548C560.224 182.496 560.267 182.449 560.328 182.443L561.206 182.349C561.267 182.342 561.322 182.38 561.33 182.431C561.337 182.483 561.294 182.53 561.233 182.536L560.355 182.63L560.342 182.631ZM557.416 182.948C557.36 182.948 557.313 182.913 557.305 182.865C557.298 182.813 557.341 182.766 557.401 182.759L558.28 182.664C558.343 182.656 558.395 182.694 558.403 182.745C558.411 182.797 558.367 182.845 558.307 182.851L557.43 182.947L557.416 182.948ZM554.489 183.271C554.435 183.271 554.387 183.236 554.38 183.189C554.372 183.137 554.415 183.089 554.475 183.083L555.352 182.985C555.415 182.977 555.469 183.015 555.477 183.067C555.484 183.119 555.442 183.166 555.382 183.173L554.503 183.27L554.489 183.271ZM585.285 183.45C585.238 183.45 585.193 183.423 585.179 183.382C585.091 183.13 585.005 182.888 584.922 182.657C584.904 182.608 584.937 182.555 584.994 182.54C585.053 182.524 585.115 182.552 585.133 182.602C585.217 182.833 585.304 183.075 585.391 183.328C585.408 183.378 585.375 183.431 585.317 183.446C585.306 183.448 585.295 183.45 585.285 183.45ZM551.564 183.601C551.509 183.601 551.462 183.566 551.454 183.518C551.447 183.467 551.489 183.42 551.55 183.413L552.427 183.313C552.486 183.307 552.543 183.343 552.552 183.395C552.559 183.446 552.517 183.494 552.456 183.501L551.579 183.6L551.564 183.601ZM548.64 183.936C548.586 183.936 548.537 183.901 548.53 183.854C548.522 183.802 548.565 183.754 548.625 183.748L549.503 183.646C549.567 183.639 549.619 183.676 549.627 183.727C549.635 183.779 549.592 183.827 549.532 183.834L548.654 183.935L548.64 183.936ZM545.717 184.276C545.662 184.276 545.615 184.242 545.606 184.194C545.599 184.143 545.641 184.095 545.701 184.088L546.578 183.985C546.646 183.978 546.695 184.014 546.703 184.066C546.711 184.117 546.669 184.165 546.608 184.172L545.732 184.275L545.717 184.276ZM542.793 184.621C542.739 184.621 542.691 184.587 542.684 184.539C542.675 184.487 542.718 184.44 542.778 184.432L543.655 184.328C543.715 184.322 543.772 184.357 543.779 184.409C543.788 184.461 543.746 184.509 543.685 184.516L542.808 184.62L542.793 184.621ZM540.413 185.419H540.41C540.349 185.418 540.301 185.374 540.303 185.321C540.307 185.175 540.313 185.029 540.321 184.888C540.326 184.793 540.407 184.717 540.516 184.704L540.732 184.677C540.795 184.671 540.848 184.706 540.857 184.758C540.865 184.81 540.823 184.857 540.762 184.865L540.547 184.891C540.534 185.037 540.528 185.18 540.524 185.326C540.523 185.378 540.474 185.419 540.413 185.419V185.419ZM586.054 185.888C586.004 185.888 585.959 185.858 585.947 185.816C585.876 185.566 585.804 185.321 585.732 185.082C585.716 185.032 585.752 184.98 585.81 184.966C585.871 184.954 585.93 184.984 585.945 185.034C586.019 185.275 586.091 185.52 586.162 185.77C586.177 185.821 586.14 185.873 586.081 185.885C586.072 185.887 586.063 185.888 586.054 185.888V185.888ZM540.497 187.943C540.44 187.943 540.391 187.905 540.387 187.855C540.366 187.6 540.349 187.346 540.335 187.096C540.332 187.044 540.379 187 540.441 186.997H540.445C540.505 186.997 540.553 187.037 540.556 187.088C540.57 187.335 540.587 187.587 540.608 187.842C540.611 187.894 540.566 187.939 540.505 187.943H540.497ZM586.673 188.357C586.621 188.357 586.574 188.325 586.565 188.279C586.511 188.03 586.455 187.782 586.397 187.537C586.386 187.486 586.424 187.436 586.484 187.425C586.546 187.415 586.602 187.448 586.614 187.499C586.672 187.746 586.729 187.994 586.783 188.245C586.793 188.296 586.754 188.346 586.693 188.355L586.673 188.357ZM540.776 190.457C540.721 190.457 540.673 190.422 540.666 190.374C540.632 190.125 540.599 189.873 540.568 189.62C540.561 189.567 540.606 189.521 540.666 189.516C540.728 189.509 540.781 189.548 540.788 189.6C540.819 189.852 540.852 190.103 540.886 190.352C540.893 190.404 540.85 190.451 540.789 190.457H540.776ZM587.065 190.833C587.018 190.833 586.974 190.808 586.959 190.767C586.947 190.735 586.956 190.7 586.981 190.676C586.953 190.457 586.921 190.238 586.887 190.02C586.88 189.969 586.922 189.921 586.983 189.914C587.041 189.905 587.099 189.944 587.107 189.995C587.144 190.236 587.178 190.478 587.209 190.718L587.22 190.795L587.099 190.829C587.087 190.832 587.076 190.833 587.065 190.833V190.833ZM584.259 191.614C584.213 191.614 584.17 191.588 584.155 191.548C584.136 191.498 584.168 191.445 584.225 191.429L585.067 191.195C585.125 191.179 585.188 191.206 585.206 191.255C585.225 191.305 585.193 191.359 585.136 191.375L584.294 191.609C584.283 191.612 584.271 191.614 584.259 191.614ZM581.455 192.394C581.408 192.394 581.365 192.369 581.35 192.328C581.33 192.279 581.362 192.225 581.421 192.209L582.262 191.975C582.32 191.959 582.383 191.986 582.401 192.036C582.421 192.085 582.389 192.139 582.33 192.155L581.489 192.389C581.477 192.392 581.466 192.394 581.455 192.394V192.394ZM541.172 192.961C541.117 192.961 541.071 192.928 541.062 192.881C541.019 192.638 540.976 192.387 540.934 192.13C540.925 192.078 540.967 192.03 541.027 192.023C541.085 192.015 541.144 192.051 541.153 192.103C541.195 192.36 541.238 192.61 541.281 192.852C541.29 192.904 541.248 192.953 541.188 192.96L541.172 192.961ZM578.65 193.175C578.604 193.175 578.56 193.149 578.545 193.108C578.525 193.059 578.558 193.006 578.616 192.99L579.457 192.756C579.515 192.739 579.577 192.767 579.596 192.816C579.615 192.866 579.583 192.919 579.525 192.936L578.684 193.17C578.673 193.173 578.661 193.175 578.65 193.175V193.175ZM575.845 193.955C575.798 193.955 575.755 193.93 575.74 193.889C575.721 193.839 575.753 193.786 575.81 193.77L576.652 193.536C576.71 193.519 576.773 193.547 576.792 193.596C576.81 193.646 576.778 193.7 576.721 193.716L575.879 193.95C575.868 193.953 575.857 193.955 575.845 193.955ZM573.04 194.736C572.993 194.736 572.95 194.71 572.935 194.669C572.915 194.62 572.948 194.567 573.006 194.551L573.847 194.316C573.905 194.3 573.968 194.327 573.987 194.377C574.006 194.426 573.974 194.48 573.916 194.497L573.075 194.731C573.063 194.733 573.051 194.736 573.04 194.736V194.736ZM541.69 195.42H541.682L541.552 195.411L541.537 195.339C541.493 195.13 541.444 194.892 541.391 194.629C541.38 194.577 541.421 194.528 541.481 194.519C541.544 194.511 541.599 194.545 541.609 194.597C541.657 194.833 541.701 195.049 541.74 195.241C541.778 195.258 541.803 195.293 541.8 195.332C541.796 195.382 541.747 195.42 541.69 195.42ZM570.235 195.516C570.188 195.516 570.145 195.49 570.129 195.45C570.111 195.4 570.143 195.347 570.2 195.331L571.042 195.097C571.1 195.08 571.162 195.108 571.181 195.157C571.2 195.207 571.168 195.26 571.111 195.277L570.269 195.511C570.258 195.514 570.246 195.516 570.235 195.516ZM544.632 195.593H544.624L543.741 195.541C543.681 195.537 543.635 195.492 543.639 195.44C543.643 195.388 543.697 195.348 543.756 195.352L544.639 195.404C544.701 195.408 544.746 195.453 544.742 195.505C544.739 195.555 544.69 195.593 544.632 195.593ZM547.574 195.768L547.567 195.767L546.684 195.715C546.623 195.711 546.577 195.666 546.582 195.614C546.586 195.562 546.64 195.523 546.7 195.526L547.582 195.578C547.643 195.582 547.689 195.627 547.685 195.679C547.681 195.729 547.632 195.768 547.574 195.768V195.768ZM550.517 195.941H550.509L549.627 195.889C549.566 195.885 549.52 195.84 549.524 195.788C549.528 195.736 549.584 195.697 549.642 195.7L550.524 195.752C550.586 195.755 550.632 195.801 550.627 195.853C550.623 195.903 550.575 195.941 550.517 195.941ZM567.373 196.08C567.318 196.08 567.271 196.045 567.263 195.997C567.256 195.945 567.298 195.898 567.359 195.891L568.237 195.795C568.306 195.789 568.353 195.826 568.361 195.877C568.368 195.929 568.326 195.977 568.265 195.983L567.387 196.079L567.373 196.08ZM553.459 196.116L553.452 196.115L552.569 196.063C552.508 196.059 552.462 196.014 552.467 195.962C552.47 195.91 552.527 195.872 552.585 195.874L553.467 195.926C553.528 195.93 553.574 195.975 553.569 196.028C553.566 196.077 553.518 196.116 553.459 196.116ZM556.401 196.289H556.394L555.511 196.237C555.451 196.234 555.404 196.188 555.408 196.136C555.413 196.084 555.47 196.046 555.526 196.048L556.409 196.1C556.47 196.104 556.516 196.149 556.512 196.201C556.508 196.25 556.459 196.289 556.401 196.289ZM564.447 196.401C564.393 196.401 564.346 196.365 564.338 196.318C564.331 196.266 564.373 196.218 564.433 196.212L565.312 196.116C565.381 196.109 565.428 196.146 565.435 196.197C565.443 196.25 565.4 196.297 565.34 196.304L564.462 196.4L564.447 196.401ZM559.344 196.463H559.336L558.453 196.411C558.393 196.407 558.347 196.362 558.35 196.309C558.355 196.258 558.406 196.221 558.468 196.222L559.351 196.274C559.413 196.278 559.458 196.323 559.454 196.375C559.45 196.425 559.401 196.463 559.344 196.463ZM562.3 196.636L561.396 196.585C561.335 196.581 561.289 196.536 561.293 196.484C561.298 196.431 561.349 196.392 561.411 196.396L562.294 196.448L562.386 196.436C562.452 196.429 562.502 196.466 562.51 196.518C562.517 196.569 562.475 196.617 562.415 196.624L562.3 196.636" fill="white"/>
<path d="M568.837 199.73L562.9 200.38C562.123 200.465 561.394 200.042 561.203 199.394L559.786 194.579C559.561 193.813 560.172 193.049 561.093 192.948L568.224 192.167C569.126 192.068 569.932 192.65 569.967 193.424L570.189 198.37C570.219 199.053 569.632 199.643 568.837 199.73" fill="url(#paint29_linear)"/>
<path d="M567.972 198.911L563.454 199.406C562.862 199.47 562.307 199.148 562.161 198.655L561.083 194.99C560.911 194.407 561.377 193.825 562.077 193.749L567.506 193.154C568.192 193.079 568.806 193.522 568.832 194.111L569.001 197.875C569.024 198.395 568.577 198.844 567.972 198.911" fill="url(#paint30_linear)"/>
<path d="M564.442 159.946C565.842 164.898 565.878 169.744 565.665 171.507C565.585 172.173 564.96 172.692 564.181 172.739C563.296 172.791 562.092 172.861 561.015 172.914C559.832 172.973 558.518 172.332 557.64 171.797C557.192 171.524 556.612 171.95 556.862 172.369C557.294 173.092 558.043 173.661 558.787 174.145C559.234 174.435 560.722 174.953 560.618 175.525C560.585 175.706 560.458 175.864 560.321 176.004C559.495 176.853 558.244 177.307 557.01 177.631C556.855 177.672 556.692 177.715 556.582 177.817C556.551 178.501 559.007 179.259 559.641 179.44C560.59 179.709 561.596 179.824 562.594 179.733C565.064 179.511 567.345 178.051 568.675 176.292C572.233 171.587 574.072 165.906 574.743 161.561C571.435 158.73 566.44 159.448 564.442 159.946" fill="url(#paint31_linear)"/>
<path d="M574.744 162.008C577.382 144.945 562.021 131.825 562.021 131.825L552.882 140.946C559.82 148.35 563.119 155.134 564.626 160.462C566.624 159.964 571.435 159.177 574.744 162.008" fill="url(#paint32_linear)"/>
<path d="M564.408 160.379C564.152 160.379 563.92 160.23 563.858 160.008C562 153.44 558.085 146.937 552.222 140.681C552.027 140.472 552.065 140.167 552.31 140C552.553 139.833 552.91 139.866 553.105 140.075C559.073 146.442 563.061 153.073 564.958 159.78C565.031 160.04 564.844 160.302 564.541 160.365C564.496 160.375 564.451 160.379 564.408 160.379Z" fill="url(#paint33_linear)"/>
<path d="M440.627 261.533C440.628 261.45 440.621 261.365 440.596 261.28C439.127 256.292 431.831 253.185 431.831 253.185L428.94 253.378C427.278 257.775 427.491 260.472 427.758 261.673C427.766 261.706 427.778 261.739 427.788 261.771C430.173 261.954 435.081 262.073 440.627 261.533" fill="url(#paint34_linear)"/>
<path d="M427.788 261.771C427.917 262.172 428.263 262.485 428.705 262.564C432.098 263.175 437.49 262.684 439.753 262.43C440.253 262.374 440.618 261.979 440.627 261.533C435.081 262.073 430.173 261.954 427.788 261.771" fill="url(#paint35_linear)"/>
<path d="M427.778 249.693L429.002 254.738C429.092 255.108 429.424 255.385 429.826 255.417C430.318 255.457 431.018 255.48 431.723 255.392C432.354 255.312 432.794 254.763 432.682 254.173L431.831 249.693H427.778" fill="url(#paint36_linear)"/>
<path d="M453.147 261.707C449.954 261.63 448.303 261.309 447.449 261.01C447.447 261.282 447.448 261.559 447.459 261.845C447.47 262.151 447.735 262.396 448.061 262.394L465.591 262.297C466.151 262.293 466.478 261.739 466.236 261.299C463.937 261.462 458.083 261.826 453.147 261.707" fill="url(#paint37_linear)"/>
<path d="M466.236 261.299C466.214 261.261 466.196 261.222 466.166 261.186C464.618 259.335 460.674 255.647 452.883 254.048L449.144 253.947C449.144 253.947 447.48 256.423 447.449 261.01C448.303 261.309 449.954 261.63 453.147 261.707C458.083 261.826 463.937 261.462 466.236 261.299Z" fill="url(#paint38_linear)"/>
<path d="M448.285 249.246C448.345 249.482 449.122 253.072 449.423 254.465C449.495 254.795 449.795 255.038 450.154 255.055C450.795 255.086 451.827 255.09 452.714 254.883C453.194 254.771 453.515 254.354 453.48 253.89L453.062 248.211L448.285 249.246" fill="url(#paint39_linear)"/>
<path d="M445.453 182.957C445.453 182.957 450.594 213.203 454.306 249.195C454.375 249.865 453.75 250.449 452.981 250.587C451.847 250.791 450.181 251.034 448.802 251.001C448.065 250.983 447.45 250.516 447.326 249.894C446.062 243.548 437.041 209.491 434.674 201.995C434.674 201.995 431.954 233.835 432.824 250.354C432.845 250.765 432.494 251.121 432.017 251.168C431.293 251.24 430.135 251.294 428.661 251.16C428.102 251.109 427.651 250.748 427.571 250.271C426.67 244.9 421.488 212.932 421.708 189.903C421.72 188.604 423.488 177.934 423.488 177.934L445.453 182.957Z" fill="url(#paint40_linear)"/>
<path d="M422.715 184.7C422.186 184.54 421.818 184.13 421.76 183.651C421.076 177.973 417.766 142.763 438.667 128.279C438.667 128.279 439.866 125.594 449.719 132.193C459.571 138.792 454.296 145.709 451.938 155.25C449.083 166.794 444.075 176.231 446.291 183.336C446.443 183.826 446.142 184.34 445.587 184.516C437.933 186.931 430.309 187.011 422.715 184.7" fill="url(#paint41_linear)"/>
<path d="M446.821 117.729C446.814 118.23 438.468 128.378 438.468 128.378C438.468 128.378 439.966 130.904 447.118 132.954L453.292 122.089L446.821 117.729Z" fill="url(#paint42_linear)"/>
<path d="M453.392 111.914C453.392 111.914 456.362 117.754 456.561 120.819C456.761 123.884 457.533 125.873 453.392 126.49C449.252 127.107 445.764 125.342 443.875 122.289C443.875 122.289 440.914 117.584 441.579 115.657C442.243 113.731 453.392 111.914 453.392 111.914Z" fill="url(#paint43_linear)"/>
<path d="M445.29 120.093L445.526 120.005C445.826 119.892 445.954 119.586 445.803 119.337C445.219 118.371 444.081 116.158 445.551 115.642C447.446 114.977 454.952 113.666 456.572 111.387C458.128 109.196 456.749 106.367 454.676 105.563C454.538 105.509 454.375 105.552 454.303 105.667L454.13 105.946C454.012 106.139 453.681 106.11 453.611 105.901C453.543 105.702 453.233 105.663 453.105 105.839C452.607 106.521 451.263 107.627 447.669 108.195C442.562 109.001 439.184 110.771 439.1 113.792C439.095 113.984 438.856 114.091 438.665 113.991C438.288 113.794 437.684 113.702 436.878 114.283C435.475 115.292 436.05 117.911 439.124 120.065C439.27 120.168 439.269 120.363 439.111 120.451C438.553 120.762 437.722 121.501 439.876 122.486C442.103 123.505 443.766 123.422 444.407 123.331C444.565 123.309 444.668 123.177 444.633 123.042L443.95 120.387C443.912 120.236 444.046 120.093 444.225 120.093H445.29" fill="url(#paint44_linear)"/>
<path d="M445.418 120.654C445.418 120.654 444.285 116.924 442.332 117.97C440.378 119.015 443.346 122.149 444.916 122.289L445.418 120.654Z" fill="url(#paint45_linear)"/>
<path d="M452.889 135.256L453.464 148.485C455.099 148.966 456.655 149.341 458.137 149.621C459.063 147.066 461.104 143.932 462.775 141.6C456.635 139.742 452.889 135.256 452.889 135.256" fill="url(#paint46_linear)"/>
<path d="M483.545 135.031C475.121 142.815 468.304 143.274 462.775 141.6C461.105 143.932 459.063 147.067 458.137 149.621C480.63 153.866 485.926 136.166 485.926 136.166L483.545 135.031Z" fill="url(#paint47_linear)"/>
<path d="M485.252 134.204C485.252 134.204 486.223 133.312 488.018 133.592C489.814 133.872 491.412 134.407 492.531 133.592C493.65 132.778 494.043 133.871 494.043 133.871L490.692 136.051L485.252 134.204" fill="url(#paint48_linear)"/>
<path d="M483.248 135.729C483.248 135.729 483.913 133.349 485.916 133.675C487.92 134.001 492.468 136.119 493.64 135.729C494.812 135.339 496.311 134.405 497.08 134.735L495.726 136.176C495.726 136.176 499.208 134.457 499.807 135.513L494.013 138.304C494.013 138.304 485.537 137.578 483.248 135.729" fill="url(#paint49_linear)"/>
<path d="M443.539 152.57C443.539 152.57 459.374 163.923 476.473 158.969C477.533 158.662 478.693 158.729 479.683 159.176L484.599 161.398C486.662 162.331 489.218 161.719 490.415 160.005C491.098 159.027 491.681 157.91 491.797 156.84L482.177 153.506L482.887 152.497C482.887 152.497 478.191 152.156 476.961 155.037C476.961 155.037 468.015 158.222 452.93 144.019C452.93 144.019 446.085 149.001 443.539 152.57Z" fill="url(#paint50_linear)"/>
<path d="M442.686 152.453C442.634 152.453 442.581 152.441 442.535 152.413C435.867 148.557 432.731 142.333 432.7 142.271C432.641 142.152 432.706 142.016 432.843 141.966C432.982 141.916 433.14 141.971 433.199 142.089C433.229 142.15 436.308 148.251 442.838 152.029C442.962 152.101 442.995 152.244 442.911 152.351C442.859 152.417 442.773 152.453 442.686 152.453" fill="url(#paint51_linear)"/>
<path d="M452.618 143.826C452.529 143.826 452.441 143.789 452.39 143.719C452.37 143.692 450.332 140.978 446.453 135.032C445.26 133.203 443.692 132.046 441.793 131.59C438.647 130.838 435.616 132.281 435.586 132.296C435.456 132.357 435.291 132.32 435.216 132.209C435.143 132.097 435.188 131.956 435.318 131.893C435.449 131.829 438.566 130.336 441.933 131.143C443.979 131.631 445.66 132.864 446.926 134.805C450.796 140.737 452.825 143.441 452.845 143.468C452.926 143.575 452.89 143.719 452.764 143.789C452.719 143.814 452.668 143.826 452.618 143.826" fill="url(#paint52_linear)"/>
<defs>
<linearGradient id="paint0_linear" x1="652.637" y1="284.981" x2="495.092" y2="86.3245" gradientUnits="userSpaceOnUse">
<stop stop-color="#DAE3FE"/>
<stop offset="1" stop-color="#E9EFFD"/>
</linearGradient>
<linearGradient id="paint1_linear" x1="507.468" y1="65.9986" x2="432.194" y2="65.9986" gradientUnits="userSpaceOnUse">
<stop stop-color="#2B3582"/>
<stop offset="1" stop-color="#150E42"/>
</linearGradient>
<linearGradient id="paint2_linear" x1="409.971" y1="94.077" x2="548.036" y2="295.378" gradientUnits="userSpaceOnUse">
<stop stop-color="#4F52FF"/>
<stop offset="1" stop-color="#4042E2"/>
</linearGradient>
<linearGradient id="paint3_linear" x1="640.169" y1="58.2299" x2="519.667" y2="138.966" gradientUnits="userSpaceOnUse">
<stop stop-color="#4F52FF"/>
<stop offset="1" stop-color="#4042E2"/>
</linearGradient>
<linearGradient id="paint4_linear" x1="529.998" y1="65.6217" x2="454.723" y2="65.6217" gradientUnits="userSpaceOnUse">
<stop stop-color="#2B3582"/>
<stop offset="1" stop-color="#150E42"/>
</linearGradient>
<linearGradient id="paint5_linear" x1="542.916" y1="247.644" x2="534.727" y2="-35.5247" gradientUnits="userSpaceOnUse">
<stop stop-color="#09005D"/>
<stop offset="1" stop-color="#1A0F91"/>
</linearGradient>
<linearGradient id="paint6_linear" x1="560.386" y1="50.238" x2="515.003" y2="119.982" gradientUnits="userSpaceOnUse">
<stop stop-color="#09005D"/>
<stop offset="1" stop-color="#1A0F91"/>
</linearGradient>
<linearGradient id="paint7_linear" x1="566.462" y1="54.2437" x2="521.079" y2="123.987" gradientUnits="userSpaceOnUse">
<stop stop-color="#09005D"/>
<stop offset="1" stop-color="#1A0F91"/>
</linearGradient>
<linearGradient id="paint8_linear" x1="516.465" y1="141.227" x2="488.306" y2="165.455" gradientUnits="userSpaceOnUse">
<stop stop-color="#FEBBBA"/>
<stop offset="1" stop-color="#FF928E"/>
</linearGradient>
<linearGradient id="paint9_linear" x1="548.826" y1="89.0503" x2="517.248" y2="172.628" gradientUnits="userSpaceOnUse">
<stop stop-color="#FF928E"/>
<stop offset="1" stop-color="#FE7062"/>
</linearGradient>
<linearGradient id="paint10_linear" x1="576.984" y1="99.6493" x2="545.406" y2="183.227" gradientUnits="userSpaceOnUse">
<stop stop-color="#FF928E"/>
<stop offset="1" stop-color="#FE7062"/>
</linearGradient>
<linearGradient id="paint11_linear" x1="542.324" y1="129.497" x2="538.971" y2="117.745" gradientUnits="userSpaceOnUse">
<stop stop-color="#FEBBBA"/>
<stop offset="1" stop-color="#FF928E"/>
</linearGradient>
<linearGradient id="paint12_linear" x1="531.93" y1="115.454" x2="547.061" y2="123.139" gradientUnits="userSpaceOnUse">
<stop stop-color="#FEBBBA"/>
<stop offset="1" stop-color="#FF928E"/>
</linearGradient>
<linearGradient id="paint13_linear" x1="543.504" y1="123.676" x2="532.521" y2="110.046" gradientUnits="userSpaceOnUse">
<stop stop-color="#09005D"/>
<stop offset="1" stop-color="#1A0F91"/>
</linearGradient>
<linearGradient id="paint14_linear" x1="530.936" y1="117.421" x2="546.067" y2="125.106" gradientUnits="userSpaceOnUse">
<stop stop-color="#FEBBBA"/>
<stop offset="1" stop-color="#FF928E"/>
</linearGradient>
<linearGradient id="paint15_linear" x1="562.326" y1="262.034" x2="542.432" y2="262.034" gradientUnits="userSpaceOnUse">
<stop stop-color="#09005D"/>
<stop offset="1" stop-color="#1A0F91"/>
</linearGradient>
<linearGradient id="paint16_linear" x1="610.351" y1="246.108" x2="540.237" y2="269.454" gradientUnits="userSpaceOnUse">
<stop stop-color="#4F52FF"/>
<stop offset="1" stop-color="#4042E2"/>
</linearGradient>
<linearGradient id="paint17_linear" x1="560.49" y1="254.037" x2="554.886" y2="254.037" gradientUnits="userSpaceOnUse">
<stop stop-color="#FEBBBA"/>
<stop offset="1" stop-color="#FF928E"/>
</linearGradient>
<linearGradient id="paint18_linear" x1="601.988" y1="261.667" x2="594.364" y2="261.667" gradientUnits="userSpaceOnUse">
<stop stop-color="#09005D"/>
<stop offset="1" stop-color="#1A0F91"/>
</linearGradient>
<linearGradient id="paint19_linear" x1="570.195" y1="242.527" x2="610.688" y2="273.33" gradientUnits="userSpaceOnUse">
<stop stop-color="#4F52FF"/>
<stop offset="1" stop-color="#4042E2"/>
</linearGradient>
<linearGradient id="paint20_linear" x1="596.116" y1="250.038" x2="589.418" y2="250.038" gradientUnits="userSpaceOnUse">
<stop stop-color="#FEBBBA"/>
<stop offset="1" stop-color="#FF928E"/>
</linearGradient>
<linearGradient id="paint21_linear" x1="566.073" y1="168.583" x2="571.278" y2="251.288" gradientUnits="userSpaceOnUse">
<stop stop-color="#09005D"/>
<stop offset="1" stop-color="#1A0F91"/>
</linearGradient>
<linearGradient id="paint22_linear" x1="564.803" y1="215.552" x2="564.803" y2="198.049" gradientUnits="userSpaceOnUse">
<stop stop-color="#4F52FF"/>
<stop offset="1" stop-color="#4042E2"/>
</linearGradient>
<linearGradient id="paint23_linear" x1="827.229" y1="-300.182" x2="821.373" y2="-286.126" gradientUnits="userSpaceOnUse">
<stop stop-color="#4F52FF"/>
<stop offset="1" stop-color="#4042E2"/>
</linearGradient>
<linearGradient id="paint24_linear" x1="825.647" y1="-300.85" x2="819.791" y2="-286.794" gradientUnits="userSpaceOnUse">
<stop stop-color="#4F52FF"/>
<stop offset="1" stop-color="#4042E2"/>
</linearGradient>
<linearGradient id="paint25_linear" x1="841.279" y1="-294.303" x2="835.424" y2="-280.248" gradientUnits="userSpaceOnUse">
<stop stop-color="#4F52FF"/>
<stop offset="1" stop-color="#4042E2"/>
</linearGradient>
<linearGradient id="paint26_linear" x1="839.586" y1="-295.024" x2="833.73" y2="-280.969" gradientUnits="userSpaceOnUse">
<stop stop-color="#4F52FF"/>
<stop offset="1" stop-color="#4042E2"/>
</linearGradient>
<linearGradient id="paint27_linear" x1="831.002" y1="-298.593" x2="825.146" y2="-284.537" gradientUnits="userSpaceOnUse">
<stop stop-color="#4F52FF"/>
<stop offset="1" stop-color="#4042E2"/>
</linearGradient>
<linearGradient id="paint28_linear" x1="563.481" y1="175.275" x2="564.45" y2="230.187" gradientUnits="userSpaceOnUse">
<stop stop-color="#4F52FF"/>
<stop offset="1" stop-color="#4042E2"/>
</linearGradient>
<linearGradient id="paint29_linear" x1="613.188" y1="144.759" x2="585.792" y2="184.764" gradientUnits="userSpaceOnUse">
<stop stop-color="#09005D"/>
<stop offset="1" stop-color="#1A0F91"/>
</linearGradient>
<linearGradient id="paint30_linear" x1="599.658" y1="149.306" x2="575.909" y2="193.308" gradientUnits="userSpaceOnUse">
<stop stop-color="#4F52FF"/>
<stop offset="1" stop-color="#4042E2"/>
</linearGradient>
<linearGradient id="paint31_linear" x1="586.319" y1="109.378" x2="567.891" y2="181.137" gradientUnits="userSpaceOnUse">
<stop stop-color="#FEBBBA"/>
<stop offset="1" stop-color="#FF928E"/>
</linearGradient>
<linearGradient id="paint32_linear" x1="588.341" y1="103.905" x2="556.763" y2="187.483" gradientUnits="userSpaceOnUse">
<stop stop-color="#FF928E"/>
<stop offset="1" stop-color="#FE7062"/>
</linearGradient>
<linearGradient id="paint33_linear" x1="629.788" y1="77.4952" x2="569.834" y2="160.861" gradientUnits="userSpaceOnUse">
<stop stop-color="#FF928E"/>
<stop offset="1" stop-color="#FE7062"/>
</linearGradient>
<linearGradient id="paint34_linear" x1="427.576" y1="257.555" x2="440.627" y2="257.555" gradientUnits="userSpaceOnUse">
<stop stop-color="#09005D"/>
<stop offset="1" stop-color="#1A0F91"/>
</linearGradient>
<linearGradient id="paint35_linear" x1="460.261" y1="244.355" x2="418.579" y2="282.588" gradientUnits="userSpaceOnUse">
<stop stop-color="#4F52FF"/>
<stop offset="1" stop-color="#4042E2"/>
</linearGradient>
<linearGradient id="paint36_linear" x1="431.214" y1="244.844" x2="429.381" y2="263.533" gradientUnits="userSpaceOnUse">
<stop stop-color="#FEBBBA"/>
<stop offset="1" stop-color="#FF928E"/>
</linearGradient>
<linearGradient id="paint37_linear" x1="468.689" y1="253.543" x2="427.007" y2="291.777" gradientUnits="userSpaceOnUse">
<stop stop-color="#4F52FF"/>
<stop offset="1" stop-color="#4042E2"/>
</linearGradient>
<linearGradient id="paint38_linear" x1="447.449" y1="257.838" x2="466.236" y2="257.838" gradientUnits="userSpaceOnUse">
<stop stop-color="#09005D"/>
<stop offset="1" stop-color="#1A0F91"/>
</linearGradient>
<linearGradient id="paint39_linear" x1="451.177" y1="246.801" x2="450.356" y2="265.535" gradientUnits="userSpaceOnUse">
<stop stop-color="#FEBBBA"/>
<stop offset="1" stop-color="#FF928E"/>
</linearGradient>
<linearGradient id="paint40_linear" x1="419.231" y1="271.818" x2="442.586" y2="177.562" gradientUnits="userSpaceOnUse">
<stop stop-color="#09005D"/>
<stop offset="1" stop-color="#1A0F91"/>
</linearGradient>
<linearGradient id="paint41_linear" x1="574.507" y1="-26.005" x2="528.778" y2="59.4073" gradientUnits="userSpaceOnUse">
<stop stop-color="#FF928E"/>
<stop offset="1" stop-color="#FE7062"/>
</linearGradient>
<linearGradient id="paint42_linear" x1="441.152" y1="136.281" x2="445.533" y2="122.305" gradientUnits="userSpaceOnUse">
<stop stop-color="#FEBBBA"/>
<stop offset="1" stop-color="#FF928E"/>
</linearGradient>
<linearGradient id="paint43_linear" x1="453.028" y1="126.495" x2="446.978" y2="109.114" gradientUnits="userSpaceOnUse">
<stop stop-color="#FEBBBA"/>
<stop offset="1" stop-color="#FF928E"/>
</linearGradient>
<linearGradient id="paint44_linear" x1="479.32" y1="23.7489" x2="461.968" y2="88.3637" gradientUnits="userSpaceOnUse">
<stop stop-color="#09005D"/>
<stop offset="1" stop-color="#1A0F91"/>
</linearGradient>
<linearGradient id="paint45_linear" x1="447.578" y1="128.409" x2="441.529" y2="111.028" gradientUnits="userSpaceOnUse">
<stop stop-color="#FEBBBA"/>
<stop offset="1" stop-color="#FF928E"/>
</linearGradient>
<linearGradient id="paint46_linear" x1="440.129" y1="157.808" x2="460.349" y2="130.248" gradientUnits="userSpaceOnUse">
<stop stop-color="#FF928E"/>
<stop offset="1" stop-color="#FE7062"/>
</linearGradient>
<linearGradient id="paint47_linear" x1="494.666" y1="133.927" x2="460.701" y2="153.665" gradientUnits="userSpaceOnUse">
<stop stop-color="#FEBBBA"/>
<stop offset="1" stop-color="#FF928E"/>
</linearGradient>
<linearGradient id="paint48_linear" x1="494.136" y1="130.038" x2="483.669" y2="142.808" gradientUnits="userSpaceOnUse">
<stop stop-color="#FEBBBA"/>
<stop offset="1" stop-color="#FF928E"/>
</linearGradient>
<linearGradient id="paint49_linear" x1="494.84" y1="133.728" x2="460.876" y2="153.466" gradientUnits="userSpaceOnUse">
<stop stop-color="#FEBBBA"/>
<stop offset="1" stop-color="#FF928E"/>
</linearGradient>
<linearGradient id="paint50_linear" x1="487.318" y1="163.49" x2="440.631" y2="135.52" gradientUnits="userSpaceOnUse">
<stop stop-color="#FEBBBA"/>
<stop offset="1" stop-color="#FF928E"/>
</linearGradient>
<linearGradient id="paint51_linear" x1="572.619" y1="10.7881" x2="378.801" y2="278.771" gradientUnits="userSpaceOnUse">
<stop stop-color="#E1473D"/>
<stop offset="1" stop-color="#E9605A"/>
</linearGradient>
<linearGradient id="paint52_linear" x1="570.602" y1="9.5631" x2="376.784" y2="277.546" gradientUnits="userSpaceOnUse">
<stop stop-color="#E1473D"/>
<stop offset="1" stop-color="#E9605A"/>
</linearGradient>
</defs>
</svg>
