<svg width="1492" height="300" viewBox="0 0 1492 300" fill="none" xmlns="http://www.w3.org/2000/svg">
<rect width="1492" height="300" fill="white"/>
<path d="M779.456 73.824V95.808C779.456 100.384 778.512 103.616 776.624 105.504C774.736 107.36 772 108.288 768.416 108.288C766.112 108.288 764.176 107.984 762.608 107.376C761.072 106.768 759.648 105.808 758.336 104.496L762.08 100.416C762.624 100.96 763.44 101.424 764.528 101.808C765.648 102.16 766.912 102.336 768.32 102.336C769.76 102.336 770.864 102 771.632 101.328C772.4 100.624 772.784 99.328 772.784 97.44V73.824H779.456ZM800.852 95.616V93.12C800.852 90.752 800.5 88.944 799.796 87.696C799.124 86.448 797.7 85.824 795.524 85.824C792.004 85.824 790.244 88.192 790.244 92.928V95.424C790.244 100.512 792.004 103.056 795.524 103.056C797.796 103.056 799.284 102.208 799.988 100.512C800.564 99.168 800.852 97.536 800.852 95.616ZM807.092 94.176C807.092 100.096 805.972 104.064 803.732 106.08C801.844 107.808 799.108 108.672 795.524 108.672C790.948 108.672 787.86 107.328 786.26 104.64C784.756 102.176 784.004 98.688 784.004 94.176C784.004 89.952 784.756 86.64 786.26 84.24C787.924 81.552 790.948 80.208 795.332 80.208C799.748 80.208 802.804 81.392 804.5 83.76C806.228 86.096 807.092 89.568 807.092 94.176ZM815.25 70.128C816.754 70.128 817.73 70.368 818.178 70.848C818.626 71.296 818.85 72.272 818.85 73.776C818.85 75.248 818.61 76.224 818.13 76.704C817.682 77.152 816.706 77.376 815.202 77.376C813.73 77.376 812.754 77.136 812.274 76.656C811.826 76.176 811.602 75.2 811.602 73.728C811.602 72.256 811.826 71.296 812.274 70.848C812.754 70.368 813.746 70.128 815.25 70.128ZM818.322 108H812.082V81.6H818.322V108ZM846.565 108H840.325V90.48C840.325 88.912 840.005 87.84 839.365 87.264C838.725 86.688 837.829 86.4 836.677 86.4L831.061 88.752V108H824.821V80.592H829.477L830.917 83.856L838.597 80.304C840.741 80.304 842.597 81.104 844.165 82.704C845.765 84.272 846.565 86.576 846.565 89.616V108ZM891.093 73.824V104.544C891.093 105.6 890.773 106.512 890.133 107.28C889.493 108.016 888.741 108.384 887.877 108.384C885.669 108.384 883.861 107.104 882.453 104.544L870.645 86.064V108H863.973V73.824H870.405L884.421 96.192V73.824H891.093ZM912.367 95.616V93.12C912.367 90.752 912.015 88.944 911.311 87.696C910.639 86.448 909.215 85.824 907.039 85.824C903.519 85.824 901.759 88.192 901.759 92.928V95.424C901.759 100.512 903.519 103.056 907.039 103.056C909.311 103.056 910.799 102.208 911.503 100.512C912.079 99.168 912.367 97.536 912.367 95.616ZM918.607 94.176C918.607 100.096 917.487 104.064 915.247 106.08C913.359 107.808 910.623 108.672 907.039 108.672C902.463 108.672 899.375 107.328 897.775 104.64C896.271 102.176 895.519 98.688 895.519 94.176C895.519 89.952 896.271 86.64 897.775 84.24C899.439 81.552 902.463 80.208 906.847 80.208C911.263 80.208 914.319 81.392 916.015 83.76C917.743 86.096 918.607 89.568 918.607 94.176ZM956.334 80.592L948.702 108H943.566L938.334 91.344L933.102 108H927.966L920.286 80.592H926.91L930.942 98.448L935.118 83.76C935.598 81.648 936.686 80.592 938.382 80.592C939.182 80.592 939.822 80.848 940.302 81.36C940.782 81.872 941.182 82.672 941.502 83.76L945.726 98.448L949.758 80.592H956.334ZM1003.91 80.592L996.28 108H991.144L985.912 91.344L980.68 108H975.544L967.864 80.592H974.488L978.52 98.448L982.696 83.76C983.176 81.648 984.264 80.592 985.96 80.592C986.76 80.592 987.4 80.848 987.88 81.36C988.36 81.872 988.76 82.672 989.08 83.76L993.304 98.448L997.336 80.592H1003.91ZM1010.77 70.128C1012.27 70.128 1013.25 70.368 1013.69 70.848C1014.14 71.296 1014.37 72.272 1014.37 73.776C1014.37 75.248 1014.13 76.224 1013.65 76.704C1013.2 77.152 1012.22 77.376 1010.72 77.376C1009.25 77.376 1008.27 77.136 1007.79 76.656C1007.34 76.176 1007.12 75.2 1007.12 73.728C1007.12 72.256 1007.34 71.296 1007.79 70.848C1008.27 70.368 1009.26 70.128 1010.77 70.128ZM1013.84 108H1007.6V81.6H1013.84V108ZM1032.53 108H1028.64C1026.27 108 1024.46 107.296 1023.22 105.888C1022 104.48 1021.39 102.8 1021.39 100.848V86.448H1018.75V81.696H1021.39V76.32H1027.63V81.696H1032.05V86.448H1027.63V100.464C1027.63 101.968 1028.35 102.72 1029.79 102.72H1032.53V108ZM1058.86 108H1052.62V90.816C1052.62 87.872 1051.47 86.4 1049.16 86.4L1043.21 88.752V108H1036.97V71.904H1043.21V83.856L1051.13 80.304C1053.95 80.304 1055.93 81.104 1057.08 82.704C1058.27 84.304 1058.86 86.544 1058.86 89.424V108ZM1091.01 95.616V93.12C1091.01 90.752 1090.66 88.944 1089.95 87.696C1089.28 86.448 1087.86 85.824 1085.68 85.824C1082.16 85.824 1080.4 88.192 1080.4 92.928V95.424C1080.4 100.512 1082.16 103.056 1085.68 103.056C1087.95 103.056 1089.44 102.208 1090.14 100.512C1090.72 99.168 1091.01 97.536 1091.01 95.616ZM1097.25 94.176C1097.25 100.096 1096.13 104.064 1093.89 106.08C1092 107.808 1089.26 108.672 1085.68 108.672C1081.1 108.672 1078.02 107.328 1076.42 104.64C1074.91 102.176 1074.16 98.688 1074.16 94.176C1074.16 89.952 1074.91 86.64 1076.42 84.24C1078.08 81.552 1081.1 80.208 1085.49 80.208C1089.9 80.208 1092.96 81.392 1094.66 83.76C1096.38 86.096 1097.25 89.568 1097.25 94.176ZM1122.73 108H1118.08L1116.64 104.736L1108.96 108.288C1106.81 108.288 1104.94 107.504 1103.34 105.936C1101.77 104.336 1100.99 102.016 1100.99 98.976V80.592H1107.23V97.632C1107.23 100.672 1108.45 102.192 1110.88 102.192L1116.49 99.168V80.592H1122.73V108ZM1144.3 80.688L1142.57 86.832C1142.09 86.64 1141.55 86.544 1140.94 86.544C1139.34 86.544 1137.37 87.232 1135.03 88.608V108H1128.79V80.592H1133.45L1134.89 82.992L1141.51 80.256C1141.83 80.224 1142.27 80.208 1142.81 80.208C1143.35 80.208 1143.85 80.368 1144.3 80.688ZM783.536 141.8C785.52 143.752 786.512 146.632 786.512 150.44C786.512 154.248 785.52 157.144 783.536 159.128C781.584 161.08 778.816 162.056 775.232 162.056H768.656V173H761.984V138.824H775.232C778.816 138.824 781.584 139.816 783.536 141.8ZM779.84 150.44C779.84 146.664 778.192 144.776 774.896 144.776H768.656V156.056H774.896C776.496 156.056 777.712 155.624 778.544 154.76C779.408 153.896 779.84 152.456 779.84 150.44ZM811.661 173H795.293C793.885 173 792.685 172.712 791.693 172.136C790.701 171.56 790.205 170.6 790.205 169.256C790.205 168.136 790.605 167.048 791.405 165.992C791.693 165.64 792.173 165.096 792.845 164.36L797.981 158.648C799.453 157.176 800.621 155.848 801.485 154.664C802.349 153.448 802.989 152.536 803.405 151.928C803.821 151.32 804.141 150.792 804.365 150.344C804.909 149.256 805.181 148.328 805.181 147.56C805.181 146.792 804.877 146.04 804.269 145.304C803.693 144.536 802.621 144.152 801.053 144.152C799.517 144.152 798.445 144.6 797.837 145.496C797.261 146.392 796.973 147.656 796.973 149.288H790.685C790.685 147.656 790.813 146.264 791.069 145.112C791.325 143.928 791.821 142.808 792.557 141.752C793.997 139.608 796.973 138.536 801.485 138.536C804.845 138.536 807.437 139.224 809.261 140.6C811.085 141.976 811.997 143.944 811.997 146.504C811.997 148.072 811.629 149.704 810.893 151.4C810.189 153.064 809.437 154.408 808.637 155.432C807.837 156.456 806.893 157.592 805.805 158.84C804.717 160.088 804.077 160.84 803.885 161.096L798.461 167.384H811.661V173ZM839.974 141.8C841.958 143.752 842.95 146.632 842.95 150.44C842.95 154.248 841.958 157.144 839.974 159.128C838.022 161.08 835.254 162.056 831.67 162.056H825.094V173H818.422V138.824H831.67C835.254 138.824 838.022 139.816 839.974 141.8ZM836.278 150.44C836.278 146.664 834.63 144.776 831.334 144.776H825.094V156.056H831.334C832.934 156.056 834.15 155.624 834.982 154.76C835.846 153.896 836.278 152.456 836.278 150.44ZM882.758 162.92C882.758 166.152 881.574 168.696 879.206 170.552C876.838 172.376 873.814 173.288 870.134 173.288C867.222 173.288 864.406 172.488 861.686 170.888C860.342 170.056 859.238 168.888 858.374 167.384C857.51 165.848 857.078 164.104 857.078 162.152L863.126 161.864C863.126 163.592 863.862 164.936 865.334 165.896C866.806 166.856 868.438 167.336 870.23 167.336C874.23 167.336 876.23 165.928 876.23 163.112C876.23 160.808 874.87 159.448 872.15 159.032L866.582 158.456C863.798 158.04 861.59 157.048 859.958 155.48C858.326 153.912 857.51 151.656 857.51 148.712C857.51 145.768 858.678 143.336 861.014 141.416C863.35 139.496 866.294 138.536 869.846 138.536C873.43 138.536 876.31 139.448 878.486 141.272C880.662 143.064 881.75 145.384 881.75 148.232L875.798 148.52C875.254 145.736 873.382 144.344 870.182 144.344C868.23 144.344 866.694 144.76 865.574 145.592C864.486 146.424 863.942 147.416 863.942 148.568C863.942 149.688 864.342 150.584 865.142 151.256C865.942 151.896 866.934 152.296 868.118 152.456L873.59 153.032C879.702 153.864 882.758 157.16 882.758 162.92ZM908.766 173H902.526V155.816C902.526 152.872 901.374 151.4 899.07 151.4L893.118 153.752V173H886.878V136.904H893.118V148.856L901.038 145.304C903.854 145.304 905.838 146.104 906.99 147.704C908.174 149.304 908.766 151.544 908.766 154.424V173ZM929.758 160.616V158.12C929.758 155.752 929.406 153.944 928.702 152.696C928.03 151.448 926.606 150.824 924.43 150.824C920.91 150.824 919.15 153.192 919.15 157.928V160.424C919.15 165.512 920.91 168.056 924.43 168.056C926.702 168.056 928.19 167.208 928.894 165.512C929.47 164.168 929.758 162.536 929.758 160.616ZM935.998 159.176C935.998 165.096 934.878 169.064 932.638 171.08C930.75 172.808 928.014 173.672 924.43 173.672C919.854 173.672 916.766 172.328 915.166 169.64C913.662 167.176 912.91 163.688 912.91 159.176C912.91 154.952 913.662 151.64 915.166 149.24C916.83 146.552 919.854 145.208 924.238 145.208C928.654 145.208 931.71 146.392 933.406 148.76C935.134 151.096 935.998 154.568 935.998 159.176ZM962.876 158.552C962.876 165.688 961.036 170.248 957.356 172.232C955.852 173.032 954.012 173.432 951.836 173.432L947.228 170.456V181.16H940.988V145.784H953.276C956.988 145.784 959.516 146.84 960.86 148.952C962.204 151.032 962.876 154.232 962.876 158.552ZM956.636 159.512C956.636 154.104 954.908 151.4 951.452 151.4H947.228V164.12L951.452 166.856C953.308 166.856 954.636 166.28 955.436 165.128C956.236 163.944 956.636 162.072 956.636 159.512ZM989.736 158.552C989.736 165.688 987.896 170.248 984.216 172.232C982.712 173.032 980.872 173.432 978.696 173.432L974.088 170.456V181.16H967.848V145.784H980.136C983.848 145.784 986.376 146.84 987.72 148.952C989.064 151.032 989.736 154.232 989.736 158.552ZM983.496 159.512C983.496 154.104 981.768 151.4 978.312 151.4H974.088V164.12L978.312 166.856C980.168 166.856 981.496 166.28 982.296 165.128C983.096 163.944 983.496 162.072 983.496 159.512ZM997.875 135.128C999.379 135.128 1000.36 135.368 1000.8 135.848C1001.25 136.296 1001.48 137.272 1001.48 138.776C1001.48 140.248 1001.24 141.224 1000.76 141.704C1000.31 142.152 999.331 142.376 997.827 142.376C996.355 142.376 995.379 142.136 994.899 141.656C994.451 141.176 994.227 140.2 994.227 138.728C994.227 137.256 994.451 136.296 994.899 135.848C995.379 135.368 996.371 135.128 997.875 135.128ZM1000.95 173H994.707V146.6H1000.95V173ZM1029.19 173H1022.95V155.48C1022.95 153.912 1022.63 152.84 1021.99 152.264C1021.35 151.688 1020.45 151.4 1019.3 151.4L1013.69 153.752V173H1007.45V145.592H1012.1L1013.54 148.856L1021.22 145.304C1023.37 145.304 1025.22 146.104 1026.79 147.704C1028.39 149.272 1029.19 151.576 1029.19 154.616V173ZM1048.88 145.784L1055.12 145.4V171.752C1055.12 174.792 1054.26 177.112 1052.53 178.712C1050.83 180.344 1048.31 181.16 1044.95 181.16C1042.35 181.16 1040.08 180.648 1038.13 179.624C1037.11 179.112 1036.29 178.344 1035.68 177.32C1035.07 176.296 1034.77 175.08 1034.77 173.672L1040.58 173.384C1040.58 174.28 1040.9 174.92 1041.54 175.304C1042.18 175.688 1043.27 175.88 1044.8 175.88C1046.37 175.88 1047.43 175.496 1047.97 174.728C1048.55 173.96 1048.83 172.856 1048.83 171.416L1049.07 167.288L1042.35 170.888C1038.67 170.888 1036.19 169.64 1034.91 167.144C1033.76 164.936 1033.19 162.232 1033.19 159.032C1033.19 155.224 1033.47 152.536 1034.05 150.968C1034.66 149.24 1035.52 147.992 1036.64 147.224C1038.08 146.264 1039.97 145.784 1042.31 145.784H1048.88ZM1048.88 161.864V151.4H1044.13C1042.34 151.4 1041.11 152.008 1040.43 153.224C1039.76 154.44 1039.43 156.136 1039.43 158.312C1039.43 160.488 1039.76 162.04 1040.43 162.968C1041.14 163.864 1042.37 164.312 1044.13 164.312L1048.88 161.864ZM784.496 209.776H772.448C771.04 209.776 770.048 210.048 769.472 210.592C768.928 211.136 768.656 212.08 768.656 213.424V218.176H781.184L780.704 224.128H768.656V238H761.984V210.784C761.984 208.256 762.528 206.464 763.616 205.408C764.736 204.352 766.64 203.824 769.328 203.824H784.496V209.776ZM808.681 238H804.505L802.585 234.688L795.913 238.288C792.201 238.288 789.705 236.944 788.425 234.256C787.785 232.944 787.337 231.536 787.081 230.032C786.857 228.496 786.745 226.912 786.745 225.28C786.745 223.616 786.761 222.4 786.793 221.632C786.825 220.832 786.905 219.92 787.033 218.896C787.161 217.84 787.337 216.96 787.561 216.256C787.817 215.552 788.169 214.832 788.617 214.096C789.065 213.328 789.609 212.72 790.249 212.272C791.689 211.28 793.561 210.784 795.865 210.784H802.441L808.681 210.4V238ZM802.441 229.264V216.4H797.689C795.929 216.4 794.697 217.072 793.993 218.416C793.321 219.76 792.985 221.776 792.985 224.464C792.985 227.12 793.305 228.992 793.945 230.08C794.617 231.168 795.865 231.712 797.689 231.712L802.441 229.264ZM850.785 238H844.545V220.96C844.545 219.264 844.337 218.08 843.921 217.408C843.537 216.736 842.849 216.4 841.857 216.4L836.241 218.752V238H830.001V220.96C830.001 217.92 828.945 216.4 826.833 216.4L821.697 218.752V238H815.457V210.592H820.113L821.553 213.856L828.753 210.304C831.249 210.304 833.137 211.52 834.417 213.952L843.345 210.304C845.841 210.304 847.697 211.152 848.913 212.848C850.161 214.512 850.785 216.768 850.785 219.616V238ZM860.672 200.128C862.176 200.128 863.152 200.368 863.6 200.848C864.048 201.296 864.272 202.272 864.272 203.776C864.272 205.248 864.032 206.224 863.552 206.704C863.104 207.152 862.128 207.376 860.624 207.376C859.152 207.376 858.176 207.136 857.696 206.656C857.248 206.176 857.024 205.2 857.024 203.728C857.024 202.256 857.248 201.296 857.696 200.848C858.176 200.368 859.168 200.128 860.672 200.128ZM863.744 238H857.504V211.6H863.744V238ZM876.723 238L870.483 238.048V201.904H876.723V238ZM903.442 210.592L893.026 241.072C892.546 242.448 891.922 243.52 891.154 244.288C889.874 245.568 888.082 246.208 885.778 246.208H882.85V240.592H884.77C885.666 240.592 886.322 240.432 886.738 240.112C887.186 239.824 887.57 239.232 887.89 238.336L888.37 236.992L880.114 210.592H886.69L891.586 229.648L896.866 210.592H903.442Z" fill="black"/>
<path d="M1423.31 299.997L1416.24 292.847C1409.17 285.647 1395.03 271.347 1377.65 257.097C1360.38 242.847 1339.77 228.647 1344.82 214.398C1349.87 200.148 1380.58 185.848 1382.91 171.498C1385.23 157.148 1359.37 142.848 1343.21 128.499C1327.05 114.149 1320.58 99.8489 1328.16 85.599C1335.73 71.3492 1357.35 57.1494 1362.91 42.8995C1368.46 28.6497 1357.96 14.3498 1352.8 7.14992L1347.55 0H1492V7.14992C1492 14.3498 1492 28.6497 1492 42.8995C1492 57.1494 1492 71.3492 1492 85.599C1492 99.8489 1492 114.149 1492 128.499C1492 142.848 1492 157.148 1492 171.498C1492 185.848 1492 200.148 1492 214.398C1492 228.647 1492 242.847 1492 257.097C1492 271.347 1492 285.647 1492 292.847V299.997H1423.31Z" fill="#F03F33"/>
<path d="M68.6888 300L75.7597 292.85C82.8306 285.65 96.9725 271.35 114.347 257.1C131.62 242.85 152.227 228.65 147.176 214.4C142.125 200.15 111.417 185.85 109.094 171.5C106.771 157.15 132.63 142.85 148.792 128.5C164.954 114.15 171.419 99.85 163.843 85.6C156.267 71.35 134.65 57.15 129.095 42.9C123.539 28.65 134.044 14.35 139.196 7.15L144.449 0H-5.06803e-07V7.15C-5.06803e-07 14.35 -5.06803e-07 28.65 -5.06803e-07 42.9C-5.06803e-07 57.15 -5.06803e-07 71.35 -5.06803e-07 85.6C-5.06803e-07 99.85 -5.06803e-07 114.15 -5.06803e-07 128.5C-5.06803e-07 142.85 -5.06803e-07 157.15 -5.06803e-07 171.5C-5.06803e-07 185.85 -5.06803e-07 200.15 -5.06803e-07 214.4C-5.06803e-07 228.65 -5.06803e-07 242.85 -5.06803e-07 257.1C-5.06803e-07 271.35 -5.06803e-07 285.65 -5.06803e-07 292.85V300H68.6888Z" fill="#F03F33"/>
<path d="M729 283.874C729 288.497 661.396 292.245 578 292.245C494.605 292.245 427 288.497 427 283.874C427 279.25 494.605 275.502 578 275.502C661.396 275.502 729 279.25 729 283.874ZM561.163 61.4589C549.215 18.1136 495.371 4.1506 464.514 36.5448C464.067 37.0139 463.624 37.4868 463.185 37.9635C418.946 86.0527 439.845 204.56 532.17 234.596C624.495 264.632 720.526 209.783 725.921 160.752C731.316 111.72 688.721 96.3138 622.62 110.024C585.274 117.77 568.602 88.4412 561.163 61.4589" fill="#FACCC1"/>
<path d="M641.864 71.7461C629.907 75.4395 628.023 86.7511 638.54 93.1264C642.016 95.2343 646.768 96.7259 653.267 96.8955C678.025 97.5444 689.377 85.0517 677.746 72.5194C670.568 64.784 653.714 68.0852 641.864 71.7461ZM454.343 185.566C444.82 177.446 434.259 181.912 434.506 194.208C434.587 198.272 435.873 203.085 439.21 208.665C451.92 229.921 468.549 232.818 472.905 216.284C475.593 206.079 463.78 193.615 454.343 185.566V185.566ZM666.912 229.791C656.028 235.969 656.619 247.42 668.26 251.387C672.107 252.699 677.07 253.134 683.453 251.904C707.772 247.218 716.175 232.578 702.123 222.837C693.45 216.825 677.699 223.67 666.912 229.791ZM703.923 209.004C700.417 213.952 703.142 219.832 709.167 220.055C711.158 220.128 713.455 219.568 716.026 217.914C725.819 211.612 726.402 202.643 718.066 199.791C712.921 198.03 707.398 204.1 703.923 209.004Z" fill="#FACCC1"/>
<path d="M486.625 223.212C486.631 223.092 487.258 211.147 491.8 207.264C492.859 206.359 494.017 205.989 495.343 206.132C503.117 206.974 503.319 223.112 503.32 223.275L504.74 223.266C504.736 222.549 504.524 205.697 495.496 204.72C493.785 204.532 492.23 205.027 490.876 206.185C485.869 210.467 485.231 222.628 485.207 223.143L486.625 223.212" fill="#E82B2A"/>
<path d="M507.722 221.804L473.384 221.659L466.493 281.524L514.834 281.726L507.722 221.804Z" fill="#F03F33"/>
<path d="M503.079 249.91C503.079 256.049 498.102 261.026 491.964 261.026C485.825 261.026 480.848 256.049 480.848 249.91C480.848 243.772 485.825 238.796 491.964 238.796C498.102 238.796 503.079 243.772 503.079 249.91Z" fill="#E82B2A"/>
<path d="M483.616 222.72C483.622 222.599 484.249 210.656 488.791 206.773C489.849 205.868 491.007 205.498 492.334 205.641C500.108 206.483 500.309 222.621 500.31 222.784L501.731 222.775C501.727 222.058 501.514 205.206 492.487 204.228C490.775 204.042 489.22 204.536 487.866 205.694C482.86 209.976 482.221 222.136 482.197 222.652L483.616 222.72" fill="#F03F33"/>
<path d="M514.833 281.726L518.715 277.383L510.919 224.341L507.722 221.804L514.833 281.726" fill="#E82B2A"/>
<path d="M462.037 225.423C462.043 225.303 462.67 213.359 467.212 209.475C468.27 208.571 469.429 208.201 470.755 208.344C478.529 209.186 478.73 225.324 478.731 225.486L480.152 225.478C480.147 224.761 479.935 207.908 470.908 206.931C469.196 206.745 467.642 207.239 466.288 208.397C461.28 212.679 460.643 224.84 460.618 225.355L462.037 225.423" fill="#4C3499"/>
<path d="M483.133 224.015L448.796 223.87L441.904 283.735L490.245 283.937L483.133 224.015Z" fill="#573D9F"/>
<path d="M475.71 252.631C475.71 258.77 470.734 263.746 464.595 263.746C458.456 263.746 453.48 258.77 453.48 252.631C453.48 246.493 458.456 241.516 464.595 241.516C470.734 241.516 475.71 246.493 475.71 252.631Z" fill="#4C3499"/>
<path d="M459.027 224.931C459.033 224.811 459.66 212.868 464.202 208.984C465.261 208.079 466.419 207.709 467.746 207.852C475.52 208.694 475.721 224.833 475.722 224.995L477.143 224.985C477.138 224.269 476.926 207.417 467.898 206.44C466.186 206.253 464.632 206.748 463.278 207.905C458.271 212.188 457.633 224.348 457.608 224.864L459.027 224.931" fill="#573D9F"/>
<path d="M490.245 283.937L494.127 279.593L486.33 226.552L483.134 224.015L490.245 283.937" fill="#4C3499"/>
<path d="M639.987 138.188L641.743 138.767L642.674 139.074L645.313 139.944C645.313 139.944 684.616 108.151 674.544 89.2122C671.444 83.3818 662.071 83.743 656.814 103.235C651.941 121.304 639.987 138.188 639.987 138.188" fill="#D32430"/>
<path d="M641.743 138.767L642.674 139.074C650.57 130.761 656.663 120.938 660.505 113.879C665.067 105.497 667.53 99.0944 667.554 99.0301C667.575 98.9759 667.585 98.918 667.583 98.8599C667.582 98.8017 667.569 98.7445 667.545 98.6913C667.521 98.6382 667.487 98.5904 667.445 98.5505C667.403 98.5106 667.353 98.4795 667.299 98.459C667.244 98.438 667.186 98.4279 667.128 98.4294C667.07 98.4308 667.013 98.4437 666.96 98.4674C666.907 98.491 666.859 98.5249 666.819 98.5672C666.779 98.6094 666.747 98.6591 666.727 98.7134C666.701 98.7778 664.255 105.136 659.719 113.468C655.858 120.56 649.709 130.463 641.743 138.767" fill="#962127"/>
<path d="M519.783 71.639L517.933 71.6736L516.953 71.692L514.175 71.7429C514.175 71.7429 486.019 29.7577 501.236 14.6403C505.921 9.98624 514.768 13.1 514.032 33.2758C513.35 51.9778 519.783 71.639 519.783 71.639Z" fill="#D32430"/>
<path d="M517.934 71.6738L516.953 71.6921C511.866 61.4176 508.947 50.2319 507.362 42.3537C505.48 32.9989 505.018 26.1534 505.014 26.0849C504.998 25.841 505.183 25.6296 505.427 25.6148C505.672 25.5985 505.883 25.783 505.898 26.0269C505.903 26.0955 506.361 32.8935 508.235 42.1933C509.829 50.1103 512.776 61.3865 517.934 71.6738" fill="#962127"/>
<path d="M528.773 78.185L526.546 79.6709L525.365 80.4591L522.019 82.6907C522.019 82.6907 454.907 53.4958 461.652 23.1826C463.727 13.851 476.946 10.7379 491.804 35.9079C505.577 59.2392 528.773 78.185 528.773 78.185" fill="#F03F33"/>
<path d="M526.546 79.671L525.365 80.4592C511.139 71.9074 498.845 60.5506 490.761 52.184C481.161 42.2495 475.252 34.2653 475.194 34.1854C474.983 33.9005 475.044 33.4983 475.33 33.289C475.615 33.0784 476.017 33.1392 476.227 33.4233C476.286 33.5039 482.154 41.433 491.699 51.3074C499.825 59.7137 512.225 71.1588 526.546 79.671" fill="#D32430"/>
<path d="M630.87 144.303L632.804 146.153L633.83 147.135L636.737 149.915C636.737 149.915 707.903 132.839 706.536 101.815C706.114 92.2644 693.639 86.8999 674.629 109.101C657.007 129.681 630.87 144.303 630.87 144.303" fill="#F03F33"/>
<path d="M632.804 146.154L633.83 147.135C649.326 141.189 663.408 132.143 672.825 125.311C684.007 117.198 691.215 110.363 691.285 110.294C691.543 110.05 691.553 109.644 691.307 109.388C691.063 109.131 690.656 109.12 690.401 109.364C690.328 109.433 683.171 116.22 672.053 124.283C662.589 131.149 648.387 140.262 632.804 146.154" fill="#D32430"/>
<path d="M526.521 175.677C526.629 176.414 526.738 177.221 526.839 178.084V178.086C527.897 187.138 528.143 202.463 519.046 208.59C519.046 208.59 514.819 178.29 492.855 177.501C470.89 176.711 470.639 168.925 467.477 155.992C464.314 143.058 467.795 139.202 450.302 132.033C432.809 124.864 429.426 106.468 429.426 106.468C429.426 106.468 449.001 122.123 462.795 117.946C476.588 113.768 482.939 124.596 485.305 133.451C487.67 142.305 499.584 139.342 507.56 142.23C515.536 145.118 525.691 171.083 525.691 171.083C525.691 171.083 526.105 172.865 526.521 175.677" fill="#F03F33"/>
<path d="M526.521 175.677C526.629 176.414 526.738 177.22 526.839 178.083C524 174.327 520.824 171.442 518.054 169.34C511.493 164.363 503.545 161.146 497.311 160.943C487.388 160.623 480.156 153.459 473.867 137.71C470.217 128.569 458.611 126.386 458.493 126.367C458.154 126.305 457.928 125.981 457.989 125.644C458.05 125.304 458.374 125.077 458.712 125.138C459.216 125.228 471.115 127.455 475.025 137.246C481.105 152.47 487.991 159.396 497.352 159.698C503.928 159.911 511.949 163.143 518.808 168.346C521.231 170.184 523.961 172.609 526.521 175.677" fill="#D32430"/>
<path d="M622.608 229.996C622.643 230.741 622.692 231.553 622.758 232.42V232.422C623.456 241.509 626.154 256.597 636.258 260.865C636.258 260.865 634.595 230.317 656 225.33C677.405 220.342 676.158 212.653 676.781 199.353C677.405 186.052 673.248 182.936 689.042 172.545C704.836 162.154 704.628 143.451 704.628 143.451C704.628 143.451 688.419 162.571 674.08 161.115C659.74 159.66 655.584 171.505 654.961 180.65C654.337 189.793 642.076 189.17 634.802 193.534C627.529 197.898 622.542 225.33 622.542 225.33C622.542 225.33 622.478 227.158 622.608 229.996" fill="#F03F33"/>
<path d="M622.608 229.996C622.644 230.741 622.693 231.553 622.758 232.42C624.824 228.189 627.388 224.748 629.704 222.154C635.187 216.011 642.371 211.329 648.451 209.934C658.128 207.717 663.851 199.299 667.004 182.636C668.833 172.965 679.806 168.597 679.917 168.555C680.238 168.43 680.397 168.069 680.273 167.749C680.149 167.427 679.787 167.266 679.466 167.391C678.989 167.577 667.737 172.044 665.778 182.403C662.731 198.511 657.301 206.628 648.171 208.721C641.759 210.19 634.507 214.902 628.772 221.323C626.746 223.592 624.533 226.495 622.608 229.996" fill="#D32430"/>
<path d="M647.489 50.172V270.396C647.489 277.299 641.894 282.894 634.99 282.894H525.323C521.855 282.894 518.719 281.483 516.454 279.203C514.212 276.942 512.826 273.831 512.826 270.396V50.172C512.826 43.2686 518.42 37.6736 525.323 37.6736H634.99C637.031 37.6736 638.957 38.1621 640.66 39.0309C644.714 41.0971 647.489 45.3094 647.489 50.172Z" fill="#263445"/>
<path d="M647.489 50.172V270.396C647.489 277.299 641.894 282.894 634.99 282.894H525.323C521.855 282.894 518.719 281.483 516.454 279.203L640.66 39.0309C644.714 41.0971 647.489 45.3094 647.489 50.172V50.172ZM512.826 106.383H512.262C510.048 106.383 508.253 104.588 508.253 102.374V81.2988C508.253 79.0849 510.048 77.2901 512.262 77.2901H512.826V106.383ZM647.489 98.7715H647.949C649.76 98.7715 651.229 97.3026 651.229 95.4909V78.3603C651.229 76.5493 649.76 75.0804 647.949 75.0804H647.489V98.7715ZM512.826 139.426H512.262C510.048 139.426 508.253 137.631 508.253 135.417V114.341C508.253 112.127 510.048 110.332 512.262 110.332H512.826V139.426Z" fill="#16161E"/>
<path d="M641.252 49.415V271.149C641.252 274.196 638.784 276.656 635.745 276.656H524.567C522.291 276.656 520.34 275.278 519.498 273.305C519.216 272.641 519.06 271.913 519.06 271.149V49.415C519.06 46.3754 521.527 43.9084 524.567 43.9084H635.745C636.515 43.9084 637.243 44.0639 637.908 44.3467C639.873 45.1949 641.252 47.1459 641.252 49.415" fill="white"/>
<path d="M571.588 144.534H531.236C527.329 144.534 524.162 141.367 524.162 137.46V97.1081C524.162 93.2012 527.329 90.0344 531.236 90.0344H571.588C575.495 90.0344 578.662 93.2012 578.662 97.1081V137.46C578.662 141.367 575.495 144.534 571.588 144.534Z" fill="#FACCC1"/>
<path d="M559.871 108.56C559.871 108.56 557.497 105.129 555.514 105.203C553.531 105.277 537.856 116.877 532.594 117.698C527.333 118.518 528.214 122.402 529.104 124.401C529.994 126.401 570.822 125.106 570.822 125.106C570.822 125.106 572.361 113.019 571.159 109.265C569.957 105.511 563.928 109.58 559.871 108.56Z" fill="#F03F33"/>
<path d="M551.145 116.731C551.328 116.793 551.535 116.783 551.719 116.686C552.077 116.498 552.215 116.055 552.028 115.697C551.965 115.577 550.465 112.75 548.354 111.593C545.546 110.05 543.261 111.589 543.165 111.655C542.832 111.884 542.748 112.34 542.979 112.673C543.208 113.006 543.664 113.09 543.997 112.86C544.06 112.818 545.649 111.782 547.649 112.877C549.37 113.82 550.717 116.353 550.73 116.378C550.822 116.552 550.973 116.673 551.145 116.731" fill="white"/>
<path d="M553.398 114.745C553.581 114.807 553.788 114.797 553.973 114.7C554.331 114.512 554.469 114.07 554.281 113.711C554.219 113.592 552.718 110.764 550.608 109.606C547.798 108.062 545.515 109.601 545.419 109.669C545.086 109.898 545.003 110.354 545.232 110.687C545.461 111.02 545.918 111.104 546.251 110.873C546.314 110.832 547.904 109.796 549.903 110.891C551.63 111.838 552.971 114.366 552.983 114.392C553.075 114.565 553.226 114.687 553.398 114.745V114.745ZM548.128 118.302C548.312 118.364 548.518 118.353 548.703 118.257C549.062 118.069 549.199 117.626 549.012 117.267C548.949 117.148 547.449 114.32 545.338 113.163C542.528 111.619 540.245 113.158 540.149 113.224C539.816 113.455 539.732 113.911 539.963 114.243C540.192 114.576 540.649 114.661 540.981 114.43C541.044 114.388 542.635 113.353 544.634 114.447C546.361 115.394 547.701 117.922 547.714 117.948C547.805 118.122 547.957 118.244 548.128 118.302" fill="white"/>
<path d="M629.226 144.534H588.873C584.966 144.534 581.799 141.367 581.799 137.46V97.1081C581.799 93.2012 584.966 90.0344 588.873 90.0344H629.226C633.133 90.0344 636.3 93.2012 636.3 97.1081V137.46C636.3 141.367 633.133 144.534 629.226 144.534Z" fill="#FACCC1"/>
<path d="M628.742 111.401H621.363V135.776H596.621L596.698 111.401H589.356C590.822 106.552 593.517 103.115 595.213 101.311C596.09 100.379 597.314 99.8545 598.594 99.8545H603.393C603.393 102.946 605.901 105.452 608.993 105.452C612.084 105.452 614.59 102.946 614.59 99.8545H619.504C620.784 99.8545 622.009 100.379 622.885 101.311C624.581 103.115 627.277 106.552 628.742 111.401Z" fill="#573D9F"/>
<path d="M571.588 259.845H531.236C527.329 259.845 524.162 256.677 524.162 252.77V212.418C524.162 208.511 527.329 205.344 531.236 205.344H571.588C575.495 205.344 578.662 208.511 578.662 212.418V252.77C578.662 256.677 575.495 259.845 571.588 259.845V259.845ZM629.225 259.845H588.873C584.965 259.845 581.799 256.677 581.799 252.77V212.418C581.799 208.511 584.965 205.344 588.873 205.344H629.225C633.132 205.344 636.3 208.511 636.3 212.418V252.77C636.3 256.677 633.132 259.845 629.225 259.845V259.845ZM632.916 81.1585H527.545C525.676 81.1585 524.162 79.6437 524.162 77.7754V68.6608C524.162 66.7933 525.676 65.2784 527.545 65.2784H632.916C634.785 65.2784 636.3 66.7933 636.3 68.6608V77.7754C636.3 79.6437 634.785 81.1585 632.916 81.1585ZM634.961 159.692H525.5C524.761 159.692 524.162 159.093 524.162 158.353V154.107C524.162 153.367 524.761 152.768 525.5 152.768H634.961C635.7 152.768 636.3 153.367 636.3 154.107V158.353C636.3 159.093 635.7 159.692 634.961 159.692ZM634.961 174.689H525.5C524.761 174.689 524.162 174.089 524.162 173.351V169.104C524.162 168.365 524.761 167.766 525.5 167.766H634.961C635.7 167.766 636.3 168.365 636.3 169.104V173.351C636.3 174.089 635.7 174.689 634.961 174.689ZM634.961 189.687H525.5C524.761 189.687 524.162 189.087 524.162 188.348V184.102C524.162 183.362 524.761 182.763 525.5 182.763H634.961C635.7 182.763 636.3 183.362 636.3 184.102V188.348C636.3 189.087 635.7 189.687 634.961 189.687Z" fill="#FACCC1"/>
<path d="M612.393 54.9219H547.92C544.862 54.9219 542.361 52.4209 542.361 49.3644V47.8036C542.361 44.7463 544.862 42.2454 547.92 42.2454H612.393C615.45 42.2454 617.952 44.7463 617.952 47.8036V49.3644C617.952 52.4209 615.45 54.9219 612.393 54.9219Z" fill="#263445"/>
<path d="M598.303 49.3115H555.733C554.981 49.3115 554.366 48.6965 554.366 47.9444V47.5606C554.366 46.8092 554.981 46.1942 555.733 46.1942H598.303C599.054 46.1942 599.669 46.8092 599.669 47.5606V47.9444C599.669 48.6965 599.054 49.3115 598.303 49.3115Z" fill="#16161E"/>
<path d="M610.705 47.6491C610.705 48.6819 609.867 49.5195 608.835 49.5195C607.802 49.5195 606.965 48.6819 606.965 47.6491C606.965 46.6164 607.802 45.7787 608.835 45.7787C609.867 45.7787 610.705 46.6164 610.705 47.6491Z" fill="#384F64"/>
<path d="M635.745 276.656H524.566C522.29 276.656 520.339 275.278 519.498 273.305L527.136 258.537C528.292 259.36 529.708 259.845 531.236 259.845H571.588C575.495 259.845 578.662 256.678 578.662 252.771V212.418C578.662 208.511 575.495 205.345 571.588 205.345H554.645L562.743 189.687H634.961C635.7 189.687 636.3 189.088 636.3 188.348V184.102C636.3 183.363 635.7 182.763 634.961 182.763H566.323L570.499 174.689H634.961C635.7 174.689 636.3 174.09 636.3 173.351V169.105C636.3 168.365 635.7 167.766 634.961 167.766H574.079L578.255 159.692H634.961C635.7 159.692 636.3 159.093 636.3 158.354V154.107C636.3 153.368 635.7 152.768 634.961 152.768H581.836L586.336 144.066C587.124 144.369 587.979 144.534 588.873 144.534H629.225C633.132 144.534 636.3 141.368 636.3 137.461V97.1083C636.3 93.2014 633.132 90.0345 629.225 90.0345H614.279L618.87 81.1589H632.916C634.785 81.1589 636.3 79.6441 636.3 77.7758V68.6613C636.3 66.7937 634.785 65.2789 632.916 65.2789H627.083L637.908 44.3467C639.873 45.1949 641.251 47.1459 641.251 49.415V271.149C641.251 274.196 638.784 276.656 635.745 276.656ZM588.873 205.345C584.965 205.345 581.798 208.511 581.798 212.418V252.771C581.798 256.678 584.965 259.845 588.873 259.845H629.225C633.132 259.845 636.3 256.678 636.3 252.771V212.418C636.3 208.511 633.132 205.345 629.225 205.345H588.873Z" fill="white"/>
<path d="M629.225 144.534H588.873C587.979 144.534 587.124 144.369 586.336 144.066L596.658 124.108L596.621 135.776H621.363V111.401H628.742C627.276 106.552 624.581 103.114 622.885 101.311C622.009 100.379 620.784 99.8543 619.504 99.8543H614.59C614.59 102.946 612.084 105.451 608.993 105.451C608.131 105.451 607.315 105.257 606.587 104.91L614.28 90.0344H629.225C633.132 90.0344 636.3 93.2012 636.3 97.1081V137.46C636.3 141.367 633.132 144.534 629.225 144.534" fill="#FCDAD0"/>
<path d="M621.363 135.776H596.621L596.658 124.108L606.587 104.91C607.316 105.257 608.131 105.452 608.993 105.452C612.084 105.452 614.59 102.946 614.59 99.8545H619.504C620.784 99.8545 622.009 100.379 622.885 101.311C624.581 103.115 627.276 106.552 628.742 111.401H621.363V135.776" fill="#8160B6"/>
<path d="M571.588 259.845H531.236C529.708 259.845 528.293 259.36 527.136 258.536L554.645 205.344H571.588C575.495 205.344 578.662 208.511 578.662 212.418V252.77C578.662 256.677 575.495 259.845 571.588 259.845V259.845ZM629.225 259.845H588.873C584.965 259.845 581.799 256.677 581.799 252.77V212.418C581.799 208.511 584.965 205.344 588.873 205.344H629.225C633.132 205.344 636.3 208.511 636.3 212.418V252.77C636.3 256.677 633.132 259.845 629.225 259.845V259.845ZM632.916 81.1585H618.87L627.083 65.2784H632.916C634.785 65.2784 636.3 66.7933 636.3 68.6608V77.7754C636.3 79.6437 634.785 81.1585 632.916 81.1585ZM634.961 159.692H578.255L581.836 152.768H634.961C635.7 152.768 636.3 153.367 636.3 154.107V158.353C636.3 159.093 635.7 159.692 634.961 159.692V159.692ZM634.961 174.689H570.499L574.08 167.766H634.961C635.7 167.766 636.3 168.365 636.3 169.104V173.351C636.3 174.089 635.7 174.689 634.961 174.689ZM634.961 189.687H562.743L566.324 182.763H634.961C635.7 182.763 636.3 183.362 636.3 184.102V188.348C636.3 189.087 635.7 189.687 634.961 189.687" fill="#FCDAD0"/>
<path d="M657.221 84.9864C656.322 85.6226 655.085 85.1228 654.889 84.025C654.792 83.4815 655.033 82.9032 655.483 82.5844C656.383 81.9482 657.62 82.448 657.816 83.5458C657.913 84.0894 657.672 84.6676 657.221 84.9864ZM642.255 89.3153L652.099 111.756C652.737 113.211 654.435 113.874 655.891 113.235L678.332 103.392C679.788 102.753 680.451 101.056 679.812 99.6005L669.968 77.1591C669.329 75.7029 667.632 75.0406 666.176 75.6796L643.735 85.5229C642.28 86.1619 641.617 87.8592 642.255 89.3153" fill="#573D9F"/>
<path d="M668.483 95.0738C667.898 93.7406 667.287 93.5349 666.849 93.7272C666.412 93.9187 666.149 94.5083 666.733 95.8414C667.318 97.1739 667.93 97.3796 668.368 97.1874C668.804 96.9958 669.067 96.4063 668.483 95.0738V95.0738ZM663.909 97.0799C662.828 94.6136 663.798 92.5036 665.907 91.579C668.016 90.6544 670.225 91.369 671.307 93.8353C672.398 96.3207 671.418 98.411 669.31 99.3363C667.201 100.261 665 99.566 663.909 97.0799ZM655.401 92.9857C654.817 91.6539 654.205 91.4468 653.768 91.639C653.33 91.8306 653.066 92.4216 653.651 93.7533C654.236 95.0865 654.849 95.2915 655.286 95.0992C655.723 94.9077 655.986 94.3181 655.401 92.9857V92.9857ZM661.086 86.1049L664.448 84.6303L661.049 102.722L657.687 104.197L661.086 86.1049ZM650.826 94.9925C649.745 92.5269 650.718 90.4161 652.826 89.4915C654.934 88.5669 657.144 89.2809 658.225 91.7465C659.316 94.2333 658.336 96.3228 656.228 97.2474C654.12 98.1728 651.917 97.4793 650.826 94.9925Z" fill="white"/>
<path d="M647.486 79.207C639.949 69.8804 629.339 42.4386 627.531 37.6749L627.492 37.5717C627.651 37.6056 627.809 37.6389 627.967 37.6749H630.644C629.47 37.2798 628.25 36.9624 626.988 36.7397C626.859 36.7164 626.729 36.7638 626.645 36.8641C626.605 36.913 626.577 36.9718 626.567 37.0347C626.556 37.0976 626.562 37.1622 626.585 37.2218C626.613 37.2968 626.671 37.4501 626.754 37.6749C628.343 41.8929 639.581 71.2956 647.486 80.3267C648.223 81.1693 648.931 81.8338 649.6 82.2841C649.801 82.4208 650.005 82.553 650.212 82.6806L651.027 82.3251C650.696 82.1356 650.356 81.9207 650.005 81.6846C649.22 81.1566 648.375 80.3076 647.486 79.207V79.207ZM658.107 72.6132C656.597 65.4949 652.744 57.3898 647.797 50.9318C647.696 50.7982 647.591 50.6653 647.486 50.5303V51.792C652.621 58.6248 656.088 66.5878 657.398 72.7638C657.938 75.3107 658.116 77.5331 657.948 79.2883C657.818 80.6335 657.485 81.7037 656.954 82.4332C656.75 82.7146 656.518 82.945 656.257 83.1217C655.867 83.3833 655.41 83.5282 654.89 83.5572C654.852 83.7961 654.872 84.0463 654.96 84.2881C655.595 84.2464 656.162 84.0569 656.662 83.7205C656.988 83.502 657.274 83.22 657.523 82.8793C658.194 81.9688 658.589 80.6363 658.701 78.9582C658.82 77.1974 658.624 75.0541 658.107 72.6132" fill="#16161E"/>
<path d="M680.832 271.112L680.094 277.724C680.094 277.724 677.934 278.964 674.526 278.285L675.243 270.554L680.832 271.112" fill="#F68A85"/>
<path d="M676.137 277.533C676.137 277.533 675.052 275.966 674.146 276C673.24 276.034 666.077 281.334 663.673 281.709C661.269 282.084 661.672 283.858 662.079 284.772C662.486 285.686 681.141 285.094 681.141 285.094C681.141 285.094 681.844 279.571 681.295 277.855C680.746 276.14 677.99 277.999 676.137 277.533" fill="#F03F33"/>
<path d="M672.149 281.268C672.192 281.282 672.238 281.288 672.283 281.284C672.328 281.28 672.372 281.268 672.412 281.246C672.491 281.205 672.55 281.135 672.576 281.05C672.602 280.965 672.594 280.874 672.553 280.795C672.525 280.74 671.839 279.448 670.875 278.919C669.591 278.214 668.548 278.917 668.503 278.948C668.467 278.973 668.436 279.005 668.412 279.042C668.388 279.078 668.372 279.12 668.364 279.163C668.356 279.206 668.357 279.251 668.366 279.294C668.376 279.337 668.393 279.377 668.418 279.413C668.443 279.45 668.475 279.48 668.512 279.504C668.549 279.528 668.59 279.545 668.633 279.552C668.677 279.56 668.721 279.56 668.764 279.55C668.807 279.541 668.847 279.523 668.884 279.498C668.912 279.479 669.638 279.006 670.553 279.506C671.339 279.937 671.954 281.094 671.961 281.106C672 281.182 672.068 281.24 672.149 281.268Z" fill="white"/>
<path d="M673.179 280.359C673.222 280.374 673.268 280.38 673.313 280.376C673.358 280.373 673.402 280.36 673.442 280.339C673.605 280.253 673.668 280.051 673.583 279.887C673.555 279.832 672.869 278.541 671.905 278.012C670.62 277.307 669.578 278.01 669.533 278.04C669.497 278.065 669.466 278.097 669.442 278.134C669.418 278.171 669.402 278.212 669.394 278.255C669.386 278.298 669.387 278.343 669.396 278.386C669.406 278.428 669.423 278.469 669.448 278.505C669.473 278.541 669.505 278.572 669.542 278.596C669.579 278.62 669.62 278.637 669.663 278.645C669.706 278.653 669.751 278.652 669.794 278.643C669.837 278.634 669.877 278.616 669.913 278.591C669.942 278.572 670.669 278.098 671.582 278.599C672.372 279.032 672.983 280.186 672.99 280.198C673.03 280.274 673.098 280.332 673.179 280.359V280.359ZM670.772 281.985C670.814 282 670.86 282.005 670.905 282.002C670.95 281.998 670.994 281.986 671.034 281.965C671.113 281.923 671.172 281.853 671.198 281.768C671.225 281.683 671.216 281.591 671.175 281.512C671.146 281.458 670.461 280.166 669.496 279.637C668.212 278.932 667.169 279.635 667.126 279.665C667.089 279.69 667.058 279.722 667.034 279.759C667.01 279.796 666.994 279.837 666.986 279.88C666.978 279.923 666.979 279.968 666.988 280.011C666.997 280.054 667.015 280.094 667.04 280.13C667.065 280.167 667.097 280.198 667.134 280.222C667.171 280.245 667.212 280.262 667.255 280.27C667.299 280.277 667.343 280.277 667.386 280.267C667.429 280.258 667.47 280.24 667.506 280.215C667.534 280.197 668.261 279.723 669.174 280.224C669.964 280.656 670.576 281.811 670.582 281.823C670.622 281.9 670.69 281.958 670.772 281.985" fill="white"/>
<path d="M669.349 149.684C668.908 151.202 668.455 152.751 667.998 154.276C667.413 156.244 666.829 158.171 666.274 159.948C665.491 162.449 664.768 164.647 664.187 166.218C662.227 171.511 655.71 183.38 652.938 188.085L648.372 186.581C650.47 182.619 655.467 165.685 657.874 161.8L659.324 156.6L660.455 152.544L661.254 149.684H669.349Z" fill="#F68A85"/>
<path d="M644.39 195.008C643.961 195.359 643.333 195.42 642.834 195.09C642.581 194.922 642.395 194.672 642.306 194.383C642.217 194.093 642.231 193.782 642.346 193.501L644.134 189.143L644.137 189.142C643.724 188.12 644.322 186.964 645.404 186.719L649.606 185.769C649.606 185.769 652.715 186.056 653.322 187.235C653.708 187.983 652.684 189.984 651.885 191.347C652.137 191.902 652.153 192.565 651.897 193.157L650.805 195.677C650.481 196.425 649.559 196.698 648.88 196.247C648.741 196.154 648.627 196.038 648.535 195.908L648.518 195.945C648.195 196.693 647.273 196.966 646.594 196.515C646.507 196.458 646.434 196.389 646.365 196.317C645.948 196.573 645.4 196.59 644.955 196.295C644.523 196.008 644.314 195.502 644.39 195.008" fill="#F68A85"/>
<path d="M649.116 187.324C649.116 187.324 647.842 188.536 647.083 188.429C647.083 188.429 647.827 189.212 647.603 189.929C647.603 189.929 648.303 189.636 648.879 190.235C648.879 190.235 649.772 190.141 650.074 190.775C650.074 190.775 651.136 190.5 651.567 191.081C651.567 191.081 651.715 189.988 650.213 189.857C648.712 189.727 648.136 189.128 648.534 188.526C648.934 187.925 649.116 187.324 649.116 187.324V187.324ZM667.998 154.276C667.412 156.244 666.829 158.171 666.274 159.948C662.97 159.596 660.684 157.956 659.324 156.6L660.455 152.544L667.998 154.276Z" fill="#F3665C"/>
<path d="M669.737 125.891C669.737 125.891 661.279 146.022 657.643 152.544C657.643 152.544 662.729 156.875 667.686 156.996C667.686 156.996 670.559 134.89 669.737 125.891Z" fill="#4C3499"/>
<path d="M708.993 262.42L713.275 267.511C713.275 267.511 712.687 269.931 709.848 271.933L704.738 266.086L708.993 262.42Z" fill="#F68A85"/>
<path d="M710.412 270.247C710.412 270.247 708.529 269.953 707.929 270.634C707.33 271.314 706.237 280.156 704.852 282.157C703.468 284.158 705.031 285.089 705.974 285.423C706.916 285.758 719.34 271.828 719.34 271.828C719.34 271.828 715.821 267.515 714.199 266.731C712.578 265.947 712.028 269.224 710.412 270.247" fill="#F03F33"/>
<path d="M710.372 275.709C710.412 275.688 710.448 275.659 710.476 275.624C710.504 275.588 710.525 275.548 710.538 275.504C710.562 275.419 710.551 275.327 710.508 275.25C710.465 275.173 710.392 275.116 710.307 275.091C710.248 275.074 708.84 274.681 707.791 275.016C706.397 275.46 706.187 276.702 706.178 276.754C706.165 276.842 706.186 276.931 706.239 277.003C706.291 277.075 706.37 277.122 706.458 277.136C706.639 277.165 706.812 277.04 706.84 276.857C706.846 276.824 707.003 275.971 707.995 275.653C708.849 275.38 710.112 275.732 710.124 275.735C710.207 275.759 710.296 275.75 710.372 275.709" fill="white"/>
<path d="M710.423 274.338C710.501 274.296 710.563 274.225 710.589 274.134C710.601 274.091 710.605 274.047 710.6 274.004C710.595 273.96 710.581 273.918 710.56 273.879C710.538 273.841 710.509 273.807 710.475 273.78C710.44 273.752 710.401 273.732 710.358 273.72C710.299 273.703 708.89 273.31 707.843 273.644C706.447 274.089 706.238 275.329 706.23 275.382C706.223 275.426 706.224 275.47 706.235 275.513C706.245 275.556 706.264 275.596 706.29 275.631C706.316 275.667 706.348 275.697 706.386 275.72C706.423 275.743 706.465 275.758 706.509 275.765C706.552 275.771 706.596 275.77 706.639 275.76C706.682 275.749 706.722 275.731 706.758 275.705C706.793 275.679 706.823 275.646 706.846 275.609C706.869 275.571 706.884 275.53 706.891 275.486C706.898 275.452 707.054 274.6 708.047 274.282C708.904 274.008 710.163 274.36 710.175 274.364C710.258 274.388 710.347 274.378 710.423 274.338V274.338ZM709.942 277.203C709.982 277.182 710.017 277.153 710.046 277.118C710.074 277.083 710.096 277.042 710.108 276.999C710.132 276.913 710.122 276.822 710.078 276.744C710.035 276.667 709.963 276.609 709.878 276.585C709.818 276.568 708.41 276.175 707.362 276.509C705.966 276.954 705.757 278.194 705.749 278.247C705.742 278.291 705.744 278.335 705.754 278.378C705.764 278.421 705.783 278.461 705.809 278.496C705.834 278.532 705.867 278.562 705.905 278.585C705.942 278.608 705.984 278.623 706.027 278.63C706.071 278.637 706.115 278.635 706.158 278.624C706.201 278.614 706.241 278.596 706.276 278.57C706.312 278.544 706.342 278.511 706.365 278.474C706.388 278.436 706.403 278.394 706.41 278.351C706.416 278.317 706.574 277.465 707.566 277.147C708.423 276.873 709.682 277.225 709.695 277.229C709.777 277.252 709.866 277.243 709.942 277.203" fill="white"/>
<path d="M684.917 192.189L688.22 227.918C688.22 227.918 693.163 233.454 696.88 240.224C700 245.907 709.702 262.668 709.702 262.668L705.328 266.053L675.129 236.813L668.414 191.84L684.917 192.189Z" fill="#16161E"/>
<path d="M703.7 266.517C704.153 267.653 704.996 268.424 705.983 269.073L711.822 264.141C711.332 263.106 710.662 262.212 709.832 261.441L703.7 266.517V266.517ZM707.158 193.676C707.158 193.676 699.402 212.744 689.322 227.613C689.322 227.613 687.818 242.083 685.244 249.786C684.116 253.159 682.047 268.792 682.047 268.792H674.287L676.26 224.36L684.349 192.178L707.158 193.676Z" fill="#263445"/>
<path d="M673.576 268.53C673.09 269.859 673.225 271.176 673.576 272.497L682.426 272.745C682.802 271.473 682.913 270.183 682.791 268.876L673.576 268.53" fill="#3A505B"/>
<path d="M707.418 183.6C707.421 183.872 707.418 184.142 707.418 184.406C707.412 189.248 707.389 192.999 707.365 194.841C702.689 196.108 698.013 196.926 693.335 197.304C693.122 197.32 692.913 197.336 692.7 197.353C692.587 197.36 692.473 197.368 692.36 197.374C692.109 197.392 691.856 197.408 691.607 197.42C691.328 197.438 691.052 197.452 690.771 197.466C687.588 197.613 684.406 197.556 681.222 197.295C680.579 197.24 679.94 197.179 679.297 197.11L679.173 197.097C679.01 197.079 678.846 197.059 678.682 197.04C678.582 197.028 678.482 197.015 678.385 197.003C674.682 196.562 670.981 195.839 667.277 194.841C667.267 194.004 667.263 192.764 667.263 191.201C667.263 190.91 667.263 190.612 667.265 190.299V190.297C667.267 188.061 667.281 185.277 667.305 182.13C667.307 181.861 667.309 181.591 667.311 181.316C667.328 179.22 667.35 176.976 667.378 174.637C667.382 174.366 667.384 174.095 667.389 173.823C667.418 171.423 667.454 168.93 667.495 166.399C667.522 164.853 667.55 163.294 667.582 161.733C667.613 160.152 667.647 158.568 667.685 156.995C667.693 156.653 667.701 156.31 667.711 155.968C668.073 141.091 668.701 127.416 669.738 125.891C670.457 124.835 672.104 123.595 674.043 122.344C674.281 122.193 674.522 122.039 674.766 121.886C675.593 121.37 682.333 119.08 683.19 118.576L690.315 118.079L697.215 120.426C697.507 120.594 697.804 120.763 698.097 120.932C700.62 122.388 703.109 123.921 704.543 125.242C704.752 125.432 704.939 125.62 705.098 125.803C705.226 125.948 705.34 126.09 705.431 126.229C705.517 126.355 705.6 126.566 705.68 126.855C706.543 129.987 706.994 142.297 707.219 155.691C707.235 156.651 707.25 157.617 707.263 158.584C707.269 159.009 707.275 159.435 707.281 159.861C707.286 160.154 707.291 160.449 707.293 160.741L707.299 161.182C707.309 161.91 707.317 162.637 707.322 163.36C707.329 163.896 707.335 164.429 707.341 164.963C707.404 171.709 707.425 178.261 707.418 183.6" fill="#573D9F"/>
<path d="M720.16 202.73C720.335 204.632 718.019 203.6 718.674 199.746C719.327 195.893 717.472 192.405 716.671 192.517C715.868 192.63 717.334 196.724 716.622 198.2C715.91 199.675 714.99 196.807 714.074 195.069C713.124 193.263 713.18 189.322 713.612 186.51C714.044 183.696 708.946 166.613 708.921 161.662L708.299 159.564L706.025 151.879L702.465 139.845C702.465 139.845 704.598 130.737 708.194 131.519C708.194 131.519 710.098 137.863 712.133 145.019C712.477 146.233 712.826 147.472 713.171 148.707C714.62 153.894 715.982 159.015 716.615 162.055C718.288 170.078 718.418 186.755 718.418 186.755C718.418 186.755 721.368 192.882 721.438 195.609C721.512 198.516 719.986 200.828 720.16 202.73" fill="#F68A85"/>
<path d="M713.17 148.707L708.299 159.564L706.024 151.879L712.133 145.019C712.477 146.234 712.825 147.472 713.17 148.707Z" fill="#F3665C"/>
<path d="M713.412 145.473C711.275 149.137 709.102 152.781 706.937 156.431C706.225 154.044 705.486 151.751 704.793 149.644L704.787 149.629C704.51 148.787 704.24 147.974 703.981 147.198L703.966 147.157C703.877 146.884 703.789 146.616 703.7 146.353V146.351C702.666 143.226 701.866 140.743 701.636 139.295C701.019 135.398 702.702 127.763 705.072 126.258C705.134 126.395 705.32 125.971 705.431 126.23C705.848 127.192 707.696 129.568 708.611 131.882C708.728 132.176 708.847 132.483 708.971 132.796C710.295 136.199 711.914 140.626 713.412 145.473" fill="#573D9F"/>
<path d="M687.068 125.204C683.982 125.204 681.807 122.388 681.716 122.269C681.586 122.098 681.61 121.848 681.77 121.708C681.929 121.57 682.163 121.596 682.294 121.766C682.322 121.803 684.347 124.407 687.068 124.407C689.756 124.407 691.395 121.46 691.411 121.43C691.515 121.24 691.743 121.176 691.92 121.286C692.098 121.397 692.159 121.64 692.055 121.831C691.98 121.968 690.189 125.204 687.068 125.204ZM674.022 152.176L673.853 152.133C673.668 152.033 673.594 151.792 673.687 151.594L675.034 148.75C675.126 148.553 675.353 148.473 675.538 148.573C675.723 148.673 675.797 148.915 675.703 149.113L674.357 151.956C674.291 152.096 674.159 152.176 674.022 152.176V152.176ZM671.218 149.847L671.053 149.906C670.847 149.926 670.664 149.762 670.646 149.542L670.382 146.367C670.363 146.147 670.516 145.951 670.723 145.932C670.93 145.912 671.112 146.075 671.13 146.296L671.393 149.47C671.407 149.627 671.334 149.77 671.218 149.847V149.847ZM678.447 144.925C678.266 144.925 678.107 144.786 678.077 144.589L677.591 141.445C677.557 141.226 677.695 141.02 677.9 140.984C678.105 140.947 678.298 141.095 678.332 141.314L678.818 144.459C678.852 144.677 678.714 144.884 678.509 144.92L678.447 144.925V144.925ZM690.535 146.096C690.47 146.096 690.404 146.077 690.345 146.039C690.166 145.927 690.107 145.68 690.213 145.49L691.73 142.747C691.836 142.556 692.066 142.493 692.244 142.606C692.423 142.719 692.482 142.966 692.376 143.156L690.859 145.898C690.789 146.025 690.664 146.096 690.535 146.096V146.096ZM675.685 133.804C675.615 133.804 675.544 133.783 675.481 133.74L672.98 132.009C672.805 131.889 672.755 131.64 672.868 131.454C672.981 131.267 673.213 131.214 673.387 131.335L675.889 133.065C676.064 133.186 676.113 133.434 676.001 133.621C675.929 133.739 675.808 133.804 675.685 133.804V133.804ZM686.832 159.353L686.662 159.309C686.477 159.209 686.403 158.967 686.497 158.769L687.842 155.926C687.936 155.728 688.161 155.649 688.347 155.749C688.532 155.849 688.606 156.091 688.512 156.289L687.167 159.132C687.101 159.272 686.968 159.353 686.832 159.353V159.353ZM680.919 135.943C680.794 135.943 680.672 135.877 680.601 135.755C680.49 135.567 680.544 135.319 680.719 135.201L683.246 133.51C683.422 133.393 683.653 133.45 683.763 133.638C683.873 133.826 683.82 134.074 683.644 134.191L681.118 135.883C681.056 135.924 680.987 135.943 680.919 135.943ZM674.912 124.119C674.918 124.197 674.903 124.273 674.869 124.336C674.812 124.455 674.698 124.538 674.564 124.548C674.357 124.563 674.179 124.397 674.164 124.175L674.044 122.345C674.281 122.194 674.521 122.041 674.767 121.887L674.912 124.119ZM671.545 141.567C671.42 141.567 671.298 141.5 671.226 141.379C671.117 141.19 671.17 140.943 671.346 140.824L673.871 139.134C674.047 139.016 674.279 139.073 674.388 139.261C674.499 139.449 674.446 139.697 674.27 139.814L671.744 141.505C671.682 141.547 671.614 141.567 671.545 141.567ZM691.687 127.691C691.616 127.691 691.544 127.669 691.481 127.625C691.308 127.503 691.26 127.254 691.374 127.068L692.815 124.73C692.928 124.546 693.161 124.493 693.334 124.616C693.507 124.738 693.555 124.988 693.442 125.173L692.001 127.51C691.929 127.627 691.809 127.691 691.687 127.691V127.691ZM692.978 168.072C692.88 168.072 692.781 168.03 692.707 167.948L690.644 165.649C690.5 165.489 690.505 165.234 690.654 165.081C690.804 164.928 691.042 164.933 691.185 165.093L693.249 167.392C693.393 167.552 693.388 167.806 693.238 167.96C693.165 168.034 693.072 168.072 692.978 168.072ZM685.395 167.593C685.296 167.593 685.197 167.552 685.124 167.47L683.06 165.171C682.917 165.011 682.922 164.757 683.072 164.604C683.222 164.45 683.458 164.456 683.602 164.615L685.666 166.914C685.809 167.074 685.804 167.328 685.655 167.482C685.582 167.557 685.488 167.593 685.395 167.593V167.593ZM679.943 183.133C679.908 183.034 679.91 182.921 679.956 182.819L681.244 179.945C681.334 179.745 681.558 179.661 681.745 179.757C681.932 179.853 682.011 180.092 681.922 180.292L680.633 183.166C680.543 183.366 680.319 183.451 680.132 183.355C680.041 183.308 679.976 183.227 679.943 183.133V183.133ZM701.705 192.616C701.67 192.517 701.672 192.403 701.718 192.301L703.006 189.427C703.096 189.227 703.32 189.143 703.507 189.239C703.694 189.335 703.773 189.575 703.684 189.775L702.395 192.648C702.306 192.849 702.081 192.933 701.894 192.837C701.803 192.79 701.738 192.709 701.705 192.616V192.616ZM692.359 197.376C692.108 197.393 691.857 197.41 691.608 197.421L691.345 195.63C691.314 195.412 691.453 195.207 691.658 195.173C691.862 195.139 692.055 195.288 692.087 195.507L692.359 197.376V197.376ZM695.357 191.965C695.276 191.905 695.217 191.81 695.202 191.698L694.739 188.55C694.708 188.33 694.848 188.125 695.053 188.09C695.258 188.056 695.449 188.205 695.482 188.425L695.943 191.574C695.976 191.793 695.835 191.998 695.63 192.032C695.582 192.04 695.534 192.039 695.487 192.027C695.44 192.016 695.396 191.994 695.357 191.965V191.965ZM677.239 165.638C677.175 165.638 677.11 165.621 677.051 165.584C676.872 165.473 676.81 165.227 676.915 165.036L678.407 162.278C678.51 162.085 678.741 162.02 678.92 162.131C679.099 162.242 679.16 162.488 679.057 162.68L677.564 165.438C677.494 165.567 677.368 165.638 677.239 165.638V165.638ZM681.622 158.744C681.485 158.744 681.355 158.665 681.287 158.527L679.922 155.694C679.826 155.498 679.899 155.255 680.083 155.154C680.267 155.051 680.494 155.129 680.589 155.327L681.955 158.159C682.05 158.356 681.978 158.598 681.794 158.699L681.622 158.744V158.744ZM669.751 158.329L669.61 158.441C669.483 158.497 669.334 158.477 669.222 158.377L667.686 156.997C667.694 156.654 667.701 156.312 667.71 155.969L669.706 157.761C669.864 157.905 669.885 158.157 669.751 158.329V158.329ZM681.603 128.697C681.466 128.697 681.336 128.617 681.268 128.479L679.902 125.647C679.807 125.45 679.879 125.207 680.064 125.106C680.248 125.004 680.475 125.082 680.57 125.279L681.936 128.111C682.031 128.308 681.958 128.55 681.775 128.652L681.603 128.697ZM690.358 139.072L690.287 139.065C690.084 139.023 689.95 138.813 689.99 138.595L690.555 135.466C690.594 135.248 690.792 135.106 690.994 135.148C691.198 135.19 691.331 135.401 691.292 135.618L690.727 138.747C690.693 138.939 690.535 139.072 690.358 139.072V139.072ZM685.484 141.82L685.412 141.813C685.209 141.77 685.076 141.56 685.115 141.343L685.679 138.213C685.719 137.995 685.916 137.853 686.119 137.895C686.323 137.937 686.456 138.148 686.417 138.365L685.852 141.495C685.816 141.687 685.66 141.82 685.484 141.82V141.82ZM688.976 131.496C688.851 131.496 688.73 131.43 688.659 131.31L687.061 128.619C686.95 128.432 687.002 128.184 687.177 128.065C687.353 127.946 687.584 128.002 687.696 128.188L689.292 130.879C689.404 131.067 689.352 131.315 689.176 131.434C689.114 131.476 689.045 131.496 688.976 131.496ZM674.328 159.242C674.224 159.125 674.194 158.948 674.263 158.794L675.545 155.918C675.635 155.718 675.859 155.633 676.046 155.728C676.234 155.824 676.313 156.064 676.223 156.264L674.94 159.14C674.851 159.34 674.627 159.425 674.44 159.33L674.328 159.242ZM683.988 150.897C683.838 150.897 683.695 150.8 683.637 150.642L682.551 147.673C682.476 147.467 682.572 147.234 682.765 147.154C682.958 147.073 683.176 147.174 683.251 147.382L684.337 150.349C684.413 150.555 684.317 150.789 684.124 150.869L683.988 150.897ZM695.919 169.228L695.75 169.184C695.564 169.083 695.49 168.842 695.584 168.644L696.929 165.801C697.023 165.603 697.249 165.523 697.434 165.624C697.619 165.724 697.693 165.965 697.599 166.164L696.254 169.007C696.188 169.146 696.056 169.228 695.919 169.228ZM676.145 189.664L676.103 189.845C676.007 190.042 675.78 190.118 675.596 190.016L672.951 188.551C672.767 188.448 672.695 188.206 672.79 188.009C672.885 187.812 673.112 187.735 673.296 187.838L675.942 189.303C676.071 189.375 676.146 189.517 676.145 189.664V189.664ZM668.962 191.487L668.921 191.668C668.825 191.866 668.598 191.94 668.414 191.839L667.264 191.202C667.264 190.911 667.264 190.613 667.265 190.3L668.759 191.126C668.889 191.198 668.964 191.342 668.962 191.487ZM680.079 195.031L679.174 197.099C679.011 197.08 678.846 197.061 678.681 197.041C678.582 197.029 678.483 197.017 678.385 197.005L679.399 194.691C679.486 194.49 679.71 194.403 679.898 194.498C680.086 194.591 680.168 194.83 680.079 195.031ZM700.802 161.976C700.621 161.976 700.462 161.837 700.431 161.639L699.946 158.495C699.912 158.276 700.05 158.07 700.255 158.033C700.46 157.997 700.652 158.146 700.687 158.364L701.173 161.509C701.207 161.728 701.068 161.934 700.864 161.97L700.802 161.976V161.976ZM701.111 138.775C701.046 138.775 700.981 138.758 700.921 138.719C700.742 138.606 700.683 138.36 700.789 138.169L702.307 135.427C702.412 135.236 702.642 135.173 702.821 135.285C702.999 135.399 703.059 135.645 702.953 135.836L701.435 138.578C701.365 138.705 701.24 138.775 701.111 138.775V138.775ZM696.231 149.922C696.161 149.922 696.091 149.901 696.027 149.858L693.526 148.127C693.352 148.006 693.301 147.758 693.413 147.571C693.527 147.385 693.76 147.332 693.933 147.452L696.435 149.183C696.609 149.304 696.659 149.552 696.547 149.738C696.475 149.857 696.355 149.922 696.231 149.922V149.922ZM669.738 168.616L669.57 168.573C669.384 168.473 669.311 168.23 669.405 168.033L670.75 165.19C670.844 164.991 671.069 164.912 671.255 165.013C671.44 165.112 671.513 165.355 671.419 165.552L670.074 168.396C670.008 168.536 669.876 168.616 669.738 168.616V168.616ZM700.494 154.241C700.369 154.241 700.247 154.175 700.175 154.053C700.066 153.864 700.119 153.617 700.295 153.5L702.82 151.808C702.996 151.691 703.228 151.747 703.338 151.936C703.448 152.123 703.395 152.371 703.219 152.489L700.693 154.18C700.631 154.221 700.562 154.241 700.494 154.241V154.241ZM694.44 158.264C694.348 158.354 694.215 158.394 694.086 158.357C693.885 158.299 693.767 158.077 693.822 157.863L694.604 154.788C694.658 154.574 694.864 154.447 695.064 154.505C695.265 154.564 695.383 154.785 695.328 154.999L694.546 158.074C694.529 158.146 694.492 158.211 694.44 158.264V158.264ZM705.099 125.804L704.446 126.864C704.372 126.979 704.253 127.043 704.131 127.043C704.06 127.043 703.989 127.023 703.926 126.977C703.752 126.856 703.704 126.607 703.818 126.422L704.544 125.243C704.753 125.434 704.938 125.621 705.099 125.804V125.804ZM707.955 132.796L707.26 133.923C707.188 134.041 707.069 134.104 706.946 134.104C706.874 134.104 706.804 134.082 706.739 134.038C706.566 133.915 706.52 133.666 706.633 133.481L707.618 131.882C707.728 132.177 707.839 132.483 707.955 132.796V132.796ZM675.478 178.544C675.379 178.544 675.28 178.503 675.208 178.421L673.144 176.122C673 175.962 673.004 175.708 673.154 175.554C673.303 175.4 673.541 175.406 673.685 175.566L675.748 177.864C675.893 178.025 675.888 178.279 675.738 178.433C675.665 178.508 675.571 178.544 675.478 178.544V178.544ZM689.209 186.582C689.111 186.582 689.012 186.541 688.938 186.459L686.875 184.159C686.73 183.999 686.735 183.746 686.885 183.591C687.034 183.437 687.273 183.443 687.416 183.603L689.48 185.902C689.623 186.062 689.618 186.316 689.469 186.469C689.396 186.545 689.302 186.582 689.209 186.582V186.582ZM693.025 183.389C692.963 183.307 692.931 183.199 692.944 183.086L693.317 179.924C693.343 179.704 693.531 179.548 693.736 179.576C693.942 179.603 694.088 179.804 694.062 180.025L693.689 183.187C693.664 183.407 693.476 183.563 693.27 183.535C693.17 183.522 693.084 183.467 693.025 183.389V183.389ZM685.204 192.302C685.106 192.302 685.007 192.261 684.934 192.177L682.869 189.878C682.726 189.719 682.731 189.464 682.881 189.312C683.03 189.157 683.268 189.162 683.412 189.323L685.475 191.622C685.619 191.782 685.614 192.036 685.464 192.189C685.392 192.264 685.298 192.302 685.204 192.302V192.302ZM707.419 183.601C707.421 183.874 707.419 184.143 707.419 184.407L705.09 184.616C704.883 184.636 704.7 184.472 704.684 184.25C704.665 184.029 704.82 183.836 705.026 183.816L707.419 183.601V183.601ZM680.139 173.71C680.041 173.71 679.942 173.669 679.868 173.587L677.805 171.288C677.66 171.128 677.666 170.874 677.815 170.72C677.965 170.566 678.203 170.571 678.346 170.732L680.41 173.03C680.554 173.19 680.549 173.444 680.399 173.598C680.326 173.673 680.233 173.71 680.139 173.71V173.71ZM690.068 172.711C690.062 172.819 690.014 172.92 689.935 172.993L687.654 175.042C687.495 175.186 687.258 175.164 687.125 174.994C686.992 174.824 687.012 174.571 687.17 174.428L689.451 172.378C689.61 172.234 689.847 172.257 689.98 172.426C690.046 172.509 690.074 172.611 690.068 172.711V172.711ZM700.934 183.993L700.747 183.939C700.567 183.828 700.506 183.582 700.609 183.391L702.102 180.632C702.206 180.44 702.435 180.375 702.616 180.485C702.795 180.597 702.857 180.842 702.752 181.035L701.259 183.793C701.19 183.922 701.064 183.993 700.934 183.993V183.993ZM703.518 175.795C703.382 175.795 703.251 175.715 703.185 175.578L701.818 172.745C701.723 172.548 701.796 172.305 701.98 172.204C702.163 172.102 702.391 172.18 702.485 172.377L703.852 175.209C703.947 175.407 703.874 175.649 703.691 175.75L703.518 175.795V175.795ZM699.444 143.638C699.307 143.638 699.176 143.559 699.109 143.42L697.743 140.588C697.648 140.391 697.72 140.149 697.905 140.047C698.089 139.945 698.315 140.023 698.411 140.22L699.776 143.052C699.871 143.249 699.799 143.492 699.615 143.593L699.444 143.638V143.638ZM700.935 131.752L700.864 131.745C700.66 131.703 700.527 131.492 700.566 131.275L701.13 128.146C701.17 127.927 701.367 127.785 701.571 127.828C701.775 127.869 701.907 128.08 701.868 128.298L701.304 131.427C701.269 131.619 701.111 131.752 700.935 131.752V131.752ZM707.797 142.55L707.726 142.543C707.521 142.501 707.388 142.29 707.428 142.073L707.993 138.943C708.032 138.725 708.229 138.583 708.433 138.625C708.637 138.667 708.769 138.878 708.73 139.095L708.165 142.224C708.131 142.416 707.973 142.55 707.797 142.55V142.55ZM696.06 134.5L695.989 134.492C695.785 134.451 695.652 134.239 695.691 134.022L696.256 130.894C696.295 130.675 696.493 130.534 696.695 130.575C696.9 130.616 697.033 130.828 696.993 131.045L696.428 134.174C696.394 134.366 696.237 134.5 696.06 134.5V134.5ZM698.298 123.6C698.229 123.617 698.156 123.613 698.089 123.588C697.972 123.544 697.877 123.439 697.847 123.301L697.216 120.427C697.508 120.595 697.804 120.764 698.098 120.934L698.576 123.116C698.625 123.333 698.501 123.548 698.298 123.6ZM706.888 147.388C706.763 147.388 706.642 147.322 706.57 147.201L704.974 144.511C704.863 144.324 704.914 144.075 705.09 143.957C705.265 143.838 705.496 143.894 705.607 144.08L707.205 146.771C707.316 146.958 707.264 147.206 707.089 147.325C707.026 147.367 706.957 147.388 706.888 147.388ZM696.224 176.292C696.121 176.176 696.09 175.998 696.159 175.845L697.443 172.968C697.532 172.768 697.756 172.683 697.943 172.779C698.13 172.875 698.21 173.115 698.12 173.314L696.837 176.19C696.747 176.39 696.524 176.475 696.336 176.38L696.224 176.292V176.292ZM669.813 181.697L667.305 182.131C667.307 181.863 667.308 181.592 667.312 181.317L669.692 180.903C669.896 180.869 670.09 181.016 670.122 181.235C670.155 181.454 670.018 181.661 669.813 181.697ZM669.049 174.35L667.379 174.638C667.382 174.367 667.385 174.096 667.388 173.824L668.928 173.557C669.133 173.521 669.324 173.67 669.358 173.889C669.391 174.109 669.254 174.314 669.049 174.35ZM705.884 167.948C705.734 167.948 705.592 167.851 705.534 167.692L704.448 164.724C704.372 164.518 704.468 164.284 704.661 164.204C704.854 164.123 705.073 164.225 705.148 164.431L706.233 167.4C706.309 167.606 706.214 167.839 706.02 167.92L705.884 167.948V167.948ZM707.263 158.585C706.559 155.672 705.672 152.434 704.794 149.644L704.788 149.628C704.517 148.766 704.247 147.947 703.982 147.196L703.968 147.157C703.886 146.919 703.802 146.691 703.721 146.468L703.701 146.352V146.35C703.701 146.217 703.784 146.091 703.918 146.041C704.091 145.98 704.282 146.067 704.344 146.241C705.244 148.694 706.308 152.227 707.219 155.692C707.235 156.652 707.25 157.617 707.263 158.585" fill="#4C3499"/>
<path d="M677.562 98.7762C677.562 98.7762 673.577 97.3858 673.974 94.2868C674.313 91.6495 677.239 93.3594 676.982 91.2981C676.725 89.2376 676.153 87.3636 678.671 86.8483C680.875 86.3973 680.911 87.9963 683.805 85.677C687.222 82.9378 689.848 89.2807 692.898 89.4716C697.397 89.7522 697.965 92.4461 698.407 94.6007C698.849 96.756 696.674 99.2859 696.674 99.2859L677.562 98.7762" fill="#263445"/>
<path d="M678.228 103.303C678.228 103.303 676.557 101.074 675.313 102.917C674.07 104.761 675.828 110.205 678.871 108.876L678.228 103.303Z" fill="#F3665C"/>
<path d="M678.207 107.194C678.095 107.194 677.991 107.12 677.959 107.006C677.488 105.325 675.746 104.644 675.728 104.637C675.665 104.613 675.613 104.564 675.585 104.502C675.558 104.44 675.556 104.369 675.58 104.305C675.604 104.241 675.653 104.19 675.715 104.162C675.777 104.134 675.847 104.132 675.911 104.156C675.992 104.187 677.912 104.931 678.455 106.868C678.493 107.004 678.414 107.146 678.276 107.184L678.207 107.194Z" fill="#CE4045"/>
<path d="M676.449 106.347L676.31 106.306C676.282 106.288 676.257 106.264 676.238 106.236C676.219 106.208 676.205 106.177 676.198 106.144C676.191 106.111 676.19 106.077 676.197 106.044C676.203 106.01 676.215 105.979 676.233 105.95C676.246 105.931 676.554 105.46 677.199 105.172C677.328 105.114 677.48 105.172 677.538 105.302C677.597 105.432 677.538 105.583 677.409 105.641C676.911 105.865 676.668 106.225 676.666 106.229C676.643 106.265 676.611 106.295 676.573 106.316C676.535 106.336 676.492 106.347 676.449 106.347" fill="#CE4045"/>
<path d="M695.459 103.303C695.459 103.303 697.131 101.074 698.374 102.917C699.618 104.761 697.86 110.205 694.816 108.876L695.459 103.303Z" fill="#F3665C"/>
<path d="M695.48 107.194C695.592 107.194 695.696 107.12 695.728 107.006C696.199 105.325 697.941 104.644 697.959 104.637C698.092 104.586 698.157 104.438 698.107 104.305C698.058 104.173 697.909 104.106 697.776 104.156C697.695 104.187 695.776 104.931 695.232 106.868C695.194 107.004 695.273 107.146 695.411 107.184L695.48 107.194Z" fill="#CE4045"/>
<path d="M697.239 106.347L697.377 106.306C697.406 106.288 697.43 106.264 697.45 106.236C697.469 106.208 697.482 106.177 697.49 106.144C697.497 106.111 697.497 106.077 697.491 106.044C697.485 106.01 697.473 105.979 697.454 105.95C697.442 105.931 697.133 105.46 696.489 105.172C696.359 105.114 696.207 105.172 696.149 105.302C696.091 105.432 696.149 105.583 696.279 105.641C696.777 105.865 697.02 106.225 697.022 106.229C697.045 106.265 697.077 106.295 697.115 106.316C697.153 106.336 697.196 106.347 697.239 106.347" fill="#CE4045"/>
<path d="M690.959 113.494V118.909C690.959 118.909 689.345 121.667 687.161 121.854C684.98 122.045 683.041 119.48 683.041 119.48V113.875L690.959 113.494" fill="#F68A85"/>
<path d="M690.959 113.494V115.897C689.494 117.523 686.892 117.928 683.041 117.36V113.874L690.959 113.494" fill="#F3665C"/>
<path d="M696.667 99.5901C696.568 101.694 696.368 104.326 695.966 106.429V106.434L695.961 106.455L695.959 106.458C695.86 106.972 695.749 107.455 695.628 107.89C695.556 108.144 695.476 108.411 695.387 108.684C694.104 112.711 691.13 118.538 683.658 115.872C680.511 114.75 678.871 111.5 678.037 107.974C677.988 107.764 677.941 107.556 677.901 107.356C677.873 107.222 677.847 107.093 677.823 106.966L677.786 106.778L677.773 106.709L677.772 106.697C677.278 103.986 677.204 101.246 677.24 99.2869C677.278 97.2899 678.37 95.4627 680.108 94.478C684.816 91.8081 689.787 92.8048 693.059 94.0616C695.331 94.9332 696.784 97.1627 696.667 99.5901" fill="#F68A85"/>
<path d="M691.034 111.952V111.954H691.032C690.67 112.3 690.3 112.591 689.935 112.787C687.864 113.907 687.64 113.739 686.821 113.774C685.991 113.814 684.844 113.567 683.68 112.918C683.316 112.714 682.775 112.32 682.182 111.781C682.182 111.781 681.343 108.908 686.678 109.628C692.026 108.708 691.122 111.39 691.034 111.952V111.952ZM695.966 106.429L694.818 106.347C694.818 106.347 694.162 107.704 693.197 109.199C692.23 107.075 687.569 108.619 687.569 108.619C687.278 108.714 686.973 108.762 686.666 108.763C686.369 108.763 686.074 108.717 685.786 108.628L685.764 108.619C685.764 108.619 681.046 107.14 680.117 109.367C679.546 108.496 679.082 107.516 678.871 106.474L677.772 106.697L677.773 106.709L677.786 106.778L677.823 106.966C677.847 107.093 677.873 107.222 677.901 107.356C677.942 107.556 677.988 107.764 678.037 107.974C678.871 111.5 680.511 114.75 683.658 115.872C691.131 118.538 694.104 112.711 695.387 108.684C695.648 107.598 695.911 106.634 695.959 106.458L695.961 106.455L695.966 106.434L695.968 106.429H695.966ZM691.122 103.506C691.122 104.083 690.824 104.552 690.457 104.552C690.089 104.552 689.791 104.083 689.791 103.506C689.791 102.927 690.089 102.459 690.457 102.459C690.824 102.459 691.122 102.927 691.122 103.506ZM683.041 103.506C683.041 104.083 682.743 104.552 682.376 104.552C682.008 104.552 681.711 104.083 681.711 103.506C681.711 102.927 682.008 102.459 682.376 102.459C682.743 102.459 683.041 102.927 683.041 103.506ZM693.214 99.9768C693.214 99.9768 690.466 98.8903 688.348 99.805L688.56 100.982C688.56 100.982 691.668 100.719 693.233 101.354C693.373 100.9 693.393 100.442 693.214 99.9768V99.9768ZM680.143 99.9825C680.143 99.9825 682.912 98.8875 685.045 99.8086L684.832 100.995C684.832 100.995 681.702 100.73 680.124 101.369C679.983 100.913 679.963 100.451 680.143 99.9825" fill="#263445"/>
<path d="M686.886 108.183C687.32 108.183 687.751 108.014 687.816 107.986C687.848 107.974 687.877 107.955 687.901 107.931C687.926 107.908 687.945 107.879 687.958 107.848C687.972 107.817 687.979 107.783 687.979 107.749C687.979 107.715 687.973 107.682 687.96 107.65C687.947 107.619 687.928 107.59 687.905 107.566C687.881 107.542 687.852 107.523 687.821 107.51C687.789 107.496 687.756 107.49 687.722 107.49C687.688 107.49 687.654 107.497 687.623 107.51C687.39 107.604 686.832 107.752 686.591 107.607C686.544 107.58 686.48 107.525 686.464 107.368C686.372 106.47 686.617 103.459 686.62 103.429C686.623 103.395 686.619 103.361 686.608 103.329C686.598 103.297 686.581 103.267 686.56 103.241C686.538 103.215 686.511 103.194 686.481 103.179C686.451 103.163 686.418 103.154 686.384 103.151C686.351 103.148 686.317 103.152 686.285 103.162C686.252 103.173 686.223 103.189 686.197 103.211C686.171 103.233 686.15 103.26 686.135 103.29C686.119 103.32 686.11 103.353 686.107 103.386C686.097 103.512 685.855 106.475 685.953 107.421C685.99 107.777 686.176 107.959 686.326 108.049C686.491 108.147 686.689 108.183 686.886 108.183" fill="#F3665C"/>
<path d="M683.654 110.142C683.849 111.124 684.498 112.932 686.685 112.932C688.877 112.932 689.492 111.28 689.702 110.142H683.654Z" fill="white"/>
<path d="M696.668 99.5886C696.567 101.693 696.367 104.325 695.965 106.428L694.816 106.347C694.816 106.347 695.094 104.571 695.223 103.413C695.352 102.256 695.57 100.092 694.582 99.8219C693.597 99.5547 694.176 97.0862 692.804 96.016C691.434 94.9437 688.367 94.6496 686.345 95.8945C684.323 97.1364 682.044 95.8004 681.113 96.016C680.18 96.2295 678.915 97.516 679.256 98.717C679.601 99.9152 678.572 100.646 678.323 101.889C678.073 103.131 678.87 106.475 678.87 106.475L677.773 106.696C677.278 103.985 677.204 101.246 677.24 99.2882C677.278 97.2898 678.369 95.4633 680.108 94.4779C684.817 91.808 689.787 92.8033 693.06 94.0615C695.33 94.9331 696.783 97.1633 696.668 99.5886" fill="#263445"/>
<path d="M591.317 253.511H542.723V216.6H591.317V253.511Z" fill="#F03F33"/>
<path d="M592.926 220.894H541.114V214.756H592.926V220.894Z" fill="#F36346"/>
<path d="M591.317 224.272H542.723V220.894H591.317V224.272Z" fill="#E82B2A"/>
<path d="M569.149 253.543H564.89V214.756H569.149V253.543Z" fill="white"/>
<path d="M564.891 224.048H569.149V253.542H564.891V224.048Z" fill="#ECE9E9"/>
<path d="M564.891 220.894H569.149V224.272H564.891V220.894Z" fill="#CFCDCB"/>
<path d="M612.618 224.153L568.379 204.046L583.65 170.444L627.889 190.551L612.618 224.153" fill="#573D9F"/>
<path d="M627.578 195.126L580.408 173.687L582.948 168.1L630.118 189.538L627.578 195.126Z" fill="#6454AF"/>
<path d="M624.715 197.535L580.476 177.429L581.874 174.354L626.112 194.46L624.715 197.535Z" fill="#4C3499"/>
<path d="M592.422 215.011L588.545 213.248L604.594 177.938L608.471 179.7L592.422 215.011" fill="white"/>
<path d="M600.75 186.398L604.626 188.159L592.422 215.01L588.545 213.249L600.75 186.398Z" fill="#ECE9E9"/>
<path d="M602.055 183.526L605.932 185.288L604.534 188.363L600.658 186.601L602.055 183.526Z" fill="#CFCDCB"/>
<path d="M566.174 280.418C566.174 283.996 563.274 286.896 559.697 286.896C556.119 286.896 553.22 283.996 553.22 280.418C553.22 276.842 556.119 273.941 559.697 273.941C563.274 273.941 566.174 276.842 566.174 280.418Z" fill="#263445"/>
<path d="M559.697 284.47C557.463 284.47 555.646 282.653 555.646 280.418C555.646 278.185 557.463 276.368 559.697 276.368C561.931 276.368 563.748 278.185 563.748 280.418C563.748 282.653 561.931 284.47 559.697 284.47Z" fill="#384F64"/>
<path d="M601.532 280.418C601.532 283.996 598.632 286.896 595.055 286.896C591.477 286.896 588.578 283.996 588.578 280.418C588.578 276.842 591.477 273.941 595.055 273.941C598.632 273.941 601.532 276.842 601.532 280.418Z" fill="#263445"/>
<path d="M595.055 284.47C592.821 284.47 591.003 282.653 591.003 280.418C591.003 278.185 592.821 276.368 595.055 276.368C597.288 276.368 599.105 278.185 599.105 280.418C599.105 282.653 597.288 284.47 595.055 284.47Z" fill="#384F64"/>
<path d="M624.94 207.807H535.668L534.508 199.479H627.26L624.94 207.807ZM620.382 224.176H537.946L536.128 211.098H624.023L620.382 224.176ZM615.823 240.548H540.228L538.406 227.469H619.463L615.823 240.548ZM614.519 245.221V245.227C614.49 245.298 614.463 245.368 614.441 245.443L612.185 253.543H542.038L540.688 243.842H614.905L614.519 245.221ZM645.224 190.425C644.991 190.096 644.77 189.758 644.567 189.405H631.246C630.497 189.405 629.839 189.906 629.642 190.63L628.125 196.185H532.617C532.142 196.185 531.688 196.393 531.375 196.751C531.22 196.929 531.106 197.138 531.039 197.364C530.972 197.59 530.954 197.827 530.987 198.061L532.516 209.04C532.48 209.171 532.463 209.31 532.463 209.453C532.463 209.757 532.545 210.042 532.687 210.287L534.624 224.176L535.081 227.469L536.903 240.548L537.361 243.842L538.974 255.416C539.085 256.23 539.782 256.836 540.604 256.836H611.269L608.966 265.107C607.887 268.978 604.329 271.681 600.313 271.681H549.935C549.025 271.681 548.289 272.417 548.289 273.326C548.289 274.236 549.025 274.972 549.935 274.972H600.313C605.801 274.972 610.664 271.279 612.138 265.991L614.963 255.842V255.84L614.966 255.838C614.995 255.772 615.021 255.704 615.038 255.631L618.322 243.842L619.238 240.548L622.882 227.469L623.798 224.176L627.563 210.656L628.025 209V208.998L631.011 198.272L631.045 198.124L632.517 192.732H643.37C644.033 191.998 644.665 191.239 645.224 190.425" fill="#263445"/>
<path d="M644.567 189.404C644.771 189.757 644.992 190.096 645.225 190.425C644.665 191.24 644.033 191.997 643.369 192.731H638.525V189.404H644.567Z" fill="#573D9F"/>
<path d="M656.152 191.068C656.152 191.986 655.406 192.732 654.488 192.732H652.034C652.134 192.262 652.079 191.772 651.885 191.346C650.828 190.3 648.464 189.849 648.464 189.405H654.488C655.406 189.405 656.152 190.15 656.152 191.068Z" fill="#263445"/>
<path d="M656.151 191.068C656.151 191.985 655.405 192.731 654.488 192.731H652.033C652.134 192.261 652.08 191.771 651.884 191.346C650.828 190.3 648.464 189.849 648.464 189.404H654.488C655.405 189.404 656.151 190.149 656.151 191.068Z" fill="#573D9F"/>
<path d="M500.12 190.259H483.807C481.843 190.259 480.25 188.666 480.25 186.7V170.387C480.25 168.423 481.843 166.83 483.807 166.83H500.12C502.085 166.83 503.678 168.423 503.678 170.387V186.7C503.678 188.666 502.085 190.259 500.12 190.259" fill="white"/>
<path d="M498.808 176.894C498.808 177.941 498.411 178.987 497.616 179.783L492.19 185.208L486.765 179.783C485.97 178.987 485.572 177.941 485.572 176.894C485.572 175.848 485.97 174.8 486.763 174.007C488.245 172.525 490.503 172.792 492.19 175.297C493.877 172.792 496.135 172.525 497.618 174.007C498.411 174.8 498.808 175.848 498.808 176.894Z" fill="#F03F33"/>
<path d="M547.458 84.9788H478.192C476.775 84.9788 475.626 83.8301 475.626 82.4135V72.1658C475.626 70.7492 476.775 69.6006 478.192 69.6006H547.458C548.876 69.6006 550.024 70.7492 550.024 72.1658V82.4135C550.024 83.8301 548.876 84.9788 547.458 84.9788Z" fill="#573D9F"/>
<path d="M545.525 81.3435H538.33C537.907 81.3435 537.564 81.0007 537.564 80.5779V73.3833C537.564 72.9606 537.907 72.6177 538.33 72.6177H545.525C545.948 72.6177 546.291 72.9606 546.291 73.3833V80.5779C546.291 81.0007 545.948 81.3435 545.525 81.3435V81.3435ZM530.32 74.2683H481.143C480.744 74.2683 480.42 73.9446 480.42 73.5445V73.3416C480.42 72.9415 480.744 72.6177 481.143 72.6177H530.32C530.72 72.6177 531.044 72.9415 531.044 73.3416V73.5445C531.044 73.9446 530.72 74.2683 530.32 74.2683ZM530.32 77.8063H481.143C480.744 77.8063 480.42 77.4818 480.42 77.0824V76.8788C480.42 76.4794 480.744 76.155 481.143 76.155H530.32C530.72 76.155 531.044 76.4794 531.044 76.8788V77.0824C531.044 77.4818 530.72 77.8063 530.32 77.8063ZM530.32 81.3435H481.143C480.744 81.3435 480.42 81.019 480.42 80.6197V80.4161C480.42 80.0167 480.744 79.6922 481.143 79.6922H530.32C530.72 79.6922 531.044 80.0167 531.044 80.4161V80.6197C531.044 81.019 530.72 81.3435 530.32 81.3435Z" fill="#7855B0"/>
<path d="M547.831 107.551H478.565C477.148 107.551 476 106.402 476 104.985V94.7369C476 93.3203 477.148 92.1723 478.565 92.1723H547.831C549.249 92.1723 550.397 93.3203 550.397 94.7369V104.985C550.397 106.402 549.249 107.551 547.831 107.551Z" fill="#F03F33"/>
<path d="M545.525 104.217H538.33C537.907 104.217 537.564 103.874 537.564 103.452V96.2569C537.564 95.8335 537.907 95.4913 538.33 95.4913H545.525C545.948 95.4913 546.291 95.8335 546.291 96.2569V103.452C546.291 103.874 545.948 104.217 545.525 104.217V104.217ZM530.32 97.1482H481.143C480.744 97.1482 480.42 96.8245 480.42 96.4244V96.2215C480.42 95.8214 480.744 95.4977 481.143 95.4977H530.32C530.72 95.4977 531.044 95.8214 531.044 96.2215V96.4244C531.044 96.8245 530.72 97.1482 530.32 97.1482ZM530.32 100.686H481.143C480.744 100.686 480.42 100.362 480.42 99.9623V99.7588C480.42 99.3594 480.744 99.0356 481.143 99.0356H530.32C530.72 99.0356 531.044 99.3594 531.044 99.7588V99.9623C531.044 100.362 530.72 100.686 530.32 100.686ZM530.32 104.224H481.143C480.744 104.224 480.42 103.9 480.42 103.5V103.297C480.42 102.897 480.744 102.573 481.143 102.573H530.32C530.72 102.573 531.044 102.897 531.044 103.297V103.5C531.044 103.9 530.72 104.224 530.32 104.224Z" fill="#F36346"/>
<path d="M664.448 29.5213C662.931 29.5213 661.697 30.7556 661.697 32.2725C661.697 33.7888 662.931 35.023 664.448 35.023C665.964 35.023 667.199 33.7888 667.199 32.2725C667.199 30.7556 665.964 29.5213 664.448 29.5213ZM664.448 36.2805C662.238 36.2805 660.44 34.4822 660.44 32.2725C660.44 30.0621 662.238 28.2645 664.448 28.2645C666.658 28.2645 668.456 30.0621 668.456 32.2725C668.456 34.4822 666.658 36.2805 664.448 36.2805ZM657.834 11.5284C656.317 11.5284 655.083 12.7626 655.083 14.2788C655.083 15.7958 656.317 17.03 657.834 17.03C659.351 17.03 660.584 15.7958 660.584 14.2788C660.584 12.7626 659.351 11.5284 657.834 11.5284ZM657.834 18.2876C655.624 18.2876 653.826 16.4893 653.826 14.2788C653.826 12.0691 655.624 10.2708 657.834 10.2708C660.043 10.2708 661.842 12.0691 661.842 14.2788C661.842 16.4893 660.043 18.2876 657.834 18.2876Z" fill="#573D9F"/>
<path d="M673.553 47.2386C673.206 47.2386 672.924 46.9565 672.924 46.6094V43.837C672.924 43.4892 673.206 43.2079 673.553 43.2079C673.899 43.2079 674.18 43.4892 674.18 43.837V46.6094C674.18 46.9565 673.899 47.2386 673.553 47.2386ZM673.553 52.0906C673.206 52.0906 672.924 51.8092 672.924 51.4615V48.6891C672.924 48.342 673.206 48.0599 673.553 48.0599C673.899 48.0599 674.18 48.342 674.18 48.6891V51.4615C674.18 51.8092 673.899 52.0906 673.553 52.0906ZM677.444 48.2784H674.953C674.606 48.2784 674.325 47.997 674.325 47.6492C674.325 47.3022 674.606 47.0208 674.953 47.0208H677.444C677.611 47.0208 677.771 47.087 677.888 47.2049C678.006 47.3227 678.072 47.4826 678.072 47.6492C678.072 47.997 677.791 48.2784 677.444 48.2784ZM672.151 48.2784H669.661C669.314 48.2784 669.031 47.997 669.031 47.6492C669.031 47.3022 669.314 47.0208 669.661 47.0208H672.151C672.499 47.0208 672.78 47.3022 672.78 47.6492C672.78 47.997 672.499 48.2784 672.151 48.2784ZM644.692 27.3688C644.344 27.3688 644.063 27.0868 644.063 26.7397V23.9666C644.063 23.6195 644.344 23.3382 644.692 23.3382C645.039 23.3382 645.32 23.6195 645.32 23.9666V26.7397C645.32 27.0868 645.039 27.3688 644.692 27.3688ZM644.692 32.2209C644.344 32.2209 644.063 31.9388 644.063 31.5917V28.8193C644.063 28.4716 644.344 28.1902 644.692 28.1902C645.039 28.1902 645.32 28.4716 645.32 28.8193V31.5917C645.32 31.9388 645.039 32.2209 644.692 32.2209ZM648.583 28.408H646.092C646.01 28.408 645.928 28.3917 645.852 28.3601C645.776 28.3285 645.706 28.2822 645.648 28.2239C645.59 28.1655 645.543 28.0962 645.512 28.02C645.48 27.9438 645.464 27.862 645.464 27.7795C645.464 27.4324 645.745 27.1504 646.092 27.1504H648.583C648.931 27.1504 649.212 27.4324 649.212 27.7795C649.212 27.862 649.196 27.9438 649.164 28.02C649.133 28.0962 649.086 28.1655 649.028 28.2239C648.969 28.2822 648.9 28.3285 648.824 28.3601C648.748 28.3917 648.666 28.408 648.583 28.408V28.408ZM643.29 28.408H640.8C640.453 28.408 640.171 28.1266 640.171 27.7795C640.171 27.4324 640.453 27.1504 640.8 27.1504H643.29C643.637 27.1504 643.919 27.4324 643.919 27.7795C643.919 28.1266 643.637 28.408 643.29 28.408Z" fill="#F03F33"/>
<path d="M449.89 154.557C448.373 154.557 447.139 155.791 447.139 157.307C447.139 158.824 448.373 160.059 449.89 160.059C451.407 160.059 452.641 158.824 452.641 157.307C452.641 155.791 451.407 154.557 449.89 154.557ZM449.89 161.315C447.68 161.315 445.882 159.517 445.882 157.307C445.882 155.097 447.68 153.299 449.89 153.299C452.1 153.299 453.898 155.097 453.898 157.307C453.898 159.517 452.1 161.315 449.89 161.315Z" fill="#573D9F"/>
<path d="M459.539 171.599C458.022 171.599 456.788 172.833 456.788 174.35C456.788 175.867 458.022 177.101 459.539 177.101C461.056 177.101 462.29 175.867 462.29 174.35C462.29 172.833 461.056 171.599 459.539 171.599ZM459.539 178.358C457.329 178.358 455.531 176.561 455.531 174.35C455.531 172.141 457.329 170.342 459.539 170.342C461.749 170.342 463.547 172.141 463.547 174.35C463.547 176.561 461.749 178.358 459.539 178.358Z" fill="#F03F33"/>
<path d="M467.241 191.017C466.894 191.017 466.613 190.736 466.613 190.388V187.615C466.613 187.268 466.894 186.987 467.241 186.987C467.588 186.987 467.87 187.268 467.87 187.615V190.388C467.87 190.736 467.588 191.017 467.241 191.017ZM467.241 195.869C467.159 195.869 467.077 195.853 467.001 195.821C466.924 195.789 466.855 195.743 466.797 195.685C466.738 195.626 466.692 195.557 466.66 195.48C466.629 195.404 466.613 195.322 466.613 195.24V192.468C466.611 192.385 466.626 192.302 466.657 192.224C466.688 192.146 466.734 192.076 466.793 192.016C466.851 191.956 466.921 191.909 466.998 191.877C467.075 191.844 467.158 191.828 467.241 191.828C467.325 191.828 467.408 191.844 467.485 191.877C467.562 191.909 467.632 191.956 467.69 192.016C467.749 192.076 467.795 192.146 467.826 192.224C467.857 192.302 467.872 192.385 467.87 192.468V195.24C467.87 195.588 467.588 195.869 467.241 195.869ZM471.133 192.057H468.643C468.295 192.057 468.014 191.775 468.014 191.428C468.014 191.081 468.295 190.799 468.643 190.799H471.133C471.48 190.799 471.762 191.081 471.762 191.428C471.762 191.511 471.746 191.593 471.714 191.669C471.682 191.745 471.636 191.814 471.578 191.873C471.519 191.931 471.45 191.977 471.374 192.009C471.298 192.04 471.216 192.057 471.133 192.057ZM465.84 192.057H463.35C463.003 192.057 462.721 191.775 462.721 191.428C462.721 191.081 463.003 190.799 463.35 190.799H465.84C466.187 190.799 466.469 191.081 466.469 191.428C466.469 191.511 466.453 191.593 466.421 191.669C466.389 191.745 466.343 191.814 466.285 191.873C466.226 191.931 466.157 191.977 466.081 192.009C466.005 192.04 465.923 192.057 465.84 192.057" fill="#573D9F"/>
<path d="M438.381 171.147C438.034 171.147 437.752 170.866 437.752 170.519V167.746C437.752 167.399 438.034 167.117 438.381 167.117C438.728 167.117 439.009 167.399 439.009 167.746V170.519C439.009 170.866 438.728 171.147 438.381 171.147ZM438.381 176C438.214 176 438.054 175.934 437.936 175.816C437.818 175.698 437.752 175.538 437.752 175.371V172.598C437.752 172.251 438.034 171.969 438.381 171.969C438.728 171.969 439.009 172.251 439.009 172.598V175.371C439.009 175.718 438.728 176 438.381 176ZM442.273 172.188H439.782C439.699 172.188 439.618 172.171 439.541 172.14C439.465 172.108 439.396 172.062 439.337 172.003C439.279 171.945 439.232 171.876 439.201 171.799C439.169 171.723 439.153 171.641 439.153 171.558C439.153 171.211 439.435 170.93 439.782 170.93H442.273C442.355 170.93 442.437 170.946 442.513 170.978C442.589 171.009 442.659 171.056 442.717 171.114C442.775 171.172 442.822 171.242 442.853 171.318C442.885 171.394 442.901 171.476 442.901 171.558C442.901 171.906 442.62 172.188 442.273 172.188ZM436.98 172.188H434.489C434.322 172.188 434.162 172.121 434.044 172.003C433.926 171.885 433.86 171.725 433.86 171.558C433.86 171.211 434.142 170.93 434.489 170.93H436.98C437.062 170.93 437.144 170.946 437.22 170.978C437.296 171.009 437.366 171.056 437.424 171.114C437.482 171.172 437.529 171.242 437.56 171.318C437.592 171.394 437.608 171.476 437.608 171.558C437.608 171.906 437.327 172.188 436.98 172.188" fill="#F03F33"/>
</svg>
