<svg width="55" height="57" viewBox="0 0 55 57" fill="none" xmlns="http://www.w3.org/2000/svg">
<g clip-path="url(#clip0)">
<path d="M39.8595 39.1019H15.1636C14.868 39.1019 14.6261 39.5018 14.6261 39.9906L14.6194 45.323C14.6194 45.8119 14.8612 46.2118 15.1568 46.2118H39.8595C40.1551 46.2118 40.397 45.8119 40.397 45.323V39.9906C40.397 39.5018 40.1551 39.1019 39.8595 39.1019ZM39.8595 49.7668H15.1434C14.8478 49.7668 14.606 50.1667 14.606 50.6555L14.5992 55.9879C14.5992 56.4767 14.8411 56.8767 15.1367 56.8767H39.8595C40.1551 56.8767 40.397 56.4767 40.397 55.9879V50.6555C40.397 50.1667 40.1551 49.7668 39.8595 49.7668ZM39.8595 28.437H15.177C14.8814 28.437 14.6395 28.8369 14.6395 29.3257L14.6328 34.6581C14.6328 35.147 14.8747 35.5469 15.1703 35.5469H39.8595C40.1551 35.5469 40.397 35.147 40.397 34.6581V29.3257C40.397 28.8369 40.1551 28.437 39.8595 28.437ZM47.0143 12.9951L28.7342 0.408273C28.3413 0.138738 27.9201 0 27.4947 0C27.0694 0 26.6482 0.138738 26.2552 0.408273L7.98186 12.9951C6.78602 13.8283 6 15.7613 6 17.9165V55.9879C6 56.4767 6.24185 56.8767 6.53745 56.8767H11.912C12.2076 56.8767 12.4494 56.4767 12.4494 55.9879V28.437C12.4494 26.4817 13.4303 24.882 14.6395 24.882H40.3566C41.5659 24.882 42.5468 26.4817 42.5468 28.437V55.9879C42.5468 56.4767 42.7886 56.8767 43.0842 56.8767H48.4587C48.7543 56.8767 48.9962 56.4767 48.9962 55.9879V17.9165C48.9962 15.7613 48.2102 13.8283 47.0143 12.9951Z" fill="#545D70"/>
</g>
<defs>
<clipPath id="clip0">
<rect width="53.7452" height="56.8794" fill="white" transform="translate(0.265625 0.119141)"/>
</clipPath>
</defs>
</svg>
