<svg width="50" height="50" viewBox="0 0 50 50" fill="none" xmlns="http://www.w3.org/2000/svg">
<path d="M41.6667 6.25H39.5833V33.3333H41.6667C42.7717 33.3333 43.8315 32.8943 44.6129 32.1129C45.3943 31.3315 45.8333 30.2717 45.8333 29.1667V10.4167C45.8333 9.3116 45.3943 8.25179 44.6129 7.47039C43.8315 6.68899 42.7717 6.25 41.6667 6.25ZM8.33332 33.3333H22.9167L20.5792 40.35C20.3706 40.9762 20.3138 41.643 20.4134 42.2955C20.513 42.948 20.7662 43.5675 21.1521 44.1029C21.538 44.6384 22.0457 45.0745 22.6332 45.3753C23.2206 45.6762 23.8712 45.8332 24.5312 45.8333H25L35.4167 34.5042V6.25H12.5L4.29791 24.2687L4.16666 24.8792V29.1667C4.16666 30.2717 4.60564 31.3315 5.38704 32.1129C6.16845 32.8943 7.22825 33.3333 8.33332 33.3333Z" fill="#545D70"/>
</svg>
