<svg width="50" height="50" viewBox="0 0 50 50" fill="none" xmlns="http://www.w3.org/2000/svg">
<path d="M41.6667 6.25H13.9437C13.0961 6.25281 12.2692 6.51283 11.5725 6.99567C10.8757 7.47851 10.3419 8.16144 10.0417 8.95417L4.29791 24.2687C4.2107 24.5027 4.16624 24.7504 4.16666 25V29.1667C4.16666 31.4646 6.03541 33.3333 8.33333 33.3333H20.025L17.6875 40.3479C17.4791 40.9742 17.4222 41.6411 17.5214 42.2937C17.6206 42.9462 17.8732 43.566 18.2583 44.1021C19.0417 45.1854 20.3042 45.8333 21.6417 45.8333H25C25.6187 45.8333 26.2042 45.5583 26.6021 45.0833L36.3937 33.3333H41.6667C43.9646 33.3333 45.8333 31.4646 45.8333 29.1667V10.4167C45.8333 8.11875 43.9646 6.25 41.6667 6.25ZM24.0229 41.6667H21.6375L24.8917 31.9083C24.9959 31.5953 25.0243 31.262 24.9746 30.9358C24.9248 30.6097 24.7983 30.3 24.6055 30.0323C24.4126 29.7646 24.159 29.5465 23.8654 29.396C23.5717 29.2455 23.2466 29.1669 22.9167 29.1667H8.33333V25.3771L13.9437 10.4167H33.3333V30.4958L24.0229 41.6667ZM37.5 29.1667V10.4167H41.6667L41.6687 29.1667H37.5Z" fill="#545D70"/>
</svg>
