<svg width="151" height="151" viewBox="0 0 151 151" fill="none" xmlns="http://www.w3.org/2000/svg">
<path d="M76.8198 65.2264V86.7646H106.727C103.944 100.451 92.2916 108.315 76.8198 108.315C58.7986 108.067 44.3198 93.3876 44.3198 75.3651C44.3198 57.3423 58.7986 42.6629 76.8198 42.4149C84.3104 42.4059 91.5701 45.0054 97.3531 49.767L113.58 33.54C94.9665 17.1762 67.7826 15.0714 46.8718 28.3751C25.9612 41.6788 16.3493 67.1936 23.2847 90.9873C30.2199 114.781 52.0357 131.135 76.8198 131.12C104.699 131.12 130.05 110.843 130.05 75.362C130.007 71.9456 129.589 68.5448 128.802 65.2202L76.8198 65.2264Z" fill="white"/>
</svg>
