<svg width="57" height="57" viewBox="0 0 57 57" fill="none" xmlns="http://www.w3.org/2000/svg">
<path d="M28.6255 56.4051C13.1716 56.4051 0.643799 43.8771 0.643799 28.4234C0.643799 12.9696 13.1716 0.441772 28.6255 0.441772C44.0792 0.441772 56.6071 12.9696 56.6071 28.4234C56.59 43.8701 44.0722 56.388 28.6255 56.4051ZM6.24013 28.9047C6.37254 41.22 16.4286 51.1151 28.7444 51.0494C41.0605 50.9828 51.0094 40.9802 51.0094 28.6641C51.0094 16.348 41.0605 6.34526 28.7444 6.27874C16.4286 6.21288 6.37254 16.108 6.24013 28.4234V28.9047ZM34.2218 42.4142H25.8273V31.2216H23.0291V25.6253H31.4236V36.8179H34.2218V42.4142ZM31.4236 20.0289H25.8273V14.4326H31.4236V20.0289Z" fill="#2E3A59"/>
</svg>
