<svg width="57" height="57" viewBox="0 0 57 57" fill="none" xmlns="http://www.w3.org/2000/svg">
<path d="M28.6252 56.4052C13.1714 56.4052 0.643555 43.8773 0.643555 28.4235C0.643555 12.9697 13.1714 0.441895 28.6252 0.441895C44.0789 0.441895 56.6069 12.9697 56.6069 28.4235C56.5898 43.8703 44.0719 56.3881 28.6252 56.4052ZM6.23988 28.9048C6.37229 41.2201 16.4283 51.1153 28.7441 51.0495C41.0602 50.9829 51.0091 40.9803 51.0091 28.6642C51.0091 16.3481 41.0602 6.34538 28.7441 6.27887C16.4283 6.213 6.37229 16.1081 6.23988 28.4235V28.9048ZM34.2215 42.4144H25.827V31.2217H23.0289V25.6254H31.4234V36.818H34.2215V42.4144ZM31.4234 20.0291H25.827V14.4327H31.4234V20.0291Z" fill="#545D70"/>
</svg>
