<svg width="50" height="50" viewBox="0 0 50 50" fill="none" xmlns="http://www.w3.org/2000/svg">
<path d="M41.6667 16.6665H29.975L32.3146 9.65192C32.7354 8.38525 32.5229 6.98109 31.7417 5.89775C30.9604 4.81442 29.6937 4.1665 28.3583 4.1665H25C24.3812 4.1665 23.7958 4.4415 23.3979 4.9165L13.6062 16.6665H8.33332C6.03541 16.6665 4.16666 18.5353 4.16666 20.8332V39.5832C4.16666 41.8811 6.03541 43.7498 8.33332 43.7498H36.0562C36.9039 43.747 37.7308 43.487 38.4275 43.0042C39.1243 42.5213 39.6581 41.8384 39.9583 41.0457L45.7021 25.7311C45.7893 25.4972 45.8337 25.2495 45.8333 24.9998V20.8332C45.8333 18.5353 43.9646 16.6665 41.6667 16.6665ZM8.33332 20.8332H12.5V39.5832H8.33332V20.8332ZM41.6667 24.6228L36.0562 39.5832H16.6667V19.504L25.975 8.33317H28.3625L25.1083 18.0894C25.0027 18.4026 24.9732 18.7364 25.0224 19.0632C25.0715 19.39 25.1979 19.7004 25.391 19.9687C25.584 20.2369 25.8383 20.4552 26.1326 20.6056C26.4269 20.7559 26.7528 20.834 27.0833 20.8332H41.6667V24.6228Z" fill="#545D70"/>
</svg>
