<svg width="50" height="50" viewBox="0 0 50 50" fill="none" xmlns="http://www.w3.org/2000/svg">
<path d="M8.33332 43.7498H10.4167V16.6665H8.33332C7.22825 16.6665 6.16845 17.1055 5.38704 17.8869C4.60564 18.6683 4.16666 19.7281 4.16666 20.8332V39.5832C4.16666 40.6882 4.60564 41.748 5.38704 42.5294C6.16845 43.3108 7.22825 43.7498 8.33332 43.7498ZM41.6667 16.6665H27.0833L29.4208 9.64984C29.6294 9.02362 29.6862 8.35681 29.5866 7.70433C29.487 7.05185 29.2338 6.43237 28.8479 5.89691C28.4619 5.36145 27.9543 4.92534 27.3668 4.6245C26.7793 4.32365 26.1288 4.16667 25.4687 4.1665H25L14.5833 15.4957V43.7498H37.5L45.65 25.8415L45.8333 24.9998V20.8332C45.8333 19.7281 45.3943 18.6683 44.6129 17.8869C43.8315 17.1055 42.7717 16.6665 41.6667 16.6665V16.6665Z" fill="#545D70"/>
</svg>
