<svg width="54" height="57" viewBox="0 0 54 57" fill="none" xmlns="http://www.w3.org/2000/svg">
<g clip-path="url(#clip0)">
<path d="M27.4892 56.8794C23.6116 53.4756 20.0177 49.7441 16.7446 45.7239C11.8328 39.6864 6 30.695 6 22.1269C5.99564 13.1783 11.2319 5.10894 19.2652 1.68427C27.2986 -1.74042 36.5457 0.154659 42.6913 6.48517C46.7328 10.6258 48.9965 16.2582 48.9784 22.1269C48.9784 30.695 43.1456 39.6864 38.2338 45.7239C34.9607 49.7441 31.3668 53.4756 27.4892 56.8794ZM27.4892 6.33036C19.0162 6.34082 12.1499 13.4071 12.1398 22.1269C12.1398 25.8107 13.7576 32.1894 21.4569 41.6705C23.3544 44.0021 25.3679 46.2316 27.4892 48.3493C29.6105 46.2338 31.625 44.0081 33.5246 41.68C41.2208 32.1862 42.8386 25.8076 42.8386 22.1269C42.8285 13.4071 35.9624 6.34082 27.4892 6.33036ZM27.4892 31.6049C22.4027 31.6049 18.2795 27.3613 18.2795 22.1269C18.2795 16.8924 22.4027 12.649 27.4892 12.649C32.5757 12.649 36.6989 16.8924 36.6989 22.1269C36.6989 24.6405 35.7285 27.0514 34.0014 28.8288C32.2742 30.6063 29.9319 31.6049 27.4892 31.6049Z" fill="#545D70"/>
</g>
<defs>
<clipPath id="clip0">
<rect width="53.7231" height="56.8794" fill="white"/>
</clipPath>
</defs>
</svg>
