<svg width="50" height="50" viewBox="0 0 50 50" fill="none" xmlns="http://www.w3.org/2000/svg">
<path d="M21.1388 28.6665C24.0381 31.6077 27.5462 33.8785 31.4166 35.3193L36.6527 31.1527C36.808 31.0458 36.992 30.9885 37.1805 30.9885C37.369 30.9885 37.553 31.0458 37.7083 31.1527L47.4305 37.4165C47.7996 37.6385 48.112 37.9431 48.3432 38.3065C48.5743 38.6699 48.7177 39.0821 48.7622 39.5105C48.8066 39.9388 48.7509 40.3717 48.5993 40.7748C48.4477 41.1779 48.2045 41.5402 47.8888 41.8332L43.3333 46.3332C42.6809 46.9778 41.879 47.4509 40.9993 47.7102C40.1196 47.9695 39.1894 48.007 38.2916 47.8193C29.3364 45.9698 21.0821 41.6381 14.4722 35.3193C8.00896 28.9377 3.53644 20.8177 1.59717 11.9443C1.4056 11.0605 1.44558 10.1422 1.71325 9.27832C1.98092 8.41448 2.4672 7.63443 3.12495 7.01377L7.84717 2.45822C8.13939 2.15792 8.49576 1.92762 8.8896 1.78457C9.28344 1.64152 9.70453 1.58942 10.1214 1.63217C10.5382 1.67492 10.9399 1.81142 11.2965 2.03144C11.6531 2.25146 11.9553 2.5493 12.1805 2.90266L18.6527 12.4999C18.7644 12.6506 18.8246 12.8332 18.8246 13.0207C18.8246 13.2083 18.7644 13.3908 18.6527 13.5415L14.3888 18.6665C15.8688 22.4595 18.1746 25.8755 21.1388 28.6665V28.6665Z" fill="#545D70"/>
</svg>
