<svg width="132" height="132" viewBox="0 0 132 132" fill="none" xmlns="http://www.w3.org/2000/svg">
<path d="M66.0002 132C56.0217 132.028 46.1688 129.77 37.198 125.4C33.9148 123.803 30.7692 121.937 27.7931 119.823L26.8889 119.163C18.7037 113.121 12.0117 105.284 7.3266 96.2542C2.48052 86.908 -0.0329378 76.5282 0.000325913 65.9999C0.000325913 29.5491 29.5496 0 66.0002 0C102.45 0 132 29.5491 132 65.9999C132.033 76.5229 129.522 86.8981 124.68 96.241C120.002 105.266 113.319 113.1 105.144 119.143C102.061 121.4 98.7881 123.387 95.3634 125.083L94.8354 125.347C85.8588 129.741 75.9945 132.017 66.0002 132ZM66.0002 98.9998C56.1101 98.9807 47.0429 104.504 42.5241 113.302C57.3173 120.629 74.6831 120.629 89.4762 113.302V113.269C84.9519 104.481 75.8843 98.9694 66.0002 98.9998ZM66.0002 85.7998C80.2963 85.8183 93.4784 93.5225 100.511 105.969L100.61 105.884L100.703 105.804L100.591 105.903L100.525 105.956C117.216 91.5359 123.184 68.259 115.491 47.5866C107.798 26.914 88.0645 13.2021 66.0068 13.2021C43.9491 13.2021 24.2158 26.914 16.5226 47.5866C8.82948 68.259 14.7977 91.5359 31.489 105.956C38.5263 93.5152 51.7071 85.817 66.0002 85.7998ZM66.0002 79.1998C51.42 79.1998 39.6004 67.3799 39.6004 52.7999C39.6004 38.2196 51.42 26.3999 66.0002 26.3999C80.5801 26.3999 92.4 38.2196 92.4 52.7999C92.4 59.8018 89.6188 66.5166 84.6675 71.4673C79.7169 76.4186 73.0021 79.1998 66.0002 79.1998ZM66.0002 39.5999C58.7099 39.5999 52.8003 45.5097 52.8003 52.7999C52.8003 60.0902 58.7099 65.9999 66.0002 65.9999C73.2905 65.9999 79.2001 60.0902 79.2001 52.7999C79.2001 45.5097 73.2905 39.5999 66.0002 39.5999Z" fill="white"/>
</svg>
