<svg width="50" height="50" viewBox="0 0 50 50" fill="none" xmlns="http://www.w3.org/2000/svg">
<path d="M22.76 7.24746C22.9663 6.8288 23.2857 6.47625 23.682 6.22972C24.0783 5.9832 24.5358 5.85254 25.0025 5.85254C25.4692 5.85254 25.9267 5.9832 26.323 6.22972C26.7193 6.47625 27.0387 6.8288 27.245 7.24746L32.07 17.025L42.8625 18.5925C43.3243 18.6595 43.758 18.8545 44.1147 19.1552C44.4715 19.456 44.7369 19.8506 44.881 20.2944C45.0251 20.7381 45.0422 21.2134 44.9302 21.6664C44.8182 22.1193 44.5818 22.5319 44.2475 22.8575L36.4375 30.47L38.2825 41.2175C38.3613 41.6772 38.3099 42.1498 38.1341 42.5819C37.9582 43.014 37.6651 43.3882 37.2877 43.6623C36.9103 43.9365 36.4637 44.0996 35.9985 44.1332C35.5332 44.1668 35.0679 44.0695 34.655 43.8525L25.005 38.7775L15.35 43.8525C14.9372 44.0688 14.4721 44.1655 14.0073 44.1316C13.5425 44.0977 13.0964 43.9345 12.7194 43.6604C12.3424 43.3864 12.0495 43.0124 11.8738 42.5808C11.6981 42.1491 11.6466 41.6769 11.725 41.2175L13.5675 30.4675L5.7575 22.8575C5.42324 22.5319 5.18676 22.1193 5.07481 21.6664C4.96285 21.2134 4.9799 20.7381 5.12401 20.2944C5.26812 19.8506 5.53355 19.456 5.89027 19.1552C6.24698 18.8545 6.68075 18.6595 7.1425 18.5925L17.935 17.025L22.76 7.24996V7.24746Z" fill="#FFC700"/>
</svg>
