<svg width="50" height="50" viewBox="0 0 50 50" fill="none" xmlns="http://www.w3.org/2000/svg">
<path d="M22.76 7.24746C22.9663 6.8288 23.2857 6.47625 23.682 6.22972C24.0783 5.9832 24.5358 5.85254 25.0025 5.85254C25.4692 5.85254 25.9266 5.9832 26.323 6.22972C26.7193 6.47625 27.0387 6.8288 27.245 7.24746L32.07 17.025L42.8625 18.5925C43.3242 18.6595 43.758 18.8545 44.1147 19.1552C44.4714 19.456 44.7369 19.8506 44.881 20.2944C45.0251 20.7381 45.0421 21.2134 44.9302 21.6664C44.8182 22.1193 44.5818 22.5319 44.2475 22.8575L36.4375 30.47L38.2825 41.2175C38.3613 41.6772 38.3098 42.1498 38.134 42.5819C37.9582 43.014 37.6651 43.3882 37.2877 43.6623C36.9103 43.9365 36.4637 44.0996 35.9985 44.1332C35.5332 44.1668 35.0679 44.0695 34.655 43.8525L25.005 38.7775L15.35 43.8525C14.9372 44.0688 14.4721 44.1655 14.0073 44.1316C13.5425 44.0977 13.0964 43.9345 12.7194 43.6604C12.3424 43.3864 12.0495 43.0124 11.8738 42.5808C11.6981 42.1491 11.6466 41.6769 11.725 41.2175L13.5675 30.4675L5.75749 22.8575C5.42324 22.5319 5.18675 22.1193 5.0748 21.6664C4.96285 21.2134 4.97989 20.7381 5.124 20.2944C5.26811 19.8506 5.53354 19.456 5.89026 19.1552C6.24698 18.8545 6.68075 18.6595 7.1425 18.5925L17.935 17.025L22.76 7.24996V7.24746ZM25.0025 8.35246L20.1775 18.1325C19.9981 18.4959 19.733 18.8103 19.405 19.0486C19.0771 19.2868 18.6961 19.4417 18.295 19.5L7.49999 21.0675L15.31 28.68C15.5999 28.963 15.8167 29.3123 15.9417 29.6977C16.0667 30.0831 16.0961 30.4931 16.0275 30.8925L14.185 41.64L23.835 36.565C24.1939 36.3762 24.5933 36.2776 24.9987 36.2776C25.4042 36.2776 25.8036 36.3762 26.1625 36.565L35.815 41.64L33.9725 30.89C33.9043 30.491 33.9339 30.0815 34.0589 29.6965C34.1839 29.3116 34.4004 28.9627 34.69 28.68L42.5 21.0675L31.7075 19.5C31.3068 19.4413 30.9264 19.2862 30.5989 19.048C30.2714 18.8098 30.0067 18.4956 29.8275 18.1325L25.0025 8.35246V8.35246Z" fill="#FFC700"/>
</svg>
