<svg width="55" height="57" viewBox="0 0 55 57" fill="none" xmlns="http://www.w3.org/2000/svg">
<g clip-path="url(#clip0)">
<path d="M34.1256 39.2245H9.42968C9.13408 39.2245 8.89223 39.6245 8.89223 40.1133L8.88551 45.4457C8.88551 45.9345 9.12736 46.3345 9.42296 46.3345H34.1256C34.4212 46.3345 34.6631 45.9345 34.6631 45.4457V40.1133C34.6631 39.6245 34.4212 39.2245 34.1256 39.2245ZM34.1256 49.8894H9.40952C9.11392 49.8894 8.87207 50.2894 8.87207 50.7782L8.86535 56.1106C8.86535 56.5994 9.10721 56.9994 9.40281 56.9994H34.1256C34.4212 56.9994 34.6631 56.5994 34.6631 56.1106V50.7782C34.6631 50.2894 34.4212 49.8894 34.1256 49.8894ZM34.1256 28.5596H9.44311C9.14752 28.5596 8.90566 28.9596 8.90566 29.4484L8.89894 34.7808C8.89894 35.2696 9.1408 35.6696 9.4364 35.6696H34.1256C34.4212 35.6696 34.6631 35.2696 34.6631 34.7808V29.4484C34.6631 28.9596 34.4212 28.5596 34.1256 28.5596ZM41.2805 13.1178L23.0004 0.530953C22.6074 0.261419 22.1862 0.122681 21.7609 0.122681C21.3355 0.122681 20.9143 0.261419 20.5214 0.530953L2.24797 13.1178C1.05214 13.9509 0.266113 15.884 0.266113 18.0392V56.1106C0.266113 56.5994 0.507967 56.9994 0.803566 56.9994H6.17809C6.47369 56.9994 6.71554 56.5994 6.71554 56.1106V28.5596C6.71554 26.6044 7.69639 25.0047 8.90566 25.0047H34.6228C35.832 25.0047 36.8129 26.6044 36.8129 28.5596V56.1106C36.8129 56.5994 37.0547 56.9994 37.3503 56.9994H42.7249C43.0205 56.9994 43.2623 56.5994 43.2623 56.1106V18.0392C43.2623 15.884 42.4763 13.9509 41.2805 13.1178Z" fill="#545D70"/>
</g>
<defs>
<clipPath id="clip0">
<rect width="53.7452" height="56.8794" fill="white" transform="translate(0.266113 0.119141)"/>
</clipPath>
</defs>
</svg>
