<svg width="69" height="69" viewBox="0 0 69 69" fill="none" xmlns="http://www.w3.org/2000/svg">
<path d="M9.37622 34.5598H34.5597V38.757H9.37622V34.5598Z" fill="#60B75B"/>
<path d="M5.17896 24.0665H26.1652V28.2638H5.17896V24.0665Z" fill="#60B75B"/>
<path d="M63.7704 35.8316L57.4745 21.1412C57.313 20.7636 57.0441 20.4418 56.7012 20.2157C56.3583 19.9896 55.9566 19.8692 55.5459 19.8694H49.25V15.6722C49.25 15.1156 49.0289 14.5818 48.6354 14.1882C48.2418 13.7947 47.708 13.5735 47.1514 13.5735H13.5734V17.7708H45.0528V44.1211C44.0965 44.6764 43.2596 45.4155 42.5904 46.2958C41.9212 47.1761 41.4328 48.1802 41.1535 49.2501H27.9658C27.455 47.2719 26.2402 45.5478 24.5492 44.4011C22.8582 43.2543 20.807 42.7637 18.7801 43.0212C16.7532 43.2786 14.8898 44.2665 13.5392 45.7995C12.1885 47.3326 11.4434 49.3056 11.4434 51.3488C11.4434 53.3919 12.1885 55.365 13.5392 56.898C14.8898 58.4311 16.7532 59.4189 18.7801 59.6764C20.807 59.9338 22.8582 59.4432 24.5492 58.2965C26.2402 57.1498 27.455 55.4257 27.9658 53.4474H41.1535C41.6101 55.2485 42.6541 56.846 44.1205 57.9871C45.5869 59.1282 47.392 59.7477 49.25 59.7477C51.1081 59.7477 52.9131 59.1282 54.3795 57.9871C55.8459 56.846 56.89 55.2485 57.3465 53.4474H61.8418C62.3984 53.4474 62.9322 53.2263 63.3257 52.8327C63.7193 52.4392 63.9404 51.9054 63.9404 51.3488V36.6584C63.9405 36.3741 63.8827 36.0928 63.7704 35.8316ZM19.8693 55.546C19.0392 55.546 18.2277 55.2999 17.5374 54.8387C16.8472 54.3775 16.3092 53.7219 15.9915 52.955C15.6739 52.188 15.5907 51.3441 15.7527 50.5299C15.9147 49.7157 16.3144 48.9679 16.9014 48.3809C17.4884 47.7939 18.2363 47.3941 19.0505 47.2322C19.8646 47.0702 20.7086 47.1533 21.4755 47.471C22.2425 47.7887 22.898 48.3267 23.3592 49.0169C23.8204 49.7071 24.0665 50.5186 24.0665 51.3488C24.0654 52.4616 23.6229 53.5285 22.836 54.3154C22.0491 55.1023 20.9821 55.5449 19.8693 55.546ZM49.25 24.0667H54.1608L58.6603 34.5598H49.25V24.0667ZM49.25 55.546C48.4199 55.546 47.6084 55.2999 46.9182 54.8387C46.2279 54.3775 45.69 53.7219 45.3723 52.955C45.0546 52.188 44.9715 51.3441 45.1334 50.5299C45.2954 49.7157 45.6951 48.9679 46.2821 48.3809C46.8691 47.7939 47.617 47.3941 48.4312 47.2322C49.2454 47.0702 50.0893 47.1533 50.8563 47.471C51.6232 47.7887 52.2787 48.3267 52.7399 49.0169C53.2011 49.7071 53.4473 50.5186 53.4473 51.3488C53.4462 52.4616 53.0036 53.5285 52.2167 54.3154C51.4298 55.1023 50.3629 55.5449 49.25 55.546ZM59.7432 49.2501H57.3465C56.8842 47.4525 55.8385 45.8591 54.3733 44.7198C52.908 43.5804 51.1061 42.9594 49.25 42.9543V38.757H59.7432V49.2501Z" fill="#60B75B"/>
</svg>
