<svg width="44" height="58" viewBox="0 0 44 58" fill="none" xmlns="http://www.w3.org/2000/svg">
<path d="M21.7642 57.3289C17.885 53.925 14.2896 50.1936 11.0151 46.1734C6.1013 40.1359 0.266116 31.1445 0.266116 22.5764C0.261755 13.6278 5.50012 5.5584 13.5368 2.13374C21.5734 -1.29096 30.8244 0.604122 36.9725 6.93463C41.0157 11.0753 43.2803 16.7076 43.2622 22.5764C43.2622 31.1445 37.427 40.1359 32.5132 46.1734C29.2387 50.1936 25.6433 53.925 21.7642 57.3289ZM21.7642 6.77983C13.2876 6.79028 6.41858 13.8565 6.40841 22.5764C6.40841 26.2602 8.02691 32.6389 15.7294 42.12C17.6276 44.4515 19.642 46.6811 21.7642 48.7987C23.8863 46.6833 25.9016 44.4575 27.802 42.1294C35.5014 32.6357 37.1199 26.257 37.1199 22.5764C37.1098 13.8565 30.2408 6.79028 21.7642 6.77983ZM21.7642 32.0544C16.6756 32.0544 12.5507 27.8108 12.5507 22.5764C12.5507 17.3419 16.6756 13.0985 21.7642 13.0985C26.8527 13.0985 30.9776 17.3419 30.9776 22.5764C30.9776 25.09 30.0068 27.5009 28.279 29.2783C26.5512 31.0557 24.2079 32.0544 21.7642 32.0544Z" fill="#545D70"/>
</svg>
