<svg width="100" height="100" viewBox="0 0 100 100" fill="none" xmlns="http://www.w3.org/2000/svg">
<path d="M61.1112 91.6666V54.1666L92.9723 22.2222C93.4458 21.7487 93.82 21.1853 94.0728 20.5652C94.3256 19.9451 94.452 19.2807 94.4445 18.6111V13.8889C94.4445 13.1521 94.1519 12.4456 93.631 11.9247C93.11 11.4037 92.4035 11.1111 91.6668 11.1111H8.33344C7.59673 11.1111 6.89019 11.4037 6.36926 11.9247C5.84832 12.4456 5.55566 13.1521 5.55566 13.8889V18.5278C5.55618 19.1838 5.68654 19.8333 5.93921 20.4388C6.19188 21.0442 6.56188 21.5937 7.02789 22.0555L38.889 54.3889V82.7222L61.1112 91.6666Z" fill="white"/>
</svg>
