<svg width="133" height="132" viewBox="0 0 133 132" fill="none" xmlns="http://www.w3.org/2000/svg">
<path d="M103.985 111.491L72.6162 80.1162C58.6613 90.0374 39.4327 87.6107 28.3805 74.5334C17.3283 61.4567 18.1398 42.0925 30.2474 29.9863C42.3518 17.8748 61.7181 17.0597 74.7975 28.1114C87.8765 39.163 90.3047 58.3937 80.383 72.3494L111.752 103.724L103.991 111.485L103.985 111.491ZM53.5313 31.3145C43.1227 31.3122 34.1428 38.6185 32.0284 48.81C29.914 59.0015 35.2462 69.2773 44.7967 73.4159C54.3471 77.554 65.4911 74.4176 71.4812 65.906C77.4717 57.3938 76.6616 45.8454 69.5425 38.2525L72.8633 41.5459L69.1198 37.8134L69.054 37.7476C64.9472 33.6154 59.3573 31.2988 53.5313 31.3145Z" fill="#545D70"/>
</svg>
