<svg width="74" height="84" viewBox="0 0 74 84" fill="none" xmlns="http://www.w3.org/2000/svg">
<path d="M35.0703 83.292C15.7015 83.292 0 67.5906 0 48.2217C0 28.8529 15.7015 13.1514 35.0703 13.1514C54.4393 13.1514 70.1407 28.8529 70.1407 48.2217C70.1188 67.5814 54.43 83.2701 35.0703 83.292ZM35.0703 21.919C20.5437 21.919 8.76758 33.6951 8.76758 48.2217C8.76758 62.7483 20.5437 74.5245 35.0703 74.5245C49.5969 74.5245 61.3731 62.7483 61.3731 48.2217C61.356 33.7021 49.5899 21.9359 35.0703 21.919ZM39.4541 52.6055H30.6865V30.6865H39.4541V52.6055ZM67.0413 25.0183L58.2738 16.2507L64.4724 10.052L73.24 18.8196L67.0457 25.0139L67.0413 25.0183ZM48.2217 8.76758H21.919V0H48.2217V8.76758Z" fill="#2E3A59"/>
</svg>
